M48
;Layer_Color=9474304
;FILE_FORMAT=2:5
INCH,LZ
;TYPE=PLATED
T1F00S00C0.01378
T2F00S00C0.02800
T3F00S00C0.03150
%
T01
X0165Y00505
X0169
X0173
X01775
X01815
X0245Y00405
X02485
Y0036
X0245
Y0031
X02485
Y0026
X0245
X02455Y00195
Y00135
Y00065
T02
X0492Y0041
X05145Y004
X05215
X05295Y00405
X01525Y0036
X0144Y0037
X0135Y0031
X01075Y00395
X0102Y00575
X01015Y00665
X0108Y0071
X0079Y0077
X0087Y00555
X0035Y0062
X0043Y0071
X0034Y0097
X00265Y005
X0037Y004
X00315Y0026
X0063Y00155
X0072Y0121
X0065Y01795
X0066Y01965
X0044Y0201594
X00315Y0207
X00405Y0164
X0233Y02215
X04065Y01025
X04935Y02125
X0519Y0213
X05285
X05415Y01975
X0523083Y0243083
T03
X029Y00065
X03055Y0006
X00765Y00175
X00145Y004
Y0053
X0019Y0087441
Y009502
Y01025
X0018902Y0110768
Y0119331
X0019Y0137244
X0081197Y0159224
X0081394Y0175465
X0101394
X0101197Y0159224
X0097697Y0191724
X0086197Y0192724
X0076106Y0193035
X0076303Y0209276
X0086394Y0208965
X0097894Y0207965
X0019Y0222
X0118894Y0175465
X0118697Y0159224
X0190894Y0157965
X0190697Y0141724
X0213Y01405
X0213197Y015674
X0236394Y0157465
X0236197Y0141224
X02105Y02055
X0260197Y015724
X026Y0141
X0281197Y0141224
X0281394Y0157465
X0297402Y0152905
X0297598Y0163764
X0297402Y0179905
X0297598Y0136764
X05415Y0154028
Y01745
M30
