G04*
G04 #@! TF.GenerationSoftware,Altium Limited,Altium Designer,20.2.7 (254)*
G04*
G04 Layer_Color=16711935*
%FSLAX25Y25*%
%MOIN*%
G70*
G04*
G04 #@! TF.SameCoordinates,6C2C61A8-3AF8-4D38-8781-6E19ECE08A8B*
G04*
G04*
G04 #@! TF.FilePolarity,Positive*
G04*
G01*
G75*
%ADD10C,0.00394*%
%ADD11C,0.00787*%
D10*
X141563Y28461D02*
X149437D01*
Y23539D02*
Y28461D01*
X141563Y23539D02*
X149437D01*
X141563D02*
Y28461D01*
X41331Y55724D02*
X64953D01*
Y32102D02*
Y55724D01*
X41331Y32102D02*
X64953D01*
X41331D02*
Y55724D01*
X522492Y236650D02*
X535090D01*
Y230350D02*
Y236650D01*
X522492Y230350D02*
X535090D01*
X522492D02*
Y236650D01*
X150216Y63035D02*
Y79965D01*
X139784Y63035D02*
X150216D01*
X139784D02*
Y79965D01*
X150216D01*
X147618D02*
X150216Y77366D01*
X116350Y35405D02*
X122650D01*
Y23595D02*
Y35405D01*
X116350Y23595D02*
X122650D01*
X116350D02*
Y35405D01*
Y31665D02*
X120091Y35405D01*
X135216Y125535D02*
Y142465D01*
X124784Y125535D02*
X135216D01*
X124784D02*
Y142465D01*
X135216D01*
X132618D02*
X135216Y139866D01*
X104783Y125535D02*
Y142465D01*
X115217D01*
Y125535D02*
Y142465D01*
X104783Y125535D02*
X115217D01*
X104783Y128134D02*
X107382Y125535D01*
X94717D02*
Y142465D01*
X84284Y125535D02*
X94717D01*
X84284D02*
Y142465D01*
X94717D01*
X92118D02*
X94717Y139866D01*
X47598Y149102D02*
X72402D01*
Y136898D02*
Y149102D01*
X47598Y136898D02*
X72402D01*
X47598D02*
Y149102D01*
X133217Y94535D02*
Y111465D01*
X122784Y94535D02*
X133217D01*
X122784D02*
Y111465D01*
X133217D01*
X130618D02*
X133217Y108866D01*
X25563Y161961D02*
X33437D01*
Y157039D02*
Y161961D01*
X25563Y157039D02*
X33437D01*
X25563D02*
Y161961D01*
X54500Y201039D02*
X62374D01*
X54500D02*
Y205961D01*
X62374D01*
Y201039D02*
Y205961D01*
X23799Y193350D02*
X36201D01*
X23799D02*
Y199650D01*
X36201D01*
Y193350D02*
Y199650D01*
X164768Y100161D02*
Y122602D01*
X145083Y100161D02*
X164768D01*
X145083D02*
Y122602D01*
X164768D01*
X130717Y63035D02*
Y79965D01*
X120283Y63035D02*
X130717D01*
X120283D02*
Y79965D01*
X130717D01*
X128118D02*
X130717Y77366D01*
X47323Y231646D02*
X62677D01*
Y212354D02*
Y231646D01*
X47323Y212354D02*
X62677D01*
X47323D02*
Y231646D01*
Y226646D02*
X52323Y231646D01*
X58563Y168961D02*
X66437D01*
Y164039D02*
Y168961D01*
X58563Y164039D02*
X66437D01*
X58563D02*
Y168961D01*
X49012Y101295D02*
X62791D01*
Y75705D02*
Y101295D01*
X49012Y75705D02*
X62791D01*
X49012D02*
Y101295D01*
Y92240D02*
X58067Y101295D01*
X23799Y180650D02*
X36201D01*
Y174350D02*
Y180650D01*
X23799Y174350D02*
X36201D01*
X23799D02*
Y180650D01*
X45063Y178461D02*
X52937D01*
Y173539D02*
Y178461D01*
X45063Y173539D02*
X52937D01*
X45063D02*
Y178461D01*
X101543Y84961D02*
X109457D01*
Y80039D02*
Y84961D01*
X101543Y80039D02*
X109457D01*
X101543D02*
Y84961D01*
X100713Y98961D02*
X108626D01*
Y94039D02*
Y98961D01*
X100713Y94039D02*
X108626D01*
X100713D02*
Y98961D01*
X46063Y190461D02*
X53937D01*
Y185539D02*
Y190461D01*
X46063Y185539D02*
X53937D01*
X46063D02*
Y190461D01*
X84043Y70461D02*
X91957D01*
Y65539D02*
Y70461D01*
X84043Y65539D02*
X91957D01*
X84043D02*
Y70461D01*
X121213Y49961D02*
X129126D01*
Y45039D02*
Y49961D01*
X121213Y45039D02*
X129126D01*
X121213D02*
Y49961D01*
X104213D02*
X112126D01*
Y45039D02*
Y49961D01*
X104213Y45039D02*
X112126D01*
X104213D02*
Y49961D01*
X87213D02*
X95126D01*
Y45039D02*
Y49961D01*
X87213Y45039D02*
X95126D01*
X87213D02*
Y49961D01*
X93350Y36406D02*
X99650D01*
Y24595D02*
Y36406D01*
X93350Y24595D02*
X99650D01*
X93350D02*
Y36406D01*
Y32665D02*
X97091Y36406D01*
X83500Y97961D02*
X91374D01*
Y93039D02*
Y97961D01*
X83500Y93039D02*
X91374D01*
X83500D02*
Y97961D01*
X80961Y35063D02*
Y42937D01*
X76039Y35063D02*
X80961D01*
X76039D02*
Y42937D01*
X80961D01*
X160449Y26185D02*
Y36815D01*
X166551D01*
Y26185D02*
Y36815D01*
X160449Y26185D02*
X166551D01*
X160449Y28646D02*
X162909Y26185D01*
X80063Y112961D02*
X87937D01*
Y108039D02*
Y112961D01*
X80063Y108039D02*
X87937D01*
X80063D02*
Y112961D01*
X84043Y85961D02*
X91957D01*
Y81039D02*
Y85961D01*
X84043Y81039D02*
X91957D01*
X84043D02*
Y85961D01*
D11*
X203102Y44315D02*
Y91362D01*
X265898D01*
Y44315D02*
Y91362D01*
X203102Y44315D02*
X265898D01*
M02*
