G04*
G04 #@! TF.GenerationSoftware,Altium Limited,Altium Designer,20.2.7 (254)*
G04*
G04 Layer_Color=2752767*
%FSLAX25Y25*%
%MOIN*%
G70*
G04*
G04 #@! TF.SameCoordinates,445C0D7E-7E36-472A-9239-D9981030C948*
G04*
G04*
G04 #@! TF.FilePolarity,Positive*
G04*
G01*
G75*
%ADD91C,0.00200*%
%ADD92C,0.00267*%
D91*
X487078Y49889D02*
Y51489D01*
X488678D01*
Y49889D01*
X487078D01*
X486881Y62684D02*
Y64284D01*
X488481D01*
Y62684D01*
X486881D01*
X302681Y310684D02*
X301881Y312284D01*
X303481D01*
X302681Y310684D01*
X283181Y256684D02*
X282381Y258284D01*
X283981D01*
X283181Y256684D01*
X183181Y47184D02*
X182381Y48784D01*
X183981D01*
X183181Y47184D01*
X400181Y33684D02*
X399381Y35284D01*
X400981D01*
X400181Y33684D01*
X8381Y438184D02*
Y439784D01*
X9981D01*
Y438184D01*
X8381D01*
X112181Y444684D02*
X111381Y446284D01*
X112981D01*
X112181Y444684D01*
X305681Y378684D02*
X304881Y380284D01*
X306481D01*
X305681Y378684D01*
X188078Y428385D02*
Y429985D01*
X189678D01*
Y428385D01*
X188078D01*
X187979Y416180D02*
Y417780D01*
X189579D01*
Y416180D01*
X187979D01*
X207979D02*
Y417780D01*
X209579D01*
Y416180D01*
X207979D01*
X208078Y428385D02*
Y429985D01*
X209678D01*
Y428385D01*
X208078D01*
X226078Y427885D02*
Y429485D01*
X227678D01*
Y427885D01*
X226078D01*
X225979Y415680D02*
Y417280D01*
X227579D01*
Y415680D01*
X225979D01*
X244980Y415180D02*
Y416780D01*
X246580D01*
Y415180D01*
X244980D01*
X245078Y427385D02*
Y428985D01*
X246678D01*
Y427385D01*
X245078D01*
X265578Y427885D02*
Y429485D01*
X267178D01*
Y427885D01*
X265578D01*
X265479Y415680D02*
Y417280D01*
X267079D01*
Y415680D01*
X265479D01*
X168583Y464590D02*
X168983Y464990D01*
X169383D01*
X168983Y465390D01*
X169383Y465790D01*
X168983D01*
X168583Y466190D01*
X168183Y465790D01*
X167783D01*
X168183Y465390D01*
X167783Y464990D01*
X168183D01*
X168583Y464590D01*
X168780Y448448D02*
X169179Y448848D01*
X169580D01*
X169179Y449248D01*
X169580Y449648D01*
X169179D01*
X168780Y450048D01*
X168379Y449648D01*
X167980D01*
X168379Y449248D01*
X167980Y448848D01*
X168379D01*
X168780Y448448D01*
X168583Y434590D02*
X168983Y434990D01*
X169383D01*
X168983Y435390D01*
X169383Y435790D01*
X168983D01*
X168583Y436190D01*
X168183Y435790D01*
X167783D01*
X168183Y435390D01*
X167783Y434990D01*
X168183D01*
X168583Y434590D01*
X168780Y418448D02*
X169179Y418848D01*
X169580D01*
X169179Y419248D01*
X169580Y419648D01*
X169179D01*
X168780Y420048D01*
X168379Y419648D01*
X167980D01*
X168379Y419248D01*
X167980Y418848D01*
X168379D01*
X168780Y418448D01*
X184381Y328184D02*
Y329784D01*
X185981D01*
Y328184D01*
X184381D01*
X9976Y270232D02*
Y271832D01*
X11576D01*
Y270232D01*
X9976D01*
X10074Y277811D02*
Y279411D01*
X11674D01*
Y277811D01*
X10074D01*
X11006Y345989D02*
X11406Y346389D01*
X11806D01*
X11406Y346789D01*
X11806Y347189D01*
X11406D01*
X11006Y347589D01*
X10606Y347189D01*
X10206D01*
X10606Y346789D01*
X10206Y346389D01*
X10606D01*
X11006Y345989D01*
X10339Y244160D02*
Y245760D01*
X11938D01*
Y244160D01*
X10339D01*
X9846Y308530D02*
Y310130D01*
X11446D01*
Y308530D01*
X9846D01*
X9945Y285499D02*
Y287099D01*
X11545D01*
Y285499D01*
X9945D01*
X11237Y356365D02*
X11637Y356765D01*
X12037D01*
X11637Y357165D01*
X12037Y357565D01*
X11637D01*
X11237Y357965D01*
X10837Y357565D01*
X10437D01*
X10837Y357165D01*
X10437Y356765D01*
X10837D01*
X11237Y356365D01*
X9059Y329593D02*
Y331193D01*
X10659D01*
Y329593D01*
X9059D01*
X9846Y301247D02*
Y302847D01*
X11446D01*
Y301247D01*
X9846D01*
X9945Y292979D02*
Y294579D01*
X11545D01*
Y292979D01*
X9945D01*
X10079Y235203D02*
Y236803D01*
X11679D01*
Y235203D01*
X10079D01*
X8881Y319184D02*
Y320784D01*
X10481D01*
Y319184D01*
X8881D01*
X10142Y259318D02*
Y260918D01*
X11742D01*
Y259318D01*
X10142D01*
X145669Y310224D02*
X146069Y310624D01*
X146469D01*
X146069Y311024D01*
X146469Y311424D01*
X146069D01*
X145669Y311824D01*
X145269Y311424D01*
X144869D01*
X145269Y311024D01*
X144869Y310624D01*
X145269D01*
X145669Y310224D01*
X518098Y19279D02*
X518498Y20079D01*
X518098Y20879D01*
X518898Y20479D01*
X519698Y20879D01*
X519298Y20079D01*
X519698Y19279D01*
X518898Y19679D01*
X518098Y19279D01*
X505499D02*
X505899Y20079D01*
X505499Y20879D01*
X506299Y20479D01*
X507099Y20879D01*
X506699Y20079D01*
X507099Y19279D01*
X506299Y19679D01*
X505499Y19279D01*
X493294Y19672D02*
X493694Y20472D01*
X493294Y21272D01*
X494095Y20872D01*
X494895Y21272D01*
X494494Y20472D01*
X494895Y19672D01*
X494095Y20072D01*
X493294Y19672D01*
X227547Y20066D02*
X227946Y20866D01*
X227547Y21666D01*
X228346Y21266D01*
X229147Y21666D01*
X228747Y20866D01*
X229147Y20066D01*
X228346Y20466D01*
X227547Y20066D01*
X239751Y19672D02*
X240151Y20472D01*
X239751Y21272D01*
X240551Y20872D01*
X241351Y21272D01*
X240951Y20472D01*
X241351Y19672D01*
X240551Y20072D01*
X239751Y19672D01*
X252350D02*
X252750Y20472D01*
X252350Y21272D01*
X253150Y20872D01*
X253950Y21272D01*
X253550Y20472D01*
X253950Y19672D01*
X253150Y20072D01*
X252350Y19672D01*
X20066Y161011D02*
X20466Y161811D01*
X20066Y162611D01*
X20866Y162211D01*
X21666Y162611D01*
X21266Y161811D01*
X21666Y161011D01*
X20866Y161411D01*
X20066Y161011D01*
Y173609D02*
X20466Y174409D01*
X20066Y175209D01*
X20866Y174809D01*
X21666Y175209D01*
X21266Y174409D01*
X21666Y173609D01*
X20866Y174009D01*
X20066Y173609D01*
X20460Y185814D02*
X20860Y186614D01*
X20460Y187414D01*
X21260Y187014D01*
X22060Y187414D01*
X21660Y186614D01*
X22060Y185814D01*
X21260Y186214D01*
X20460Y185814D01*
X114167Y328340D02*
Y327940D01*
X114967D01*
Y328340D01*
X115367D01*
Y329140D01*
X114967D01*
Y329540D01*
X114167D01*
Y329140D01*
X113767D01*
Y328340D01*
X114167D01*
X48813Y338576D02*
Y338176D01*
X49613D01*
Y338576D01*
X50013D01*
Y339376D01*
X49613D01*
Y339776D01*
X48813D01*
Y339376D01*
X48413D01*
Y338576D01*
X48813D01*
X215348Y210230D02*
Y209830D01*
X216148D01*
Y210230D01*
X216548D01*
Y211030D01*
X216148D01*
Y211430D01*
X215348D01*
Y211030D01*
X214948D01*
Y210230D01*
X215348D01*
X311011Y467310D02*
X311411Y468110D01*
X311011Y468910D01*
X311811Y468510D01*
X312611Y468910D01*
X312211Y468110D01*
X312611Y467310D01*
X311811Y467710D01*
X311011Y467310D01*
X321247D02*
X321647Y468110D01*
X321247Y468910D01*
X322047Y468510D01*
X322847Y468910D01*
X322447Y468110D01*
X322847Y467310D01*
X322047Y467710D01*
X321247Y467310D01*
X432650Y381889D02*
X433050Y382689D01*
X432650Y383489D01*
X433450Y383089D01*
X434250Y383489D01*
X433850Y382689D01*
X434250Y381889D01*
X433450Y382289D01*
X432650Y381889D01*
X432977Y391629D02*
X433377Y392428D01*
X432977Y393229D01*
X433777Y392828D01*
X434577Y393229D01*
X434177Y392428D01*
X434577Y391629D01*
X433777Y392028D01*
X432977Y391629D01*
X179909Y486208D02*
X180309Y487008D01*
X179909Y487808D01*
X180709Y487408D01*
X181509Y487808D01*
X181109Y487008D01*
X181509Y486208D01*
X180709Y486608D01*
X179909Y486208D01*
X469679Y74010D02*
Y73610D01*
X470479D01*
Y74010D01*
X470879D01*
Y74809D01*
X470479D01*
Y75209D01*
X469679D01*
Y74809D01*
X469279D01*
Y74010D01*
X469679D01*
X457868Y73616D02*
Y73216D01*
X458668D01*
Y73616D01*
X459068D01*
Y74416D01*
X458668D01*
Y74816D01*
X457868D01*
Y74416D01*
X457468D01*
Y73616D01*
X457868D01*
X433852Y59836D02*
Y59436D01*
X434652D01*
Y59836D01*
X435052D01*
Y60636D01*
X434652D01*
Y61036D01*
X433852D01*
Y60636D01*
X433452D01*
Y59836D01*
X433852D01*
X439188Y45814D02*
X439588D01*
X439988Y46214D01*
X440388Y45814D01*
X440788D01*
Y46214D01*
X440388Y46614D01*
X440788Y47014D01*
Y47414D01*
X440388D01*
X439988Y47014D01*
X439588Y47414D01*
X439188D01*
Y47014D01*
X439588Y46614D01*
X439188Y46214D01*
Y45814D01*
X435421Y45657D02*
X435820D01*
X436221Y46057D01*
X436621Y45657D01*
X437020D01*
Y46057D01*
X436621Y46457D01*
X437020Y46857D01*
Y47257D01*
X436621D01*
X436221Y46857D01*
X435820Y47257D01*
X435421D01*
Y46857D01*
X435820Y46457D01*
X435421Y46057D01*
Y45657D01*
X248881Y86984D02*
X249681Y87784D01*
X250481Y86984D01*
X249681Y86184D01*
X248881Y86984D01*
X244881D02*
X245681Y87784D01*
X246481Y86984D01*
X245681Y86184D01*
X244881Y86984D01*
X240881D02*
X241681Y87784D01*
X242481Y86984D01*
X241681Y86184D01*
X240881Y86984D01*
X210723Y63033D02*
X211123D01*
X211523Y63433D01*
X211923Y63033D01*
X212323D01*
Y63433D01*
X211923Y63833D01*
X212323Y64233D01*
Y64633D01*
X211923D01*
X211523Y64233D01*
X211123Y64633D01*
X210723D01*
Y64233D01*
X211123Y63833D01*
X210723Y63433D01*
Y63033D01*
X207861Y62980D02*
X208261D01*
X208661Y63380D01*
X209061Y62980D01*
X209461D01*
Y63380D01*
X209061Y63780D01*
X209461Y64180D01*
Y64580D01*
X209061D01*
X208661Y64180D01*
X208261Y64580D01*
X207861D01*
Y64180D01*
X208261Y63780D01*
X207861Y63380D01*
Y62980D01*
X238970Y210624D02*
Y210224D01*
X239770D01*
Y210624D01*
X240170D01*
Y211424D01*
X239770D01*
Y211824D01*
X238970D01*
Y211424D01*
X238570D01*
Y210624D01*
X238970D01*
X446559Y73507D02*
Y73107D01*
X447359D01*
Y73507D01*
X447759D01*
Y74308D01*
X447359D01*
Y74708D01*
X446559D01*
Y74308D01*
X446159D01*
Y73507D01*
X446559D01*
X210617Y69279D02*
X211017D01*
X211417Y69679D01*
X211817Y69279D01*
X212217D01*
Y69679D01*
X211817Y70079D01*
X212217Y70479D01*
Y70879D01*
X211817D01*
X211417Y70479D01*
X211017Y70879D01*
X210617D01*
Y70479D01*
X211017Y70079D01*
X210617Y69679D01*
Y69279D01*
X207861D02*
X208261D01*
X208661Y69679D01*
X209061Y69279D01*
X209461D01*
Y69679D01*
X209061Y70079D01*
X209461Y70479D01*
Y70879D01*
X209061D01*
X208661Y70479D01*
X208261Y70879D01*
X207861D01*
Y70479D01*
X208261Y70079D01*
X207861Y69679D01*
Y69279D01*
X6293Y455506D02*
Y455105D01*
X7093D01*
Y455506D01*
X7493D01*
Y456306D01*
X7093D01*
Y456706D01*
X6293D01*
Y456306D01*
X5893D01*
Y455506D01*
X6293D01*
X14167Y470072D02*
Y469672D01*
X14967D01*
Y470072D01*
X15367D01*
Y470872D01*
X14967D01*
Y471272D01*
X14167D01*
Y470872D01*
X13767D01*
Y470072D01*
X14167D01*
X75881Y433684D02*
Y435284D01*
X77481D01*
Y433684D01*
X75881D01*
X76381Y467684D02*
Y469284D01*
X77981D01*
Y467684D01*
X76381D01*
X214781Y98084D02*
Y97684D01*
X215581D01*
Y98084D01*
X215981D01*
Y98884D01*
X215581D01*
Y99284D01*
X214781D01*
Y98884D01*
X214381D01*
Y98084D01*
X214781D01*
X121281Y314084D02*
Y313684D01*
X122081D01*
Y314084D01*
X122481D01*
Y314884D01*
X122081D01*
Y315284D01*
X121281D01*
Y314884D01*
X120881D01*
Y314084D01*
X121281D01*
X115781Y305084D02*
Y304684D01*
X116581D01*
Y305084D01*
X116981D01*
Y305884D01*
X116581D01*
Y306284D01*
X115781D01*
Y305884D01*
X115381D01*
Y305084D01*
X115781D01*
X243681Y264184D02*
X244081Y264584D01*
X244481D01*
X244081Y264984D01*
X244481Y265384D01*
X244081D01*
X243681Y265784D01*
X243281Y265384D01*
X242881D01*
X243281Y264984D01*
X242881Y264584D01*
X243281D01*
X243681Y264184D01*
X210681D02*
X211081Y264584D01*
X211481D01*
X211081Y264984D01*
X211481Y265384D01*
X211081D01*
X210681Y265784D01*
X210281Y265384D01*
X209881D01*
X210281Y264984D01*
X209881Y264584D01*
X210281D01*
X210681Y264184D01*
X123681Y419684D02*
X124081Y420084D01*
X124481D01*
X124081Y420484D01*
X124481Y420884D01*
X124081D01*
X123681Y421284D01*
X123281Y420884D01*
X122881D01*
X123281Y420484D01*
X122881Y420084D01*
X123281D01*
X123681Y419684D01*
X126181Y470184D02*
X126581Y470584D01*
X126981D01*
X126581Y470984D01*
X126981Y471384D01*
X126581D01*
X126181Y471784D01*
X125781Y471384D01*
X125381D01*
X125781Y470984D01*
X125381Y470584D01*
X125781D01*
X126181Y470184D01*
X133681D02*
X134081Y470584D01*
X134481D01*
X134081Y470984D01*
X134481Y471384D01*
X134081D01*
X133681Y471784D01*
X133281Y471384D01*
X132881D01*
X133281Y470984D01*
X132881Y470584D01*
X133281D01*
X133681Y470184D01*
X119181D02*
X119581Y470584D01*
X119981D01*
X119581Y470984D01*
X119981Y471384D01*
X119581D01*
X119181Y471784D01*
X118781Y471384D01*
X118381D01*
X118781Y470984D01*
X118381Y470584D01*
X118781D01*
X119181Y470184D01*
X131181Y419184D02*
X131581Y419584D01*
X131981D01*
X131581Y419984D01*
X131981Y420384D01*
X131581D01*
X131181Y420784D01*
X130781Y420384D01*
X130381D01*
X130781Y419984D01*
X130381Y419584D01*
X130781D01*
X131181Y419184D01*
X115681D02*
X116081Y419584D01*
X116481D01*
X116081Y419984D01*
X116481Y420384D01*
X116081D01*
X115681Y420784D01*
X115281Y420384D01*
X114881D01*
X115281Y419984D01*
X114881Y419584D01*
X115281D01*
X115681Y419184D01*
X519681Y88684D02*
X520081Y89084D01*
X520481D01*
X520081Y89484D01*
X520481Y89884D01*
X520081D01*
X519681Y90284D01*
X519281Y89884D01*
X518881D01*
X519281Y89484D01*
X518881Y89084D01*
X519281D01*
X519681Y88684D01*
X486681Y89184D02*
X487081Y89584D01*
X487481D01*
X487081Y89984D01*
X487481Y90384D01*
X487081D01*
X486681Y90784D01*
X486281Y90384D01*
X485881D01*
X486281Y89984D01*
X485881Y89584D01*
X486281D01*
X486681Y89184D01*
X455681Y88684D02*
X456081Y89084D01*
X456481D01*
X456081Y89484D01*
X456481Y89884D01*
X456081D01*
X455681Y90284D01*
X455281Y89884D01*
X454881D01*
X455281Y89484D01*
X454881Y89084D01*
X455281D01*
X455681Y88684D01*
X420681D02*
X421081Y89084D01*
X421481D01*
X421081Y89484D01*
X421481Y89884D01*
X421081D01*
X420681Y90284D01*
X420281Y89884D01*
X419881D01*
X420281Y89484D01*
X419881Y89084D01*
X420281D01*
X420681Y88684D01*
X306181Y73684D02*
X306581Y74084D01*
X306981D01*
X306581Y74484D01*
X306981Y74884D01*
X306581D01*
X306181Y75284D01*
X305781Y74884D01*
X305381D01*
X305781Y74484D01*
X305381Y74084D01*
X305781D01*
X306181Y73684D01*
X285181Y60684D02*
X285581Y61084D01*
X285981D01*
X285581Y61484D01*
X285981Y61884D01*
X285581D01*
X285181Y62284D01*
X284781Y61884D01*
X284381D01*
X284781Y61484D01*
X284381Y61084D01*
X284781D01*
X285181Y60684D01*
X268381Y73484D02*
X269181Y74284D01*
X269981Y73484D01*
X269181Y72684D01*
X268381Y73484D01*
X293381Y89484D02*
X294181Y90284D01*
X294981Y89484D01*
X294181Y88684D01*
X293381Y89484D01*
X354881Y208184D02*
X355281Y208984D01*
X354881Y209784D01*
X355681Y209384D01*
X356481Y209784D01*
X356081Y208984D01*
X356481Y208184D01*
X355681Y208584D01*
X354881Y208184D01*
X290604Y95386D02*
X291004Y95786D01*
X291404D01*
X291004Y96186D01*
X291404Y96586D01*
X291004D01*
X290604Y96986D01*
X290204Y96586D01*
X289804D01*
X290204Y96186D01*
X289804Y95786D01*
X290204D01*
X290604Y95386D01*
X301681Y93684D02*
X302081Y94084D01*
X302481D01*
X302081Y94484D01*
X302481Y94884D01*
X302081D01*
X301681Y95284D01*
X301281Y94884D01*
X300881D01*
X301281Y94484D01*
X300881Y94084D01*
X301281D01*
X301681Y93684D01*
X283681Y102184D02*
X284081Y102584D01*
X284481D01*
X284081Y102984D01*
X284481Y103384D01*
X284081D01*
X283681Y103784D01*
X283281Y103384D01*
X282881D01*
X283281Y102984D01*
X282881Y102584D01*
X283281D01*
X283681Y102184D01*
Y110184D02*
X284081Y110584D01*
X284481D01*
X284081Y110984D01*
X284481Y111384D01*
X284081D01*
X283681Y111784D01*
X283281Y111384D01*
X282881D01*
X283281Y110984D01*
X282881Y110584D01*
X283281D01*
X283681Y110184D01*
X288681Y118684D02*
X289081Y119084D01*
X289481D01*
X289081Y119484D01*
X289481Y119884D01*
X289081D01*
X288681Y120284D01*
X288281Y119884D01*
X287881D01*
X288281Y119484D01*
X287881Y119084D01*
X288281D01*
X288681Y118684D01*
X297931Y119934D02*
X298331Y120334D01*
X298731D01*
X298331Y120734D01*
X298731Y121134D01*
X298331D01*
X297931Y121534D01*
X297531Y121134D01*
X297131D01*
X297531Y120734D01*
X297131Y120334D01*
X297531D01*
X297931Y119934D01*
X293681Y160684D02*
X294081Y161084D01*
X294481D01*
X294081Y161484D01*
X294481Y161884D01*
X294081D01*
X293681Y162284D01*
X293281Y161884D01*
X292881D01*
X293281Y161484D01*
X292881Y161084D01*
X293281D01*
X293681Y160684D01*
X370681Y88684D02*
X371081Y89084D01*
X371481D01*
X371081Y89484D01*
X371481Y89884D01*
X371081D01*
X370681Y90284D01*
X370281Y89884D01*
X369881D01*
X370281Y89484D01*
X369881Y89084D01*
X370281D01*
X370681Y88684D01*
X301181Y135684D02*
X301581Y136084D01*
X301981D01*
X301581Y136484D01*
X301981Y136884D01*
X301581D01*
X301181Y137284D01*
X300781Y136884D01*
X300381D01*
X300781Y136484D01*
X300381Y136084D01*
X300781D01*
X301181Y135684D01*
Y127684D02*
X301581Y128084D01*
X301981D01*
X301581Y128484D01*
X301981Y128884D01*
X301581D01*
X301181Y129284D01*
X300781Y128884D01*
X300381D01*
X300781Y128484D01*
X300381Y128084D01*
X300781D01*
X301181Y127684D01*
X284381Y77484D02*
X285181Y78284D01*
X285981Y77484D01*
X285181Y76684D01*
X284381Y77484D01*
X289381Y89984D02*
X290181Y90784D01*
X290981Y89984D01*
X290181Y89184D01*
X289381Y89984D01*
X275881Y80484D02*
X276681Y81284D01*
X277481Y80484D01*
X276681Y79684D01*
X275881Y80484D01*
X284881Y92484D02*
X285681Y93284D01*
X286481Y92484D01*
X285681Y91684D01*
X284881Y92484D01*
X269881Y83984D02*
X270681Y84784D01*
X271481Y83984D01*
X270681Y83184D01*
X269881Y83984D01*
X280881Y94984D02*
X281681Y95784D01*
X282481Y94984D01*
X281681Y94184D01*
X280881Y94984D01*
X262881Y90484D02*
X263681Y91284D01*
X264481Y90484D01*
X263681Y89684D01*
X262881Y90484D01*
X277881Y96984D02*
X278681Y97784D01*
X279481Y96984D01*
X278681Y96184D01*
X277881Y96984D01*
X261381Y100484D02*
X262181Y101284D01*
X262981Y100484D01*
X262181Y99684D01*
X261381Y100484D01*
X275881Y101484D02*
X276681Y102284D01*
X277481Y101484D01*
X276681Y100684D01*
X275881Y101484D01*
X261381Y104484D02*
X262181Y105284D01*
X262981Y104484D01*
X262181Y103684D01*
X261381Y104484D01*
X276381Y105484D02*
X277181Y106284D01*
X277981Y105484D01*
X277181Y104684D01*
X276381Y105484D01*
X261381Y108484D02*
X262181Y109284D01*
X262981Y108484D01*
X262181Y107684D01*
X261381Y108484D01*
X276381Y108984D02*
X277181Y109784D01*
X277981Y108984D01*
X277181Y108184D01*
X276381Y108984D01*
X261881Y113484D02*
X262681Y114284D01*
X263481Y113484D01*
X262681Y112684D01*
X261881Y113484D01*
X276381Y112484D02*
X277181Y113284D01*
X277981Y112484D01*
X277181Y111684D01*
X276381Y112484D01*
X263381Y119484D02*
X264181Y120284D01*
X264981Y119484D01*
X264181Y118684D01*
X263381Y119484D01*
X277381Y115984D02*
X278181Y116784D01*
X278981Y115984D01*
X278181Y115184D01*
X277381Y115984D01*
X266881Y127484D02*
X267681Y128284D01*
X268481Y127484D01*
X267681Y126684D01*
X266881Y127484D01*
X278881Y119484D02*
X279681Y120284D01*
X280481Y119484D01*
X279681Y118684D01*
X278881Y119484D01*
X271381Y131984D02*
X272181Y132784D01*
X272981Y131984D01*
X272181Y131184D01*
X271381Y131984D01*
X281381Y121984D02*
X282181Y122784D01*
X282981Y121984D01*
X282181Y121184D01*
X281381Y121984D01*
X277881Y136484D02*
X278681Y137284D01*
X279481Y136484D01*
X278681Y135684D01*
X277881Y136484D01*
X284381Y125484D02*
X285181Y126284D01*
X285981Y125484D01*
X285181Y124684D01*
X284381Y125484D01*
X283881Y138484D02*
X284681Y139284D01*
X285481Y138484D01*
X284681Y137684D01*
X283881Y138484D01*
X288381Y125484D02*
X289181Y126284D01*
X289981Y125484D01*
X289181Y124684D01*
X288381Y125484D01*
Y139484D02*
X289181Y140284D01*
X289981Y139484D01*
X289181Y138684D01*
X288381Y139484D01*
X291881Y125484D02*
X292681Y126284D01*
X293481Y125484D01*
X292681Y124684D01*
X291881Y125484D01*
Y139984D02*
X292681Y140784D01*
X293481Y139984D01*
X292681Y139184D01*
X291881Y139984D01*
X295381Y125984D02*
X296181Y126784D01*
X296981Y125984D01*
X296181Y125184D01*
X295381Y125984D01*
Y139984D02*
X296181Y140784D01*
X296981Y139984D01*
X296181Y139184D01*
X295381Y139984D01*
X295881Y107184D02*
X296281Y107984D01*
X295881Y108784D01*
X296681Y108384D01*
X297481Y108784D01*
X297081Y107984D01*
X297481Y107184D01*
X296681Y107584D01*
X295881Y107184D01*
X226781Y250084D02*
Y249684D01*
X227581D01*
Y250084D01*
X227981D01*
Y250884D01*
X227581D01*
Y251284D01*
X226781D01*
Y250884D01*
X226381D01*
Y250084D01*
X226781D01*
X197881Y308184D02*
Y309784D01*
X199481D01*
Y308184D01*
X197881D01*
X202381Y307684D02*
Y309284D01*
X203981D01*
Y307684D01*
X202381D01*
X202781Y308084D02*
Y308884D01*
X203581D01*
Y308084D01*
X202781D01*
X173381Y293684D02*
Y295284D01*
X174981D01*
Y293684D01*
X173381D01*
X173781Y294084D02*
Y294884D01*
X174581D01*
Y294084D01*
X173781D01*
X182881Y345184D02*
Y346784D01*
X184481D01*
Y345184D01*
X182881D01*
X183281Y345584D02*
Y346384D01*
X184081D01*
Y345584D01*
X183281D01*
X170881Y345184D02*
Y346784D01*
X172481D01*
Y345184D01*
X170881D01*
X171281Y345584D02*
Y346384D01*
X172081D01*
Y345584D01*
X171281D01*
X157881Y345184D02*
Y346784D01*
X159481D01*
Y345184D01*
X157881D01*
X158281Y345584D02*
Y346384D01*
X159081D01*
Y345584D01*
X158281D01*
X147381Y345184D02*
Y346784D01*
X148981D01*
Y345184D01*
X147381D01*
X147781Y345584D02*
Y346384D01*
X148581D01*
Y345584D01*
X147781D01*
X221881Y283184D02*
Y284784D01*
X223481D01*
Y283184D01*
X221881D01*
X222281Y283584D02*
Y284384D01*
X223081D01*
Y283584D01*
X222281D01*
X221881Y287184D02*
Y288784D01*
X223481D01*
Y287184D01*
X221881D01*
X222281Y287584D02*
Y288384D01*
X223081D01*
Y287584D01*
X222281D01*
X218881Y283184D02*
Y284784D01*
X220481D01*
Y283184D01*
X218881D01*
X219281Y283584D02*
Y284384D01*
X220081D01*
Y283584D01*
X219281D01*
X218881Y287184D02*
Y288784D01*
X220481D01*
Y287184D01*
X218881D01*
X219281Y287584D02*
Y288384D01*
X220081D01*
Y287584D01*
X219281D01*
X248381Y327684D02*
Y329284D01*
X249981D01*
Y327684D01*
X248381D01*
X248781Y328084D02*
Y328884D01*
X249581D01*
Y328084D01*
X248781D01*
X248381Y331684D02*
Y333284D01*
X249981D01*
Y331684D01*
X248381D01*
X248781Y332084D02*
Y332884D01*
X249581D01*
Y332084D01*
X248781D01*
X248381Y323184D02*
Y324784D01*
X249981D01*
Y323184D01*
X248381D01*
X248781Y323584D02*
Y324384D01*
X249581D01*
Y323584D01*
X248781D01*
X248381Y318184D02*
Y319784D01*
X249981D01*
Y318184D01*
X248381D01*
X248781Y318584D02*
Y319384D01*
X249581D01*
Y318584D01*
X248781D01*
X173381Y332684D02*
Y334284D01*
X174981D01*
Y332684D01*
X173381D01*
X173781Y333084D02*
Y333884D01*
X174581D01*
Y333084D01*
X173781D01*
X173381Y336184D02*
Y337784D01*
X174981D01*
Y336184D01*
X173381D01*
X173781Y336584D02*
Y337384D01*
X174581D01*
Y336584D01*
X173781D01*
X164381Y293684D02*
Y295284D01*
X165981D01*
Y293684D01*
X164381D01*
X164781Y294084D02*
Y294884D01*
X165581D01*
Y294084D01*
X164781D01*
X155381Y293684D02*
Y295284D01*
X156981D01*
Y293684D01*
X155381D01*
X155781Y294084D02*
Y294884D01*
X156581D01*
Y294084D01*
X155781D01*
D92*
X289938Y325028D02*
X289385Y325788D01*
X288491Y325498D01*
Y324557D01*
X289385Y324267D01*
X289938Y325028D01*
X317024D02*
X316472Y325788D01*
X315577Y325498D01*
Y324557D01*
X316472Y324267D01*
X317024Y325028D01*
Y297941D02*
X316472Y298702D01*
X315577Y298411D01*
Y297471D01*
X316472Y297180D01*
X317024Y297941D01*
X289938D02*
X289385Y298702D01*
X288491Y298411D01*
Y297471D01*
X289385Y297180D01*
X289938Y297941D01*
X270438Y271028D02*
X269885Y271788D01*
X268991Y271498D01*
Y270557D01*
X269885Y270267D01*
X270438Y271028D01*
X297524D02*
X296972Y271788D01*
X296077Y271498D01*
Y270557D01*
X296972Y270267D01*
X297524Y271028D01*
Y243941D02*
X296972Y244702D01*
X296077Y244411D01*
Y243471D01*
X296972Y243180D01*
X297524Y243941D01*
X270438D02*
X269885Y244702D01*
X268991Y244411D01*
Y243471D01*
X269885Y243180D01*
X270438Y243941D01*
X170438Y61528D02*
X169885Y62288D01*
X168991Y61998D01*
Y61057D01*
X169885Y60767D01*
X170438Y61528D01*
X197524D02*
X196972Y62288D01*
X196077Y61998D01*
Y61057D01*
X196972Y60767D01*
X197524Y61528D01*
Y34441D02*
X196972Y35202D01*
X196077Y34911D01*
Y33971D01*
X196972Y33680D01*
X197524Y34441D01*
X170438D02*
X169885Y35202D01*
X168991Y34911D01*
Y33971D01*
X169885Y33680D01*
X170438Y34441D01*
X387438Y48028D02*
X386885Y48788D01*
X385991Y48498D01*
Y47557D01*
X386885Y47267D01*
X387438Y48028D01*
X414524D02*
X413972Y48788D01*
X413077Y48498D01*
Y47557D01*
X413972Y47267D01*
X414524Y48028D01*
Y20941D02*
X413972Y21702D01*
X413077Y21411D01*
Y20471D01*
X413972Y20180D01*
X414524Y20941D01*
X387438D02*
X386885Y21702D01*
X385991Y21411D01*
Y20471D01*
X386885Y20180D01*
X387438Y20941D01*
X99438Y459028D02*
X98885Y459788D01*
X97991Y459498D01*
Y458557D01*
X98885Y458267D01*
X99438Y459028D01*
X126524D02*
X125972Y459788D01*
X125077Y459498D01*
Y458557D01*
X125972Y458267D01*
X126524Y459028D01*
Y431941D02*
X125972Y432702D01*
X125077Y432411D01*
Y431471D01*
X125972Y431180D01*
X126524Y431941D01*
X99438D02*
X98885Y432702D01*
X97991Y432411D01*
Y431471D01*
X98885Y431180D01*
X99438Y431941D01*
X292938Y393028D02*
X292385Y393788D01*
X291491Y393498D01*
Y392557D01*
X292385Y392267D01*
X292938Y393028D01*
X320024D02*
X319472Y393788D01*
X318577Y393498D01*
Y392557D01*
X319472Y392267D01*
X320024Y393028D01*
Y365941D02*
X319472Y366702D01*
X318577Y366411D01*
Y365471D01*
X319472Y365180D01*
X320024Y365941D01*
X292938D02*
X292385Y366702D01*
X291491Y366411D01*
Y365471D01*
X292385Y365180D01*
X292938Y365941D01*
M02*
