G04*
G04 #@! TF.GenerationSoftware,Altium Limited,Altium Designer,20.2.7 (254)*
G04*
G04 Layer_Color=255*
%FSLAX25Y25*%
%MOIN*%
G70*
G04*
G04 #@! TF.SameCoordinates,CF43E641-EDBD-4116-B357-B4F524034C76*
G04*
G04*
G04 #@! TF.FilePolarity,Positive*
G04*
G01*
G75*
%ADD15R,0.03740X0.05512*%
%ADD16R,0.04134X0.07087*%
%ADD17R,0.05512X0.08268*%
%ADD18R,0.06890X0.12598*%
%ADD19R,0.06890X0.03740*%
%ADD20R,0.04016X0.05787*%
%ADD21R,0.04724X0.02362*%
%ADD22R,0.21299X0.05787*%
%ADD23R,0.11811X0.19685*%
%ADD24R,0.65315X0.53110*%
%ADD25R,0.07087X0.04528*%
%ADD26R,0.04331X0.10630*%
%ADD27R,0.06457X0.05197*%
%ADD28R,0.04528X0.02362*%
%ADD29R,0.04134X0.12992*%
%ADD30R,0.05906X0.02559*%
%ADD31R,0.07874X0.01968*%
%ADD32R,0.05512X0.03740*%
%ADD33R,0.02953X0.04921*%
%ADD66C,0.03937*%
D15*
X54500Y203500D02*
D03*
X62374D02*
D03*
X53937Y188000D02*
D03*
X46063D02*
D03*
X66437Y166500D02*
D03*
X58563D02*
D03*
X52937Y176000D02*
D03*
X45063D02*
D03*
X33437Y159500D02*
D03*
X25563D02*
D03*
X91374Y95500D02*
D03*
X83500D02*
D03*
X149437Y26000D02*
D03*
X141563D02*
D03*
X80063Y110500D02*
D03*
X87937D02*
D03*
D16*
X35906Y177500D02*
D03*
X24094D02*
D03*
X35906Y196500D02*
D03*
X24094D02*
D03*
D17*
X44284Y26000D02*
D03*
Y61827D02*
D03*
X62000Y26000D02*
D03*
Y61827D02*
D03*
D18*
X68303Y88500D02*
D03*
D19*
X43500Y79445D02*
D03*
Y88500D02*
D03*
Y97555D02*
D03*
D20*
X107858Y96500D02*
D03*
X101480D02*
D03*
X108689Y82500D02*
D03*
X102311D02*
D03*
X91189Y83500D02*
D03*
X84811D02*
D03*
X91189Y68000D02*
D03*
X84811D02*
D03*
X128358Y47500D02*
D03*
X121980D02*
D03*
X111358D02*
D03*
X104980D02*
D03*
X94358D02*
D03*
X87980D02*
D03*
D21*
X92579Y30740D02*
D03*
Y27000D02*
D03*
Y23260D02*
D03*
X102421D02*
D03*
Y30740D02*
D03*
D22*
X174000Y57382D02*
D03*
Y77618D02*
D03*
D23*
X215000Y31500D02*
D03*
X257992D02*
D03*
D24*
X236496Y81500D02*
D03*
D25*
X237500Y128709D02*
D03*
Y117291D02*
D03*
D26*
X552949Y243000D02*
D03*
X534051D02*
D03*
D27*
X145000Y80358D02*
D03*
Y62642D02*
D03*
X130000Y142858D02*
D03*
Y125142D02*
D03*
X110000D02*
D03*
Y142858D02*
D03*
X89500D02*
D03*
Y125142D02*
D03*
X128000Y111858D02*
D03*
Y94142D02*
D03*
X125500Y80358D02*
D03*
Y62642D02*
D03*
D28*
X114382Y33240D02*
D03*
Y29500D02*
D03*
Y25760D02*
D03*
X124618D02*
D03*
Y33240D02*
D03*
D29*
X47795Y143000D02*
D03*
X72205D02*
D03*
D30*
X44370Y229500D02*
D03*
Y224500D02*
D03*
Y219500D02*
D03*
Y214500D02*
D03*
X65630D02*
D03*
Y219500D02*
D03*
Y224500D02*
D03*
Y229500D02*
D03*
D31*
X281098Y177161D02*
D03*
X281197Y168303D02*
D03*
X259098Y176661D02*
D03*
X259197Y167803D02*
D03*
X235598Y176555D02*
D03*
X235697Y167697D02*
D03*
X213098Y177055D02*
D03*
X213197Y168197D02*
D03*
X190598Y177055D02*
D03*
X190697Y168197D02*
D03*
D32*
X78500Y42937D02*
D03*
Y35063D02*
D03*
D33*
X163500Y25004D02*
D03*
Y37996D02*
D03*
D66*
X86394Y208965D02*
D03*
X297598Y163764D02*
D03*
X297402Y179905D02*
D03*
X305500Y6000D02*
D03*
X297598Y136764D02*
D03*
X297402Y152905D02*
D03*
X290000Y6500D02*
D03*
X541500Y154028D02*
D03*
Y174500D02*
D03*
X14500Y40000D02*
D03*
X260000Y141000D02*
D03*
X260197Y157240D02*
D03*
X281197Y141224D02*
D03*
X281394Y157465D02*
D03*
X213000Y140500D02*
D03*
X213197Y156740D02*
D03*
X190697Y141724D02*
D03*
X190894Y157965D02*
D03*
X236197Y141224D02*
D03*
X236394Y157465D02*
D03*
X19000Y222000D02*
D03*
X76303Y209276D02*
D03*
X76106Y193035D02*
D03*
X210500Y205500D02*
D03*
X86197Y192724D02*
D03*
X97697Y191724D02*
D03*
X97894Y207965D02*
D03*
X81197Y159224D02*
D03*
X81394Y175465D02*
D03*
X101197Y159224D02*
D03*
X101394Y175465D02*
D03*
X118697Y159224D02*
D03*
X118894Y175465D02*
D03*
X14500Y53000D02*
D03*
X19000Y102500D02*
D03*
X18902Y110768D02*
D03*
Y119331D02*
D03*
X19000Y137244D02*
D03*
Y95020D02*
D03*
Y87441D02*
D03*
X76500Y17500D02*
D03*
M02*
