M48
;Layer_Color=9474304
;FILE_FORMAT=2:5
INCH,LZ
;TYPE=PLATED
T1F00S00C0.01378
T2F00S00C0.02800
T3F00S00C0.03150
%
T01
X01715Y0046
X01775
X0184
X0191
X023Y003
Y00255
Y00195
Y0014
T02
X0492Y0041
X05145Y004
X05215
X05295Y00405
X01885Y00095
X0144323Y0009823
X01505Y0039
X0132Y00395
X01335Y00535
X01085Y00185
X01005Y00605
X0091Y0061
X008Y0063
X00815Y0054
X0065Y01145
X0053Y01135
X00585Y01585
X00405Y0164
X0065Y0178482
X0066Y01965
X0044Y0201594
X00315Y0207
X0233Y02215
X04065Y01025
X04935Y02125
X0519Y0213
X05285
X05415Y01975
X0523083Y0243083
T03
X029Y00065
X03055Y0006
X0099Y00115
X00175Y0019
Y00315
X001174Y0054893
X0011937Y0063161
X0012197Y0072118
X0012098Y0088752
Y0096232
X0012Y01045
X0012Y0111784
X0012197Y0119461
X0012295Y0137374
X0081197Y0159224
X0081394Y0175465
X0101394
X0101197Y0159224
X0097697Y0191724
X0086197Y0192724
X0076106Y0193035
X0076303Y0209276
X0086394Y0208965
X0097894Y0207965
X0019Y0222
X0118894Y0175465
X0118697Y0159224
X0190894Y0157965
X0190697Y0141724
X0213Y01405
X0213197Y015674
X0236394Y0157465
X0236197Y0141224
X02105Y02055
X0260197Y015724
X026Y0141
X0281197Y0141224
X0281394Y0157465
X0297402Y0152905
X0297598Y0163764
X0297402Y0179905
X0297598Y0136764
X05415Y0154028
Y01745
M30
