G04*
G04 #@! TF.GenerationSoftware,Altium Limited,Altium Designer,20.2.7 (254)*
G04*
G04 Layer_Color=8388736*
%FSLAX25Y25*%
%MOIN*%
G70*
G04*
G04 #@! TF.SameCoordinates,DBF9737C-FB11-4D03-B001-0F7B986813C6*
G04*
G04*
G04 #@! TF.FilePolarity,Negative*
G04*
G01*
G75*
%ADD34R,0.00689X0.02461*%
%ADD35R,0.00689X0.02461*%
%ADD36R,0.02165X0.00689*%
%ADD37R,0.02067X0.00689*%
%ADD38R,0.12611X0.20485*%
%ADD39R,0.66115X0.53910*%
%ADD40R,0.07887X0.05328*%
%ADD41R,0.05131X0.11430*%
%ADD42R,0.05524X0.03162*%
%ADD43R,0.06312X0.09068*%
%ADD44R,0.04540X0.06312*%
%ADD45R,0.07257X0.05997*%
%ADD46R,0.05328X0.03162*%
%ADD47R,0.04934X0.13792*%
%ADD48R,0.04934X0.07887*%
%ADD49R,0.22099X0.06587*%
%ADD50R,0.06706X0.03359*%
%ADD51R,0.08674X0.02769*%
%ADD52R,0.07690X0.04540*%
%ADD53R,0.07690X0.13398*%
%ADD54R,0.04816X0.06587*%
%ADD55R,0.06312X0.04540*%
%ADD56R,0.03753X0.05721*%
%ADD57C,0.04737*%
%ADD58C,0.02769*%
%ADD59C,0.05800*%
D34*
X282427Y172683D02*
D03*
X260427Y172183D02*
D03*
X236927Y172077D02*
D03*
X214427Y172577D02*
D03*
X191927D02*
D03*
D35*
X279966Y172683D02*
D03*
X257966Y172183D02*
D03*
X234467Y172077D02*
D03*
X211966Y172577D02*
D03*
X189467D02*
D03*
D36*
X281197Y171797D02*
D03*
X259197Y171297D02*
D03*
X235697Y171191D02*
D03*
X213197Y171691D02*
D03*
X190697Y171691D02*
D03*
D37*
X281148Y173569D02*
D03*
X259148Y173069D02*
D03*
X235648Y172963D02*
D03*
X213148Y173463D02*
D03*
X190648Y173463D02*
D03*
D38*
X215000Y31500D02*
D03*
X257992D02*
D03*
D39*
X236496Y81500D02*
D03*
D40*
X237500Y128709D02*
D03*
Y117291D02*
D03*
D41*
X552949Y243000D02*
D03*
X534051D02*
D03*
D42*
X102421Y30740D02*
D03*
Y23260D02*
D03*
X92579D02*
D03*
Y27000D02*
D03*
Y30740D02*
D03*
D43*
X62000Y61827D02*
D03*
Y26000D02*
D03*
X44284Y61827D02*
D03*
Y26000D02*
D03*
D44*
X141563D02*
D03*
X149437D02*
D03*
X25563Y159500D02*
D03*
X33437D02*
D03*
X62374Y203500D02*
D03*
X54500D02*
D03*
X58563Y166500D02*
D03*
X66437D02*
D03*
X45063Y176000D02*
D03*
X52937D02*
D03*
X46063Y188000D02*
D03*
X53937D02*
D03*
X83500Y95500D02*
D03*
X91374D02*
D03*
X80063Y110500D02*
D03*
X87937D02*
D03*
D45*
X145000Y80358D02*
D03*
Y62642D02*
D03*
X130000Y142858D02*
D03*
Y125142D02*
D03*
X110000D02*
D03*
Y142858D02*
D03*
X89500D02*
D03*
Y125142D02*
D03*
X128000Y111858D02*
D03*
Y94142D02*
D03*
X125500Y80358D02*
D03*
Y62642D02*
D03*
D46*
X114382Y33240D02*
D03*
Y29500D02*
D03*
Y25760D02*
D03*
X124618D02*
D03*
Y33240D02*
D03*
D47*
X47795Y143000D02*
D03*
X72205D02*
D03*
D48*
X35906Y196500D02*
D03*
X24094D02*
D03*
Y177500D02*
D03*
X35906D02*
D03*
D49*
X174000Y77618D02*
D03*
Y57382D02*
D03*
D50*
X44370Y229500D02*
D03*
Y224500D02*
D03*
Y219500D02*
D03*
Y214500D02*
D03*
X65630D02*
D03*
Y219500D02*
D03*
Y224500D02*
D03*
Y229500D02*
D03*
D51*
X281098Y177161D02*
D03*
X281197Y168303D02*
D03*
X259098Y176661D02*
D03*
X259197Y167803D02*
D03*
X235598Y176555D02*
D03*
X235697Y167697D02*
D03*
X213098Y177055D02*
D03*
X213197Y168197D02*
D03*
X190598Y177055D02*
D03*
X190697Y168197D02*
D03*
D52*
X43500Y97555D02*
D03*
Y88500D02*
D03*
Y79445D02*
D03*
D53*
X68303Y88500D02*
D03*
D54*
X102311Y82500D02*
D03*
X108689D02*
D03*
X101480Y96500D02*
D03*
X107858D02*
D03*
X84811Y68000D02*
D03*
X91189D02*
D03*
X121980Y47500D02*
D03*
X128358D02*
D03*
X104980D02*
D03*
X111358D02*
D03*
X87980D02*
D03*
X94358D02*
D03*
X84811Y83500D02*
D03*
X91189D02*
D03*
D55*
X78500Y42937D02*
D03*
Y35063D02*
D03*
D56*
X163500Y25004D02*
D03*
Y37996D02*
D03*
D57*
X86394Y208965D02*
D03*
X297598Y163764D02*
D03*
X297402Y179905D02*
D03*
X305500Y6000D02*
D03*
X297598Y136764D02*
D03*
X297402Y152905D02*
D03*
X290000Y6500D02*
D03*
X541500Y154028D02*
D03*
Y174500D02*
D03*
X14500Y40000D02*
D03*
X260000Y141000D02*
D03*
X260197Y157240D02*
D03*
X281197Y141224D02*
D03*
X281394Y157465D02*
D03*
X213000Y140500D02*
D03*
X213197Y156740D02*
D03*
X190697Y141724D02*
D03*
X190894Y157965D02*
D03*
X236197Y141224D02*
D03*
X236394Y157465D02*
D03*
X19000Y222000D02*
D03*
X76303Y209276D02*
D03*
X76106Y193035D02*
D03*
X210500Y205500D02*
D03*
X86197Y192724D02*
D03*
X97697Y191724D02*
D03*
X97894Y207965D02*
D03*
X81197Y159224D02*
D03*
X81394Y175465D02*
D03*
X101197Y159224D02*
D03*
X101394Y175465D02*
D03*
X118697Y159224D02*
D03*
X118894Y175465D02*
D03*
X14500Y53000D02*
D03*
X19000Y102500D02*
D03*
X18902Y110768D02*
D03*
Y119331D02*
D03*
X19000Y137244D02*
D03*
Y95020D02*
D03*
Y87441D02*
D03*
X76500Y17500D02*
D03*
D58*
X245500Y6500D02*
D03*
Y13500D02*
D03*
Y19500D02*
D03*
X248500Y26000D02*
D03*
X245000D02*
D03*
X248500Y31000D02*
D03*
X245000D02*
D03*
X248500Y36000D02*
D03*
Y40500D02*
D03*
X245000Y36000D02*
D03*
Y40500D02*
D03*
X181500Y50500D02*
D03*
X177500D02*
D03*
X173000D02*
D03*
X169000D02*
D03*
X165000D02*
D03*
D59*
X63000Y15500D02*
D03*
X35000Y62000D02*
D03*
X31500Y26000D02*
D03*
X26500Y50000D02*
D03*
X87000Y55500D02*
D03*
X107500Y39500D02*
D03*
X135000Y31000D02*
D03*
X514500Y40000D02*
D03*
X66000Y196500D02*
D03*
X43000Y71000D02*
D03*
X101500Y66500D02*
D03*
X108000Y71000D02*
D03*
X144000Y37000D02*
D03*
X44000Y201594D02*
D03*
X31500Y207000D02*
D03*
X40500Y164000D02*
D03*
X65000Y179500D02*
D03*
X523083Y243083D02*
D03*
X541500Y197500D02*
D03*
X79000Y77000D02*
D03*
X34000Y97000D02*
D03*
X72000Y121000D02*
D03*
X152500Y36000D02*
D03*
X102000Y57500D02*
D03*
X37000Y40000D02*
D03*
X492000Y41000D02*
D03*
X493500Y212500D02*
D03*
X528500Y213000D02*
D03*
X519000D02*
D03*
X521500Y40000D02*
D03*
X529500Y40500D02*
D03*
X233000Y221500D02*
D03*
X406500Y102500D02*
D03*
M02*
