G04*
G04 #@! TF.GenerationSoftware,Altium Limited,Altium Designer,20.2.7 (254)*
G04*
G04 Layer_Color=65535*
%FSLAX25Y25*%
%MOIN*%
G70*
G04*
G04 #@! TF.SameCoordinates,35C1B794-4458-498E-8B6A-B57C219EB0B0*
G04*
G04*
G04 #@! TF.FilePolarity,Positive*
G04*
G01*
G75*
%ADD10C,0.00394*%
%ADD11C,0.00787*%
%ADD12C,0.01000*%
D10*
X278665Y311484D02*
X279059D01*
X278665D01*
X259165Y257484D02*
X259559D01*
X259165D01*
X220882Y252917D02*
Y253311D01*
Y252917D01*
X159165Y47984D02*
X159559D01*
X159165D01*
X376165Y34484D02*
X376559D01*
X376165D01*
X88165Y445484D02*
X88559D01*
X88165D01*
X281665Y379484D02*
X282059D01*
X281665D01*
X47059Y320342D02*
X46665D01*
X47059D01*
X111705Y342181D02*
Y342575D01*
Y342181D01*
X50590Y382283D02*
X50197D01*
X50590D01*
X205784Y344094D02*
X268579D01*
X17501Y272967D02*
X16976Y273492D01*
X15926D01*
X15402Y272967D01*
Y270868D01*
X15926Y270343D01*
X16976D01*
X17501Y270868D01*
Y271917D01*
X16451D01*
X18550Y270343D02*
Y273492D01*
X20649Y270343D01*
Y273492D01*
X21699D02*
Y270343D01*
X23273D01*
X23798Y270868D01*
Y272967D01*
X23273Y273492D01*
X21699D01*
X17599Y280545D02*
X17074Y281070D01*
X16025D01*
X15500Y280545D01*
Y278446D01*
X16025Y277922D01*
X17074D01*
X17599Y278446D01*
Y279496D01*
X16550D01*
X18649Y277922D02*
Y281070D01*
X20748Y277922D01*
Y281070D01*
X21797D02*
Y277922D01*
X23372D01*
X23896Y278446D01*
Y280545D01*
X23372Y281070D01*
X21797D01*
X16223Y348888D02*
Y345739D01*
Y347313D01*
X18322D01*
Y348888D01*
Y345739D01*
X19371Y348888D02*
Y346789D01*
X20421Y345739D01*
X21471Y346789D01*
Y348888D01*
X22520Y345214D02*
X24619D01*
X25669Y345739D02*
Y348888D01*
X27243D01*
X27768Y348363D01*
Y347313D01*
X27243Y346789D01*
X25669D01*
X26718D02*
X27768Y345739D01*
X28817Y348888D02*
X30916D01*
X29867D01*
Y345739D01*
X31966D02*
Y348888D01*
X34065Y345739D01*
Y348888D01*
X17667Y310379D02*
X17142Y310904D01*
X16093D01*
X15568Y310379D01*
Y308280D01*
X16093Y307756D01*
X17142D01*
X17667Y308280D01*
Y309330D01*
X16617D01*
X18716Y307756D02*
Y310904D01*
X20815Y307756D01*
Y310904D01*
X21865D02*
Y307756D01*
X23439D01*
X23964Y308280D01*
Y310379D01*
X23439Y310904D01*
X21865D01*
X15854Y234024D02*
X16904D01*
X16379D01*
Y237172D01*
X15854Y236648D01*
X18478Y237172D02*
X20577D01*
Y236648D01*
X18478Y234548D01*
Y234024D01*
X21627Y237172D02*
Y235073D01*
X22676Y234024D01*
X23726Y235073D01*
Y237172D01*
X24775Y233499D02*
X26875D01*
X27924Y234024D02*
Y237172D01*
X29498D01*
X30023Y236648D01*
Y235598D01*
X29498Y235073D01*
X27924D01*
X28973D02*
X30023Y234024D01*
X31073Y237172D02*
X33172D01*
X32122D01*
Y234024D01*
X34221D02*
Y237172D01*
X36320Y234024D01*
Y237172D01*
X17470Y288234D02*
X16945Y288758D01*
X15896D01*
X15371Y288234D01*
Y286135D01*
X15896Y285610D01*
X16945D01*
X17470Y286135D01*
Y287184D01*
X16420D01*
X18519Y285610D02*
Y288758D01*
X20618Y285610D01*
Y288758D01*
X21668D02*
Y285610D01*
X23242D01*
X23767Y286135D01*
Y288234D01*
X23242Y288758D01*
X21668D01*
X17568Y295813D02*
X17044Y296337D01*
X15994D01*
X15469Y295813D01*
Y293713D01*
X15994Y293189D01*
X17044D01*
X17568Y293713D01*
Y294763D01*
X16519D01*
X18618Y293189D02*
Y296337D01*
X20717Y293189D01*
Y296337D01*
X21767D02*
Y293189D01*
X23341D01*
X23866Y293713D01*
Y295813D01*
X23341Y296337D01*
X21767D01*
X16454Y357165D02*
X18553D01*
X17503Y358214D02*
Y356115D01*
X19602Y358739D02*
Y355590D01*
Y357165D01*
X21701D01*
Y358739D01*
Y355590D01*
X22751Y358739D02*
Y356640D01*
X23800Y355590D01*
X24850Y356640D01*
Y358739D01*
X15961Y243418D02*
X17011D01*
X16486D01*
Y246567D01*
X15961Y246042D01*
X18585Y246567D02*
X20684D01*
Y246042D01*
X18585Y243943D01*
Y243418D01*
X21734Y246567D02*
Y244468D01*
X22783Y243418D01*
X23833Y244468D01*
Y246567D01*
X24882Y242893D02*
X26981D01*
X28031Y246567D02*
X29081D01*
X28556D01*
Y243418D01*
X28031D01*
X29081D01*
X32754Y246042D02*
X32229Y246567D01*
X31180D01*
X30655Y246042D01*
Y245517D01*
X31180Y244992D01*
X32229D01*
X32754Y244468D01*
Y243943D01*
X32229Y243418D01*
X31180D01*
X30655Y243943D01*
X35378Y246567D02*
X34328D01*
X33803Y246042D01*
Y243943D01*
X34328Y243418D01*
X35378D01*
X35903Y243943D01*
Y246042D01*
X35378Y246567D01*
X17962Y332066D02*
X15863D01*
Y330491D01*
X16913Y331016D01*
X17437D01*
X17962Y330491D01*
Y329442D01*
X17437Y328917D01*
X16388D01*
X15863Y329442D01*
X19012Y332066D02*
Y329966D01*
X20061Y328917D01*
X21111Y329966D01*
Y332066D01*
X17470Y302899D02*
X16945Y303424D01*
X15896D01*
X15371Y302899D01*
Y300800D01*
X15896Y300275D01*
X16945D01*
X17470Y300800D01*
Y301850D01*
X16420D01*
X18519Y300275D02*
Y303424D01*
X20618Y300275D01*
Y303424D01*
X21668D02*
Y300275D01*
X23242D01*
X23767Y300800D01*
Y302899D01*
X23242Y303424D01*
X21668D01*
X15291Y320181D02*
X17390D01*
X20539Y321755D02*
X18440D01*
Y320181D01*
X19489Y320705D01*
X20014D01*
X20539Y320181D01*
Y319131D01*
X20014Y318606D01*
X18965D01*
X18440Y319131D01*
X21588Y321755D02*
Y319656D01*
X22638Y318606D01*
X23688Y319656D01*
Y321755D01*
X18651Y261888D02*
X16552D01*
Y260314D01*
X17602Y260839D01*
X18126D01*
X18651Y260314D01*
Y259265D01*
X18126Y258740D01*
X17077D01*
X16552Y259265D01*
X19701Y261888D02*
Y259789D01*
X20750Y258740D01*
X21800Y259789D01*
Y261888D01*
D11*
X215685Y314173D02*
Y313779D01*
Y314173D01*
Y313779D01*
X188618Y317417D02*
Y321551D01*
X453937Y38484D02*
Y42618D01*
X461567Y46004D02*
X467571D01*
X460189Y46516D02*
Y65807D01*
X447590D02*
X460189D01*
X447590Y46516D02*
Y65807D01*
Y46516D02*
X460189D01*
X471555Y73622D02*
X475689D01*
X476772Y59350D02*
Y63484D01*
X477953Y48327D02*
Y52461D01*
X236811Y59528D02*
X242815D01*
X235433Y60039D02*
Y79331D01*
X222835D02*
X235433D01*
X222835Y60039D02*
Y79331D01*
Y60039D02*
X235433D01*
X236516Y88976D02*
X240650D01*
X252362Y73917D02*
Y78051D01*
Y65256D02*
Y69390D01*
X229528Y51083D02*
Y55216D01*
X70472Y336811D02*
Y345866D01*
X239779Y269847D02*
Y277130D01*
X238205D02*
X239779D01*
X214583D02*
X216158D01*
X214583Y269847D02*
Y277130D01*
X235842Y258232D02*
X239779D01*
Y265122D01*
X214583Y258232D02*
X218520D01*
X214583D02*
Y265122D01*
X229587Y226059D02*
Y231177D01*
X217933Y224681D02*
X229429D01*
X217933Y224287D02*
Y224681D01*
Y224287D02*
X229429D01*
Y224681D01*
X47858Y442327D02*
X53764D01*
X46480Y442839D02*
Y462130D01*
X33882D02*
X46480D01*
X33882Y442839D02*
Y462130D01*
Y442839D02*
X46480D01*
X14614Y456484D02*
X18748D01*
X82492Y299673D02*
Y323295D01*
X58870D02*
X82492D01*
X58870Y299673D02*
Y323295D01*
Y299673D02*
X82492D01*
X70244Y259417D02*
Y263551D01*
X71118Y281417D02*
Y285551D01*
X125764Y320650D02*
X130291D01*
X131669Y308839D02*
Y320650D01*
Y308839D02*
X134622D01*
Y320650D01*
X131669D02*
X134622D01*
X167232Y363484D02*
X186130D01*
X144732D02*
X163630D01*
X107807Y361059D02*
Y363323D01*
Y361059D02*
X133555D01*
Y363323D01*
X91181Y399276D02*
Y410693D01*
X86024Y361614D02*
Y385236D01*
X62402D02*
X86024D01*
X62402Y361614D02*
Y385236D01*
Y361614D02*
X86024D01*
X56181Y399776D02*
Y411193D01*
X31244Y429917D02*
Y434051D01*
X48425Y430610D02*
Y434744D01*
X69681Y442228D02*
Y447740D01*
X69276Y454228D02*
Y459740D01*
X55181Y475917D02*
Y480051D01*
X36681Y475417D02*
Y479551D01*
X156882Y331630D02*
X169480D01*
Y312339D02*
Y331630D01*
X156882Y312339D02*
X169480D01*
X156882D02*
Y331630D01*
X149500Y332142D02*
X155504D01*
X225224Y329035D02*
X239496D01*
X228866Y322933D02*
X239496D01*
D12*
X191077Y325197D02*
Y328346D01*
X192651D01*
X193176Y327821D01*
Y326772D01*
X192651Y326247D01*
X191077D01*
X192127D02*
X193176Y325197D01*
X195800D02*
Y328346D01*
X194226Y326772D01*
X196325D01*
X450264Y30709D02*
Y33858D01*
X451838D01*
X452363Y33333D01*
Y32283D01*
X451838Y31759D01*
X450264D01*
X451313D02*
X452363Y30709D01*
X455511D02*
X453412D01*
X455511Y32808D01*
Y33333D01*
X454986Y33858D01*
X453937D01*
X453412Y33333D01*
X456561Y30709D02*
X457610D01*
X457086D01*
Y33858D01*
X456561Y33333D01*
X428348Y68110D02*
X429397D01*
X428872D01*
Y64961D01*
X428348D01*
X429397D01*
X433071Y67585D02*
X432546Y68110D01*
X431496D01*
X430972Y67585D01*
Y65486D01*
X431496Y64961D01*
X432546D01*
X433071Y65486D01*
X436219Y68110D02*
X434120D01*
Y66535D01*
X435170Y67060D01*
X435694D01*
X436219Y66535D01*
Y65486D01*
X435694Y64961D01*
X434645D01*
X434120Y65486D01*
X441077Y87270D02*
X440552Y87795D01*
X439502D01*
X438978Y87270D01*
Y85171D01*
X439502Y84646D01*
X440552D01*
X441077Y85171D01*
X442126Y84646D02*
X443176D01*
X442651D01*
Y87795D01*
X442126Y87270D01*
X446849Y84646D02*
X444750D01*
X446849Y86745D01*
Y87270D01*
X446324Y87795D01*
X445275D01*
X444750Y87270D01*
X459974Y86483D02*
X459450Y87007D01*
X458400D01*
X457875Y86483D01*
Y84384D01*
X458400Y83859D01*
X459450D01*
X459974Y84384D01*
X461024Y83859D02*
X462073D01*
X461549D01*
Y87007D01*
X461024Y86483D01*
X463648D02*
X464173Y87007D01*
X465222D01*
X465747Y86483D01*
Y85958D01*
X465222Y85433D01*
X464697D01*
X465222D01*
X465747Y84908D01*
Y84384D01*
X465222Y83859D01*
X464173D01*
X463648Y84384D01*
X472574Y82284D02*
Y85433D01*
X474148D01*
X474673Y84908D01*
Y83858D01*
X474148Y83333D01*
X472574D01*
X473623D02*
X474673Y82284D01*
X477821D02*
X475722D01*
X477821Y84383D01*
Y84908D01*
X477296Y85433D01*
X476247D01*
X475722Y84908D01*
X478871D02*
X479395Y85433D01*
X480445D01*
X480970Y84908D01*
Y82809D01*
X480445Y82284D01*
X479395D01*
X478871Y82809D01*
Y84908D01*
X481104Y67717D02*
Y70866D01*
X482678D01*
X483203Y70341D01*
Y69291D01*
X482678Y68767D01*
X481104D01*
X482153D02*
X483203Y67717D01*
X484252D02*
X485302D01*
X484777D01*
Y70866D01*
X484252Y70341D01*
X488975Y70866D02*
X487926Y70341D01*
X486876Y69291D01*
Y68242D01*
X487401Y67717D01*
X488450D01*
X488975Y68242D01*
Y68767D01*
X488450Y69291D01*
X486876D01*
X497508Y55250D02*
Y58398D01*
X499083D01*
X499607Y57873D01*
Y56824D01*
X499083Y56299D01*
X497508D01*
X498558D02*
X499607Y55250D01*
X501182D02*
X502231D01*
X502756Y55774D01*
Y56824D01*
X502231Y57349D01*
X501182D01*
X500657Y56824D01*
Y55774D01*
X501182Y55250D01*
X504855Y54200D02*
X505380D01*
X505904Y54725D01*
Y57349D01*
X504330D01*
X503805Y56824D01*
Y55774D01*
X504330Y55250D01*
X505904D01*
X506954D02*
X508004D01*
X507479D01*
Y58398D01*
X506954Y57873D01*
X470867Y41339D02*
Y44488D01*
X472442D01*
X472966Y43963D01*
Y42913D01*
X472442Y42389D01*
X470867D01*
X471917D02*
X472966Y41339D01*
X474016D02*
X475066D01*
X474541D01*
Y44488D01*
X474016Y43963D01*
X476640D02*
X477165Y44488D01*
X478214D01*
X478739Y43963D01*
Y43438D01*
X478214Y42913D01*
X478739Y42389D01*
Y41864D01*
X478214Y41339D01*
X477165D01*
X476640Y41864D01*
Y42389D01*
X477165Y42913D01*
X476640Y43438D01*
Y43963D01*
X477165Y42913D02*
X478214D01*
X211419Y57086D02*
X212468D01*
X211943D01*
Y53938D01*
X211419D01*
X212468D01*
X216142Y56561D02*
X215617Y57086D01*
X214567D01*
X214042Y56561D01*
Y54462D01*
X214567Y53938D01*
X215617D01*
X216142Y54462D01*
X218765Y53938D02*
Y57086D01*
X217191Y55512D01*
X219290D01*
X209581Y94357D02*
X209056Y94881D01*
X208006D01*
X207482Y94357D01*
Y92258D01*
X208006Y91733D01*
X209056D01*
X209581Y92258D01*
X210630Y91733D02*
X211680D01*
X211155D01*
Y94881D01*
X210630Y94357D01*
X213254D02*
X213779Y94881D01*
X214828D01*
X215353Y94357D01*
Y92258D01*
X214828Y91733D01*
X213779D01*
X213254Y92258D01*
Y94357D01*
X227428Y99475D02*
X226904Y99999D01*
X225854D01*
X225329Y99475D01*
Y97376D01*
X225854Y96851D01*
X226904D01*
X227428Y97376D01*
X228478Y96851D02*
X229527D01*
X229003D01*
Y99999D01*
X228478Y99475D01*
X231102Y96851D02*
X232151D01*
X231626D01*
Y99999D01*
X231102Y99475D01*
X239109Y98032D02*
Y101181D01*
X240683D01*
X241208Y100656D01*
Y99606D01*
X240683Y99081D01*
X239109D01*
X240159D02*
X241208Y98032D01*
X244357D02*
X242258D01*
X244357Y100131D01*
Y100656D01*
X243832Y101181D01*
X242782D01*
X242258Y100656D01*
X246981Y98032D02*
Y101181D01*
X245406Y99606D01*
X247505D01*
X248164Y81890D02*
Y85039D01*
X249738D01*
X250263Y84514D01*
Y83465D01*
X249738Y82940D01*
X248164D01*
X249214D02*
X250263Y81890D01*
X253412D02*
X251313D01*
X253412Y83989D01*
Y84514D01*
X252887Y85039D01*
X251837D01*
X251313Y84514D01*
X254461D02*
X254986Y85039D01*
X256036D01*
X256560Y84514D01*
Y83989D01*
X256036Y83465D01*
X255511D01*
X256036D01*
X256560Y82940D01*
Y82415D01*
X256036Y81890D01*
X254986D01*
X254461Y82415D01*
X248164Y57875D02*
Y61023D01*
X249738D01*
X250263Y60498D01*
Y59449D01*
X249738Y58924D01*
X248164D01*
X249214D02*
X250263Y57875D01*
X253412D02*
X251313D01*
X253412Y59974D01*
Y60498D01*
X252887Y61023D01*
X251837D01*
X251313Y60498D01*
X256560Y57875D02*
X254461D01*
X256560Y59974D01*
Y60498D01*
X256036Y61023D01*
X254986D01*
X254461Y60498D01*
X226117Y44882D02*
Y48031D01*
X227691D01*
X228216Y47506D01*
Y46457D01*
X227691Y45932D01*
X226117D01*
X227166D02*
X228216Y44882D01*
X231364D02*
X229265D01*
X231364Y46981D01*
Y47506D01*
X230840Y48031D01*
X229790D01*
X229265Y47506D01*
X234513Y48031D02*
X232414D01*
Y46457D01*
X233464Y46981D01*
X233988D01*
X234513Y46457D01*
Y45407D01*
X233988Y44882D01*
X232939D01*
X232414Y45407D01*
X58681Y350784D02*
Y353933D01*
X60255D01*
X60780Y353408D01*
Y352359D01*
X60255Y351834D01*
X58681D01*
X59731D02*
X60780Y350784D01*
X61830D02*
X62879D01*
X62354D01*
Y353933D01*
X61830Y353408D01*
X64454Y351309D02*
X64978Y350784D01*
X66028D01*
X66553Y351309D01*
Y353408D01*
X66028Y353933D01*
X64978D01*
X64454Y353408D01*
Y352883D01*
X64978Y352359D01*
X66553D01*
X224148Y203412D02*
X223623Y203937D01*
X222573D01*
X222048Y203412D01*
Y201313D01*
X222573Y200788D01*
X223623D01*
X224148Y201313D01*
X225197Y200788D02*
X226247D01*
X225722D01*
Y203937D01*
X225197Y203412D01*
X227821Y203937D02*
X229920D01*
Y203412D01*
X227821Y201313D01*
Y200788D01*
X210368Y244357D02*
X209843Y244881D01*
X208794D01*
X208269Y244357D01*
Y242258D01*
X208794Y241733D01*
X209843D01*
X210368Y242258D01*
X211418Y241733D02*
X212467D01*
X211942D01*
Y244881D01*
X211418Y244357D01*
X216141Y244881D02*
X215091Y244357D01*
X214041Y243307D01*
Y242258D01*
X214566Y241733D01*
X215616D01*
X216141Y242258D01*
Y242782D01*
X215616Y243307D01*
X214041D01*
X106168Y472834D02*
X105119D01*
X105643D01*
Y470210D01*
X105119Y469686D01*
X104594D01*
X104069Y470210D01*
X107218Y472309D02*
X107743Y472834D01*
X108792D01*
X109317Y472309D01*
Y471785D01*
X108792Y471260D01*
X108267D01*
X108792D01*
X109317Y470735D01*
Y470210D01*
X108792Y469686D01*
X107743D01*
X107218Y470210D01*
X336089Y386614D02*
X335040D01*
X335565D01*
Y383990D01*
X335040Y383465D01*
X334515D01*
X333990Y383990D01*
X339238Y383465D02*
X337139D01*
X339238Y385564D01*
Y386089D01*
X338713Y386614D01*
X337664D01*
X337139Y386089D01*
X333465Y316141D02*
X332415D01*
X332940D01*
Y313517D01*
X332415Y312993D01*
X331890D01*
X331365Y313517D01*
X334514Y312993D02*
X335564D01*
X335039D01*
Y316141D01*
X334514Y315616D01*
X183381Y337933D02*
X185480D01*
X184431D01*
Y334784D01*
X186530D02*
Y337933D01*
X188104D01*
X188629Y337408D01*
Y336359D01*
X188104Y335834D01*
X186530D01*
X189678Y334784D02*
X190728D01*
X190203D01*
Y337933D01*
X189678Y337408D01*
X194401Y334784D02*
X192302D01*
X194401Y336883D01*
Y337408D01*
X193876Y337933D01*
X192827D01*
X192302Y337408D01*
X167181Y440784D02*
Y443933D01*
X168755D01*
X169280Y443408D01*
Y442359D01*
X168755Y441834D01*
X167181D01*
X168231D02*
X169280Y440784D01*
X170330D02*
X171379D01*
X170854D01*
Y443933D01*
X170330Y443408D01*
X175053Y440784D02*
X172953D01*
X175053Y442883D01*
Y443408D01*
X174528Y443933D01*
X173478D01*
X172953Y443408D01*
X167181Y470784D02*
Y473933D01*
X168755D01*
X169280Y473408D01*
Y472359D01*
X168755Y471834D01*
X167181D01*
X168231D02*
X169280Y470784D01*
X170330D02*
X171379D01*
X170854D01*
Y473933D01*
X170330Y473408D01*
X172953Y470784D02*
X174003D01*
X173478D01*
Y473933D01*
X172953Y473408D01*
X178085Y383333D02*
X177560Y383858D01*
X176510D01*
X175986Y383333D01*
Y381234D01*
X176510Y380709D01*
X177560D01*
X178085Y381234D01*
X179134Y380709D02*
X180184D01*
X179659D01*
Y383858D01*
X179134Y383333D01*
X183857Y383858D02*
X181758D01*
Y382283D01*
X182808Y382808D01*
X183332D01*
X183857Y382283D01*
Y381234D01*
X183332Y380709D01*
X182283D01*
X181758Y381234D01*
X225181Y338833D02*
X227280D01*
Y338308D01*
X225181Y336209D01*
Y335684D01*
X227280D01*
X228330D02*
X229379D01*
X228854D01*
Y338833D01*
X228330Y338308D01*
X6825Y433070D02*
X8925D01*
X7875D01*
Y429922D01*
X9974D02*
Y433070D01*
X11548D01*
X12073Y432546D01*
Y431496D01*
X11548Y430971D01*
X9974D01*
X13123Y430446D02*
X13647Y429922D01*
X14697D01*
X15222Y430446D01*
Y432546D01*
X14697Y433070D01*
X13647D01*
X13123Y432546D01*
Y432021D01*
X13647Y431496D01*
X15222D01*
X75204Y390573D02*
X74679Y391098D01*
X73629D01*
X73105Y390573D01*
Y390048D01*
X73629Y389524D01*
X74679D01*
X75204Y388999D01*
Y388474D01*
X74679Y387949D01*
X73629D01*
X73105Y388474D01*
X78352Y387949D02*
X76253D01*
X78352Y390048D01*
Y390573D01*
X77827Y391098D01*
X76778D01*
X76253Y390573D01*
X64961Y330183D02*
X64436Y330708D01*
X63386D01*
X62862Y330183D01*
Y329659D01*
X63386Y329134D01*
X64436D01*
X64961Y328609D01*
Y328084D01*
X64436Y327560D01*
X63386D01*
X62862Y328084D01*
X66010Y327560D02*
X67060D01*
X66535D01*
Y330708D01*
X66010Y330183D01*
X85828Y414174D02*
Y417322D01*
X87402D01*
X87927Y416798D01*
Y415748D01*
X87402Y415223D01*
X85828D01*
X86878D02*
X87927Y414174D01*
X88977D02*
X90026D01*
X89501D01*
Y417322D01*
X88977Y416798D01*
X91601D02*
X92125Y417322D01*
X93175D01*
X93700Y416798D01*
Y416273D01*
X93175Y415748D01*
X92650D01*
X93175D01*
X93700Y415223D01*
Y414699D01*
X93175Y414174D01*
X92125D01*
X91601Y414699D01*
X77691Y259843D02*
Y262992D01*
X79265D01*
X79790Y262467D01*
Y261417D01*
X79265Y260893D01*
X77691D01*
X78741D02*
X79790Y259843D01*
X80840Y260368D02*
X81365Y259843D01*
X82414D01*
X82939Y260368D01*
Y262467D01*
X82414Y262992D01*
X81365D01*
X80840Y262467D01*
Y261942D01*
X81365Y261417D01*
X82939D01*
X69423Y288977D02*
Y292126D01*
X70998D01*
X71522Y291601D01*
Y290551D01*
X70998Y290026D01*
X69423D01*
X70473D02*
X71522Y288977D01*
X72572Y292126D02*
X74671D01*
Y291601D01*
X72572Y289502D01*
Y288977D01*
X64305Y435827D02*
Y438976D01*
X65880D01*
X66404Y438451D01*
Y437402D01*
X65880Y436877D01*
X64305D01*
X65355D02*
X66404Y435827D01*
X69553Y438976D02*
X68503Y438451D01*
X67454Y437402D01*
Y436352D01*
X67979Y435827D01*
X69028D01*
X69553Y436352D01*
Y436877D01*
X69028Y437402D01*
X67454D01*
X61181Y464584D02*
Y467733D01*
X62755D01*
X63280Y467208D01*
Y466159D01*
X62755Y465634D01*
X61181D01*
X62231D02*
X63280Y464584D01*
X66429Y467733D02*
X64330D01*
Y466159D01*
X65379Y466683D01*
X65904D01*
X66429Y466159D01*
Y465109D01*
X65904Y464584D01*
X64855D01*
X64330Y465109D01*
X54856Y414174D02*
Y417322D01*
X56431D01*
X56956Y416798D01*
Y415748D01*
X56431Y415223D01*
X54856D01*
X55906D02*
X56956Y414174D01*
X58005Y416798D02*
X58530Y417322D01*
X59579D01*
X60104Y416798D01*
Y416273D01*
X59579Y415748D01*
X59055D01*
X59579D01*
X60104Y415223D01*
Y414699D01*
X59579Y414174D01*
X58530D01*
X58005Y414699D01*
X27691Y423229D02*
Y426377D01*
X29265D01*
X29790Y425853D01*
Y424803D01*
X29265Y424278D01*
X27691D01*
X28741D02*
X29790Y423229D01*
X32939D02*
X30840D01*
X32939Y425328D01*
Y425853D01*
X32414Y426377D01*
X31365D01*
X30840Y425853D01*
X49281Y484784D02*
Y487933D01*
X50855D01*
X51380Y487408D01*
Y486359D01*
X50855Y485834D01*
X49281D01*
X50331D02*
X51380Y484784D01*
X52430D02*
X53479D01*
X52955D01*
Y487933D01*
X52430Y487408D01*
X203480Y410209D02*
Y412308D01*
X202955Y412833D01*
X201906D01*
X201381Y412308D01*
Y410209D01*
X201906Y409684D01*
X202955D01*
X202431Y410734D02*
X203480Y409684D01*
X202955D02*
X203480Y410209D01*
X204530Y409684D02*
X205579D01*
X205054D01*
Y412833D01*
X204530Y412308D01*
X7881Y362484D02*
Y365633D01*
X9455D01*
X9980Y365108D01*
Y364059D01*
X9455Y363534D01*
X7881D01*
X11030Y362484D02*
X12079D01*
X11554D01*
Y365633D01*
X11030Y365108D01*
X266580Y437633D02*
X265531D01*
X266055D01*
Y435009D01*
X265531Y434484D01*
X265006D01*
X264481Y435009D01*
X267630Y434484D02*
X268679D01*
X268155D01*
Y437633D01*
X267630Y437108D01*
X272353Y434484D02*
X270253D01*
X272353Y436583D01*
Y437108D01*
X271828Y437633D01*
X270778D01*
X270253Y437108D01*
X246080Y437133D02*
X245031D01*
X245555D01*
Y434509D01*
X245031Y433984D01*
X244506D01*
X243981Y434509D01*
X247130Y433984D02*
X248179D01*
X247655D01*
Y437133D01*
X247130Y436608D01*
X249753Y433984D02*
X250803D01*
X250278D01*
Y437133D01*
X249753Y436608D01*
X227080Y437633D02*
X226031D01*
X226555D01*
Y435009D01*
X226031Y434484D01*
X225506D01*
X224981Y435009D01*
X228130Y434484D02*
X229179D01*
X228655D01*
Y437633D01*
X228130Y437108D01*
X230753D02*
X231278Y437633D01*
X232328D01*
X232853Y437108D01*
Y435009D01*
X232328Y434484D01*
X231278D01*
X230753Y435009D01*
Y437108D01*
X209080Y438133D02*
X208031D01*
X208555D01*
Y435509D01*
X208031Y434984D01*
X207506D01*
X206981Y435509D01*
X210130D02*
X210654Y434984D01*
X211704D01*
X212229Y435509D01*
Y437608D01*
X211704Y438133D01*
X210654D01*
X210130Y437608D01*
Y437083D01*
X210654Y436559D01*
X212229D01*
X189080Y438133D02*
X188031D01*
X188555D01*
Y435509D01*
X188031Y434984D01*
X187506D01*
X186981Y435509D01*
X190130Y437608D02*
X190655Y438133D01*
X191704D01*
X192229Y437608D01*
Y437083D01*
X191704Y436559D01*
X192229Y436034D01*
Y435509D01*
X191704Y434984D01*
X190655D01*
X190130Y435509D01*
Y436034D01*
X190655Y436559D01*
X190130Y437083D01*
Y437608D01*
X190655Y436559D02*
X191704D01*
X311680Y257480D02*
X310630D01*
X311155D01*
Y254856D01*
X310630Y254331D01*
X310106D01*
X309581Y254856D01*
X314828Y257480D02*
X313779Y256955D01*
X312730Y255906D01*
Y254856D01*
X313254Y254331D01*
X314304D01*
X314828Y254856D01*
Y255381D01*
X314304Y255906D01*
X312730D01*
X397900Y66141D02*
X396851D01*
X397376D01*
Y63517D01*
X396851Y62993D01*
X396326D01*
X395801Y63517D01*
X401049Y66141D02*
X398950D01*
Y64567D01*
X399999Y65092D01*
X400524D01*
X401049Y64567D01*
Y63517D01*
X400524Y62993D01*
X399475D01*
X398950Y63517D01*
X179003Y81102D02*
X177953D01*
X178478D01*
Y78478D01*
X177953Y77953D01*
X177428D01*
X176904Y78478D01*
X181627Y77953D02*
Y81102D01*
X180052Y79528D01*
X182151D01*
X207088Y225984D02*
X208137D01*
X207613D01*
Y222835D01*
X207088D01*
X208137D01*
X211811Y225459D02*
X211286Y225984D01*
X210237D01*
X209712Y225459D01*
Y223360D01*
X210237Y222835D01*
X211286D01*
X211811Y223360D01*
X212860Y225984D02*
X214959D01*
Y225459D01*
X212860Y223360D01*
Y222835D01*
X205119Y290157D02*
X206169D01*
X205644D01*
Y287008D01*
X205119D01*
X206169D01*
X209842Y289632D02*
X209317Y290157D01*
X208268D01*
X207743Y289632D01*
Y287533D01*
X208268Y287008D01*
X209317D01*
X209842Y287533D01*
X212991Y290157D02*
X211941Y289632D01*
X210892Y288583D01*
Y287533D01*
X211417Y287008D01*
X212466D01*
X212991Y287533D01*
Y288058D01*
X212466Y288583D01*
X210892D01*
X125592Y305118D02*
X126641D01*
X126117D01*
Y301969D01*
X125592D01*
X126641D01*
X130315Y304593D02*
X129790Y305118D01*
X128740D01*
X128216Y304593D01*
Y302494D01*
X128740Y301969D01*
X129790D01*
X130315Y302494D01*
X131364Y304593D02*
X131889Y305118D01*
X132939D01*
X133463Y304593D01*
Y304068D01*
X132939Y303543D01*
X132414D01*
X132939D01*
X133463Y303019D01*
Y302494D01*
X132939Y301969D01*
X131889D01*
X131364Y302494D01*
X29135Y468110D02*
X30185D01*
X29660D01*
Y464961D01*
X29135D01*
X30185D01*
X33858Y467585D02*
X33333Y468110D01*
X32284D01*
X31759Y467585D01*
Y465486D01*
X32284Y464961D01*
X33333D01*
X33858Y465486D01*
X37007Y464961D02*
X34907D01*
X37007Y467060D01*
Y467585D01*
X36482Y468110D01*
X35432D01*
X34907Y467585D01*
X149381Y339033D02*
X150431D01*
X149906D01*
Y335884D01*
X149381D01*
X150431D01*
X154104Y338508D02*
X153579Y339033D01*
X152530D01*
X152005Y338508D01*
Y336409D01*
X152530Y335884D01*
X153579D01*
X154104Y336409D01*
X155154Y335884D02*
X156203D01*
X155678D01*
Y339033D01*
X155154Y338508D01*
X125066Y395669D02*
Y392520D01*
X126641D01*
X127165Y393045D01*
Y395144D01*
X126641Y395669D01*
X125066D01*
X128215Y392520D02*
X129264D01*
X128740D01*
Y395669D01*
X128215Y395144D01*
X175066Y284908D02*
X174541Y285433D01*
X173492D01*
X172967Y284908D01*
Y282809D01*
X173492Y282284D01*
X174541D01*
X175066Y282809D01*
X176115D02*
X176640Y282284D01*
X177690D01*
X178214Y282809D01*
Y284908D01*
X177690Y285433D01*
X176640D01*
X176115Y284908D01*
Y284383D01*
X176640Y283858D01*
X178214D01*
X164830Y284908D02*
X164305Y285433D01*
X163255D01*
X162731Y284908D01*
Y282809D01*
X163255Y282284D01*
X164305D01*
X164830Y282809D01*
X165879Y284908D02*
X166404Y285433D01*
X167453D01*
X167978Y284908D01*
Y284383D01*
X167453Y283858D01*
X167978Y283333D01*
Y282809D01*
X167453Y282284D01*
X166404D01*
X165879Y282809D01*
Y283333D01*
X166404Y283858D01*
X165879Y284383D01*
Y284908D01*
X166404Y283858D02*
X167453D01*
X156168Y284514D02*
X155643Y285039D01*
X154594D01*
X154069Y284514D01*
Y282415D01*
X154594Y281890D01*
X155643D01*
X156168Y282415D01*
X157218Y285039D02*
X159317D01*
Y284514D01*
X157218Y282415D01*
Y281890D01*
X19554Y466798D02*
X19029Y467322D01*
X17980D01*
X17455Y466798D01*
Y464699D01*
X17980Y464174D01*
X19029D01*
X19554Y464699D01*
X22703Y467322D02*
X21653Y466798D01*
X20604Y465748D01*
Y464699D01*
X21128Y464174D01*
X22178D01*
X22703Y464699D01*
Y465223D01*
X22178Y465748D01*
X20604D01*
X79790Y274278D02*
X79265Y274803D01*
X78216D01*
X77691Y274278D01*
Y272179D01*
X78216Y271654D01*
X79265D01*
X79790Y272179D01*
X82939Y274803D02*
X80840D01*
Y273228D01*
X81889Y273753D01*
X82414D01*
X82939Y273228D01*
Y272179D01*
X82414Y271654D01*
X81365D01*
X80840Y272179D01*
X130578Y334514D02*
X130053Y335039D01*
X129003D01*
X128479Y334514D01*
Y332415D01*
X129003Y331890D01*
X130053D01*
X130578Y332415D01*
X133201Y331890D02*
Y335039D01*
X131627Y333465D01*
X133726D01*
X151837Y383727D02*
X151313Y384251D01*
X150263D01*
X149738Y383727D01*
Y381628D01*
X150263Y381103D01*
X151313D01*
X151837Y381628D01*
X152887Y383727D02*
X153412Y384251D01*
X154461D01*
X154986Y383727D01*
Y383202D01*
X154461Y382677D01*
X153937D01*
X154461D01*
X154986Y382152D01*
Y381628D01*
X154461Y381103D01*
X153412D01*
X152887Y381628D01*
X32880Y486908D02*
X32355Y487433D01*
X31306D01*
X30781Y486908D01*
Y484809D01*
X31306Y484284D01*
X32355D01*
X32880Y484809D01*
X36029Y484284D02*
X33930D01*
X36029Y486383D01*
Y486908D01*
X35504Y487433D01*
X34455D01*
X33930Y486908D01*
X57480Y429396D02*
X56956Y429921D01*
X55906D01*
X55381Y429396D01*
Y427297D01*
X55906Y426772D01*
X56956D01*
X57480Y427297D01*
X58530Y426772D02*
X59579D01*
X59055D01*
Y429921D01*
X58530Y429396D01*
X262781Y459033D02*
Y455884D01*
X264355D01*
X264880Y456409D01*
Y456934D01*
X264355Y457459D01*
X262781D01*
X264355D01*
X264880Y457983D01*
Y458508D01*
X264355Y459033D01*
X262781D01*
X268029D02*
X265930D01*
Y457459D01*
X266979Y457983D01*
X267504D01*
X268029Y457459D01*
Y456409D01*
X267504Y455884D01*
X266455D01*
X265930Y456409D01*
X242281Y459033D02*
Y455884D01*
X243855D01*
X244380Y456409D01*
Y456934D01*
X243855Y457459D01*
X242281D01*
X243855D01*
X244380Y457983D01*
Y458508D01*
X243855Y459033D01*
X242281D01*
X247004Y455884D02*
Y459033D01*
X245430Y457459D01*
X247529D01*
X223281Y459333D02*
Y456184D01*
X224855D01*
X225380Y456709D01*
Y457234D01*
X224855Y457759D01*
X223281D01*
X224855D01*
X225380Y458283D01*
Y458808D01*
X224855Y459333D01*
X223281D01*
X226430Y458808D02*
X226955Y459333D01*
X228004D01*
X228529Y458808D01*
Y458283D01*
X228004Y457759D01*
X227479D01*
X228004D01*
X228529Y457234D01*
Y456709D01*
X228004Y456184D01*
X226955D01*
X226430Y456709D01*
X204781Y458333D02*
Y455184D01*
X206355D01*
X206880Y455709D01*
Y456234D01*
X206355Y456759D01*
X204781D01*
X206355D01*
X206880Y457283D01*
Y457808D01*
X206355Y458333D01*
X204781D01*
X210029Y455184D02*
X207930D01*
X210029Y457283D01*
Y457808D01*
X209504Y458333D01*
X208454D01*
X207930Y457808D01*
X185581Y458833D02*
Y455684D01*
X187155D01*
X187680Y456209D01*
Y456734D01*
X187155Y457259D01*
X185581D01*
X187155D01*
X187680Y457783D01*
Y458308D01*
X187155Y458833D01*
X185581D01*
X188730Y455684D02*
X189779D01*
X189254D01*
Y458833D01*
X188730Y458308D01*
M02*
