G04*
G04 #@! TF.GenerationSoftware,Altium Limited,Altium Designer,20.2.7 (254)*
G04*
G04 Layer_Color=16711935*
%FSLAX25Y25*%
%MOIN*%
G70*
G04*
G04 #@! TF.SameCoordinates,5F875E55-BAE3-40D7-A44D-41C4DA183B39*
G04*
G04*
G04 #@! TF.FilePolarity,Negative*
G04*
G01*
G75*
%ADD49C,0.04737*%
%ADD50C,0.05800*%
%ADD51C,0.02769*%
D49*
X11740Y54893D02*
D03*
X11937Y63161D02*
D03*
X12098Y96232D02*
D03*
X12000Y104500D02*
D03*
X12197Y119461D02*
D03*
X12295Y137374D02*
D03*
X12098Y88752D02*
D03*
X12000Y111784D02*
D03*
X12197Y72118D02*
D03*
X86394Y208965D02*
D03*
X297598Y163764D02*
D03*
X297402Y179905D02*
D03*
X305500Y6000D02*
D03*
X297598Y136764D02*
D03*
X297402Y152905D02*
D03*
X290000Y6500D02*
D03*
X541500Y154028D02*
D03*
Y174500D02*
D03*
X17500Y19000D02*
D03*
X260000Y141000D02*
D03*
X260197Y157240D02*
D03*
X281197Y141224D02*
D03*
X281394Y157465D02*
D03*
X213000Y140500D02*
D03*
X213197Y156740D02*
D03*
X190697Y141724D02*
D03*
X190894Y157965D02*
D03*
X236197Y141224D02*
D03*
X236394Y157465D02*
D03*
X19000Y222000D02*
D03*
X76303Y209276D02*
D03*
X76106Y193035D02*
D03*
X210500Y205500D02*
D03*
X86197Y192724D02*
D03*
X97697Y191724D02*
D03*
X97894Y207965D02*
D03*
X81197Y159224D02*
D03*
X81394Y175465D02*
D03*
X101197Y159224D02*
D03*
X101394Y175465D02*
D03*
X118697Y159224D02*
D03*
X118894Y175465D02*
D03*
X17500Y31500D02*
D03*
X99000Y11500D02*
D03*
D50*
X100500Y60500D02*
D03*
X91000Y61000D02*
D03*
X81500Y54000D02*
D03*
X53000Y113500D02*
D03*
X58500Y158500D02*
D03*
X65000Y114500D02*
D03*
X188500Y9500D02*
D03*
X133500Y53500D02*
D03*
X80000Y63000D02*
D03*
X108500Y18500D02*
D03*
X132000Y39500D02*
D03*
X150500Y39000D02*
D03*
X144323Y9823D02*
D03*
X65000Y178482D02*
D03*
X514500Y40000D02*
D03*
X66000Y196500D02*
D03*
X44000Y201594D02*
D03*
X31500Y207000D02*
D03*
X40500Y164000D02*
D03*
X523083Y243083D02*
D03*
X541500Y197500D02*
D03*
X492000Y41000D02*
D03*
X493500Y212500D02*
D03*
X528500Y213000D02*
D03*
X519000D02*
D03*
X521500Y40000D02*
D03*
X529500Y40500D02*
D03*
X233000Y221500D02*
D03*
X406500Y102500D02*
D03*
D51*
X191000Y46000D02*
D03*
X184000D02*
D03*
X177500D02*
D03*
X171500D02*
D03*
X230000Y14000D02*
D03*
Y19500D02*
D03*
Y25500D02*
D03*
Y30000D02*
D03*
M02*
