G04*
G04 #@! TF.GenerationSoftware,Altium Limited,Altium Designer,20.2.7 (254)*
G04*
G04 Layer_Color=65535*
%FSLAX25Y25*%
%MOIN*%
G70*
G04*
G04 #@! TF.SameCoordinates,CF43E641-EDBD-4116-B357-B4F524034C76*
G04*
G04*
G04 #@! TF.FilePolarity,Positive*
G04*
G01*
G75*
%ADD10C,0.00394*%
%ADD11C,0.00787*%
%ADD12C,0.01575*%
%ADD13C,0.01000*%
%ADD14C,0.00800*%
D10*
X62000Y67535D02*
Y67929D01*
Y67535D01*
X205098Y49610D02*
X267894D01*
X25824Y103254D02*
X25299Y103779D01*
X24249D01*
X23724Y103254D01*
Y101155D01*
X24249Y100630D01*
X25299D01*
X25824Y101155D01*
Y102204D01*
X24774D01*
X26873Y100630D02*
Y103779D01*
X28972Y100630D01*
Y103779D01*
X30022D02*
Y100630D01*
X31596D01*
X32121Y101155D01*
Y103254D01*
X31596Y103779D01*
X30022D01*
X26414Y112341D02*
X24315D01*
Y110767D01*
X25365Y111292D01*
X25889D01*
X26414Y110767D01*
Y109718D01*
X25889Y109193D01*
X24840D01*
X24315Y109718D01*
X27463Y112341D02*
Y110242D01*
X28513Y109193D01*
X29563Y110242D01*
Y112341D01*
X23724Y118248D02*
X24774D01*
X24249D01*
Y121397D01*
X23724Y120872D01*
X26348Y121397D02*
X28447D01*
Y120872D01*
X26348Y118773D01*
Y118248D01*
X29497Y121397D02*
Y119298D01*
X30546Y118248D01*
X31596Y119298D01*
Y121397D01*
X24216Y137244D02*
X26316D01*
X25266Y138293D02*
Y136194D01*
X27365Y138818D02*
Y135669D01*
Y137244D01*
X29464D01*
Y138818D01*
Y135669D01*
X30514Y138818D02*
Y136719D01*
X31563Y135669D01*
X32613Y136719D01*
Y138818D01*
X25922Y96167D02*
X25397Y96692D01*
X24348D01*
X23823Y96167D01*
Y94068D01*
X24348Y93543D01*
X25397D01*
X25922Y94068D01*
Y95118D01*
X24872D01*
X26971Y93543D02*
Y96692D01*
X29070Y93543D01*
Y96692D01*
X30120D02*
Y93543D01*
X31694D01*
X32219Y94068D01*
Y96167D01*
X31694Y96692D01*
X30120D01*
X25824Y88588D02*
X25299Y89113D01*
X24249D01*
X23724Y88588D01*
Y86489D01*
X24249Y85965D01*
X25299D01*
X25824Y86489D01*
Y87539D01*
X24774D01*
X26873Y85965D02*
Y89113D01*
X28972Y85965D01*
Y89113D01*
X30022D02*
Y85965D01*
X31596D01*
X32121Y86489D01*
Y88588D01*
X31596Y89113D01*
X30022D01*
D11*
X215000Y19689D02*
Y19295D01*
Y19689D01*
Y19295D01*
X58437Y201433D02*
Y205567D01*
X50000Y185933D02*
Y190067D01*
X62500Y164433D02*
Y168567D01*
X49000Y173933D02*
Y178067D01*
X30000Y174744D02*
Y180256D01*
X29500Y157433D02*
Y161567D01*
X41331Y32102D02*
X64953D01*
Y55724D01*
X41331D02*
X64953D01*
X41331Y32102D02*
Y55724D01*
X40055Y100803D02*
X46945D01*
X49012Y75705D02*
Y101295D01*
Y75705D02*
X62791D01*
Y101295D01*
X49012D02*
X62791D01*
X87437Y93433D02*
Y97567D01*
X96319Y32709D02*
X98681D01*
Y21291D02*
Y32709D01*
X96319Y21291D02*
X98681D01*
X96319D02*
Y32709D01*
X90216Y32906D02*
X94941D01*
X145500Y23933D02*
Y28067D01*
X164551Y67500D02*
X183449D01*
X234744Y123000D02*
X240256D01*
X543500Y238472D02*
Y247528D01*
X150216Y63035D02*
Y82957D01*
X139784Y63035D02*
Y79965D01*
X118024Y35405D02*
X120976D01*
Y23595D02*
Y35405D01*
X118024Y23595D02*
X120976D01*
X118024D02*
Y35405D01*
X112118D02*
X116646D01*
X135216Y125535D02*
Y145457D01*
X124784Y125535D02*
Y142465D01*
X104783Y122543D02*
Y142465D01*
X115217Y125535D02*
Y142465D01*
X94717Y125535D02*
Y145457D01*
X84284Y125535D02*
Y142465D01*
X60000Y137291D02*
Y148709D01*
X133217Y94535D02*
Y114457D01*
X122784Y94535D02*
Y111465D01*
X30000Y193744D02*
Y199256D01*
X130717Y63035D02*
Y82957D01*
X120283Y63035D02*
Y79965D01*
X48701Y231646D02*
X61299D01*
Y212354D02*
Y231646D01*
X48701Y212354D02*
X61299D01*
X48701D02*
Y231646D01*
X41417Y232157D02*
X47323D01*
X76433Y39000D02*
X80567D01*
X160449Y22543D02*
Y36815D01*
X166551Y26185D02*
Y36815D01*
X84000Y108433D02*
Y112567D01*
D12*
X539000Y147000D02*
X544000D01*
X541500Y144500D02*
Y149500D01*
D13*
X66032Y205819D02*
Y208181D01*
X67213D01*
X67606Y207787D01*
Y207000D01*
X67213Y206606D01*
X66032D01*
X66819D02*
X67606Y205819D01*
X69968D02*
X68394D01*
X69968Y207394D01*
Y207787D01*
X69574Y208181D01*
X68787D01*
X68394Y207787D01*
X56606Y194287D02*
X56213Y194681D01*
X55426D01*
X55032Y194287D01*
Y192713D01*
X55426Y192319D01*
X56213D01*
X56606Y192713D01*
X58968Y192319D02*
X57394D01*
X58968Y193894D01*
Y194287D01*
X58574Y194681D01*
X57787D01*
X57394Y194287D01*
X70106Y173287D02*
X69713Y173681D01*
X68926D01*
X68532Y173287D01*
Y171713D01*
X68926Y171319D01*
X69713D01*
X70106Y171713D01*
X72468Y173681D02*
X71681Y173287D01*
X70894Y172500D01*
Y171713D01*
X71287Y171319D01*
X72074D01*
X72468Y171713D01*
Y172106D01*
X72074Y172500D01*
X70894D01*
X56926Y179819D02*
Y182181D01*
X58106D01*
X58500Y181787D01*
Y181000D01*
X58106Y180606D01*
X56926D01*
X57713D02*
X58500Y179819D01*
X59287D02*
X60074D01*
X59681D01*
Y182181D01*
X59287Y181787D01*
X18532Y183319D02*
Y185681D01*
X19713D01*
X20106Y185287D01*
Y184500D01*
X19713Y184106D01*
X18532D01*
X19319D02*
X20106Y183319D01*
X22468Y185681D02*
X20894D01*
Y184500D01*
X21681Y184894D01*
X22074D01*
X22468Y184500D01*
Y183713D01*
X22074Y183319D01*
X21287D01*
X20894Y183713D01*
X21500Y166787D02*
X21106Y167181D01*
X20319D01*
X19926Y166787D01*
Y165213D01*
X20319Y164819D01*
X21106D01*
X21500Y165213D01*
X22287Y164819D02*
X23074D01*
X22681D01*
Y167181D01*
X22287Y166787D01*
X35500Y70287D02*
X35106Y70681D01*
X34319D01*
X33926Y70287D01*
Y69894D01*
X34319Y69500D01*
X35106D01*
X35500Y69106D01*
Y68713D01*
X35106Y68319D01*
X34319D01*
X33926Y68713D01*
X36287Y68319D02*
X37074D01*
X36681D01*
Y70681D01*
X36287Y70287D01*
X42048Y107181D02*
X42835D01*
X42442D01*
Y104819D01*
X42048D01*
X42835D01*
X45590Y106787D02*
X45197Y107181D01*
X44410D01*
X44016Y106787D01*
Y105213D01*
X44410Y104819D01*
X45197D01*
X45590Y105213D01*
X47558Y104819D02*
Y107181D01*
X46378Y106000D01*
X47952D01*
X85532Y100319D02*
Y102681D01*
X86713D01*
X87106Y102287D01*
Y101500D01*
X86713Y101106D01*
X85532D01*
X86319D02*
X87106Y100319D01*
X87894Y102681D02*
X89468D01*
Y102287D01*
X87894Y100713D01*
Y100319D01*
X103122Y103787D02*
X102729Y104181D01*
X101942D01*
X101548Y103787D01*
Y102213D01*
X101942Y101819D01*
X102729D01*
X103122Y102213D01*
X103910Y101819D02*
X104697D01*
X104303D01*
Y104181D01*
X103910Y103787D01*
X107452Y101819D02*
X105877D01*
X107452Y103394D01*
Y103787D01*
X107058Y104181D01*
X106271D01*
X105877Y103787D01*
X104516Y89787D02*
X104122Y90181D01*
X103335D01*
X102942Y89787D01*
Y88213D01*
X103335Y87819D01*
X104122D01*
X104516Y88213D01*
X105303Y87819D02*
X106090D01*
X105697D01*
Y90181D01*
X105303Y89787D01*
X107271Y87819D02*
X108058D01*
X107665D01*
Y90181D01*
X107271Y89787D01*
X87106D02*
X86713Y90181D01*
X85926D01*
X85532Y89787D01*
Y88213D01*
X85926Y87819D01*
X86713D01*
X87106Y88213D01*
X89468Y90181D02*
X87894D01*
Y89000D01*
X88681Y89394D01*
X89074D01*
X89468Y89000D01*
Y88213D01*
X89074Y87819D01*
X88287D01*
X87894Y88213D01*
X87122Y75287D02*
X86729Y75681D01*
X85942D01*
X85548Y75287D01*
Y73713D01*
X85942Y73319D01*
X86729D01*
X87122Y73713D01*
X87910Y73319D02*
X88697D01*
X88303D01*
Y75681D01*
X87910Y75287D01*
X89877D02*
X90271Y75681D01*
X91058D01*
X91452Y75287D01*
Y73713D01*
X91058Y73319D01*
X90271D01*
X89877Y73713D01*
Y75287D01*
X124106Y54287D02*
X123713Y54681D01*
X122926D01*
X122532Y54287D01*
Y52713D01*
X122926Y52319D01*
X123713D01*
X124106Y52713D01*
X124894Y54287D02*
X125287Y54681D01*
X126074D01*
X126468Y54287D01*
Y53894D01*
X126074Y53500D01*
X126468Y53106D01*
Y52713D01*
X126074Y52319D01*
X125287D01*
X124894Y52713D01*
Y53106D01*
X125287Y53500D01*
X124894Y53894D01*
Y54287D01*
X125287Y53500D02*
X126074D01*
X109606Y54787D02*
X109213Y55181D01*
X108426D01*
X108032Y54787D01*
Y53213D01*
X108426Y52819D01*
X109213D01*
X109606Y53213D01*
X110394Y55181D02*
X111968D01*
Y54787D01*
X110394Y53213D01*
Y52819D01*
X94606Y54287D02*
X94213Y54681D01*
X93426D01*
X93032Y54287D01*
Y52713D01*
X93426Y52319D01*
X94213D01*
X94606Y52713D01*
X95394D02*
X95787Y52319D01*
X96574D01*
X96968Y52713D01*
Y54287D01*
X96574Y54681D01*
X95787D01*
X95394Y54287D01*
Y53894D01*
X95787Y53500D01*
X96968D01*
X89613Y38681D02*
X90400D01*
X90007D01*
Y36319D01*
X89613D01*
X90400D01*
X93155Y38287D02*
X92762Y38681D01*
X91975D01*
X91581Y38287D01*
Y36713D01*
X91975Y36319D01*
X92762D01*
X93155Y36713D01*
X93943Y36319D02*
X94730D01*
X94336D01*
Y38681D01*
X93943Y38287D01*
X143532Y17819D02*
Y20181D01*
X144713D01*
X145106Y19787D01*
Y19000D01*
X144713Y18606D01*
X143532D01*
X144319D02*
X145106Y17819D01*
X145894Y18213D02*
X146287Y17819D01*
X147074D01*
X147468Y18213D01*
Y19787D01*
X147074Y20181D01*
X146287D01*
X145894Y19787D01*
Y19394D01*
X146287Y19000D01*
X147468D01*
X177106Y87287D02*
X176713Y87681D01*
X175926D01*
X175532Y87287D01*
Y85713D01*
X175926Y85319D01*
X176713D01*
X177106Y85713D01*
X177894Y87287D02*
X178287Y87681D01*
X179074D01*
X179468Y87287D01*
Y86894D01*
X179074Y86500D01*
X178681D01*
X179074D01*
X179468Y86106D01*
Y85713D01*
X179074Y85319D01*
X178287D01*
X177894Y85713D01*
X193496Y115713D02*
Y117287D01*
X193103Y117681D01*
X192315D01*
X191922Y117287D01*
Y115713D01*
X192315Y115319D01*
X193103D01*
X192709Y116106D02*
X193496Y115319D01*
X193103D02*
X193496Y115713D01*
X194283Y115319D02*
X195070D01*
X194677D01*
Y117681D01*
X194283Y117287D01*
X296000Y185300D02*
Y187661D01*
X297181D01*
X297574Y187268D01*
Y186481D01*
X297181Y186087D01*
X296000D01*
X296787D02*
X297574Y185300D01*
X298361D02*
X299149D01*
X298755D01*
Y187661D01*
X298361Y187268D01*
X300329Y185300D02*
X301116D01*
X300723D01*
Y187661D01*
X300329Y187268D01*
X304100Y13761D02*
X305674D01*
X304887D01*
Y11400D01*
X306461D02*
Y13761D01*
X307642D01*
X308036Y13368D01*
Y12581D01*
X307642Y12187D01*
X306461D01*
X308823Y11400D02*
X309610D01*
X309216D01*
Y13761D01*
X308823Y13368D01*
X312365Y11400D02*
X310791D01*
X312365Y12974D01*
Y13368D01*
X311971Y13761D01*
X311184D01*
X310791Y13368D01*
X296000Y158300D02*
Y160661D01*
X297181D01*
X297574Y160268D01*
Y159481D01*
X297181Y159087D01*
X296000D01*
X296787D02*
X297574Y158300D01*
X298361D02*
X299149D01*
X298755D01*
Y160661D01*
X298361Y160268D01*
X301904Y158300D02*
X300329D01*
X301904Y159874D01*
Y160268D01*
X301510Y160661D01*
X300723D01*
X300329Y160268D01*
X288600Y14261D02*
X290174D01*
X289387D01*
Y11900D01*
X290961D02*
Y14261D01*
X292142D01*
X292536Y13868D01*
Y13081D01*
X292142Y12687D01*
X290961D01*
X293323Y11900D02*
X294110D01*
X293716D01*
Y14261D01*
X293323Y13868D01*
X295291Y11900D02*
X296078D01*
X295684D01*
Y14261D01*
X295291Y13868D01*
X219952Y118681D02*
Y116319D01*
X218771D01*
X218377Y116713D01*
Y117500D01*
X218771Y117894D01*
X219952D01*
X219165D02*
X218377Y118681D01*
X217590D02*
X216803D01*
X217197D01*
Y116319D01*
X217590Y116713D01*
X215622D02*
X215229Y116319D01*
X214442D01*
X214048Y116713D01*
Y118287D01*
X214442Y118681D01*
X215229D01*
X215622Y118287D01*
Y116713D01*
X522032Y250319D02*
Y252681D01*
X523213D01*
X523606Y252287D01*
Y251500D01*
X523213Y251106D01*
X522032D01*
X522819D02*
X523606Y250319D01*
X524394Y252287D02*
X524787Y252681D01*
X525574D01*
X525968Y252287D01*
Y251894D01*
X525574Y251500D01*
X525968Y251106D01*
Y250713D01*
X525574Y250319D01*
X524787D01*
X524394Y250713D01*
Y251106D01*
X524787Y251500D01*
X524394Y251894D01*
Y252287D01*
X524787Y251500D02*
X525574D01*
X8351Y34681D02*
X9926D01*
X9139D01*
Y32319D01*
X10713D02*
Y34681D01*
X11894D01*
X12287Y34287D01*
Y33500D01*
X11894Y33106D01*
X10713D01*
X14649Y34681D02*
X13861Y34287D01*
X13074Y33500D01*
Y32713D01*
X13468Y32319D01*
X14255D01*
X14649Y32713D01*
Y33106D01*
X14255Y33500D01*
X13074D01*
X209100Y213261D02*
X210674D01*
X209887D01*
Y210900D01*
X211461D02*
Y213261D01*
X212642D01*
X213036Y212868D01*
Y212081D01*
X212642Y211687D01*
X211461D01*
X215397Y213261D02*
X213823D01*
Y212081D01*
X214610Y212474D01*
X215004D01*
X215397Y212081D01*
Y211294D01*
X215004Y210900D01*
X214216D01*
X213823Y211294D01*
X176122Y163181D02*
X175335D01*
X175729D01*
Y161213D01*
X175335Y160819D01*
X174942D01*
X174548Y161213D01*
X176910Y160819D02*
X177697D01*
X177303D01*
Y163181D01*
X176910Y162787D01*
X180452Y160819D02*
X178877D01*
X180452Y162394D01*
Y162787D01*
X180058Y163181D01*
X179271D01*
X178877Y162787D01*
X202319Y163456D02*
X201532D01*
X201926D01*
Y161488D01*
X201532Y161095D01*
X201138D01*
X200745Y161488D01*
X203106Y161095D02*
X203893D01*
X203500D01*
Y163456D01*
X203106Y163063D01*
X205074Y161095D02*
X205861D01*
X205468D01*
Y163456D01*
X205074Y163063D01*
X224123Y162681D02*
X223335D01*
X223729D01*
Y160713D01*
X223335Y160319D01*
X222942D01*
X222548Y160713D01*
X224910Y160319D02*
X225697D01*
X225303D01*
Y162681D01*
X224910Y162287D01*
X226877D02*
X227271Y162681D01*
X228058D01*
X228452Y162287D01*
Y160713D01*
X228058Y160319D01*
X227271D01*
X226877Y160713D01*
Y162287D01*
X250303Y162421D02*
X249516D01*
X249910D01*
Y160453D01*
X249516Y160059D01*
X249123D01*
X248729Y160453D01*
X251090D02*
X251484Y160059D01*
X252271D01*
X252665Y160453D01*
Y162027D01*
X252271Y162421D01*
X251484D01*
X251090Y162027D01*
Y161634D01*
X251484Y161240D01*
X252665D01*
X271606Y161181D02*
X270819D01*
X271213D01*
Y159213D01*
X270819Y158819D01*
X270426D01*
X270032Y159213D01*
X272394Y160787D02*
X272787Y161181D01*
X273574D01*
X273968Y160787D01*
Y160394D01*
X273574Y160000D01*
X273968Y159606D01*
Y159213D01*
X273574Y158819D01*
X272787D01*
X272394Y159213D01*
Y159606D01*
X272787Y160000D01*
X272394Y160394D01*
Y160787D01*
X272787Y160000D02*
X273574D01*
X118874Y183161D02*
X118087D01*
X118481D01*
Y181194D01*
X118087Y180800D01*
X117694D01*
X117300Y181194D01*
X121236Y183161D02*
X120449Y182768D01*
X119661Y181981D01*
Y181194D01*
X120055Y180800D01*
X120842D01*
X121236Y181194D01*
Y181587D01*
X120842Y181981D01*
X119661D01*
X101374Y183161D02*
X100587D01*
X100981D01*
Y181194D01*
X100587Y180800D01*
X100194D01*
X99800Y181194D01*
X103736Y183161D02*
X102161D01*
Y181981D01*
X102949Y182374D01*
X103342D01*
X103736Y181981D01*
Y181194D01*
X103342Y180800D01*
X102555D01*
X102161Y181194D01*
X81374Y183161D02*
X80587D01*
X80981D01*
Y181194D01*
X80587Y180800D01*
X80194D01*
X79800Y181194D01*
X83342Y180800D02*
Y183161D01*
X82161Y181981D01*
X83736D01*
X97874Y215661D02*
X97087D01*
X97481D01*
Y213694D01*
X97087Y213300D01*
X96694D01*
X96300Y213694D01*
X98661Y215268D02*
X99055Y215661D01*
X99842D01*
X100236Y215268D01*
Y214874D01*
X99842Y214481D01*
X99449D01*
X99842D01*
X100236Y214087D01*
Y213694D01*
X99842Y213300D01*
X99055D01*
X98661Y213694D01*
X86374Y216661D02*
X85587D01*
X85981D01*
Y214694D01*
X85587Y214300D01*
X85194D01*
X84800Y214694D01*
X88736Y214300D02*
X87161D01*
X88736Y215874D01*
Y216268D01*
X88342Y216661D01*
X87555D01*
X87161Y216268D01*
X76274Y216961D02*
X75487D01*
X75881D01*
Y214994D01*
X75487Y214600D01*
X75094D01*
X74700Y214994D01*
X77061Y214600D02*
X77849D01*
X77455D01*
Y216961D01*
X77061Y216568D01*
X157800Y46861D02*
X159374D01*
Y46468D01*
X157800Y44894D01*
Y44500D01*
X159374D01*
X160161D02*
X160949D01*
X160555D01*
Y46861D01*
X160161Y46468D01*
X9851Y61681D02*
X11426D01*
X10639D01*
Y59319D01*
X12213D02*
Y61681D01*
X13394D01*
X13787Y61287D01*
Y60500D01*
X13394Y60106D01*
X12213D01*
X14574Y61287D02*
X14968Y61681D01*
X15755D01*
X16149Y61287D01*
Y60894D01*
X15755Y60500D01*
X16149Y60106D01*
Y59713D01*
X15755Y59319D01*
X14968D01*
X14574Y59713D01*
Y60106D01*
X14968Y60500D01*
X14574Y60894D01*
Y61287D01*
X14968Y60500D02*
X15755D01*
X75100Y25261D02*
X76674D01*
X75887D01*
Y22900D01*
X77461D02*
Y25261D01*
X78642D01*
X79036Y24868D01*
Y24081D01*
X78642Y23687D01*
X77461D01*
X79823Y25261D02*
X81397D01*
Y24868D01*
X79823Y23294D01*
Y22900D01*
X530564Y182713D02*
Y185074D01*
X531745D01*
X532139Y184681D01*
Y183894D01*
X531745Y183500D01*
X530564D01*
X531351D02*
X532139Y182713D01*
X533319D02*
X534106D01*
X534500Y183106D01*
Y183894D01*
X534106Y184287D01*
X533319D01*
X532926Y183894D01*
Y183106D01*
X533319Y182713D01*
X536074Y181926D02*
X536468D01*
X536861Y182319D01*
Y184287D01*
X535681D01*
X535287Y183894D01*
Y183106D01*
X535681Y182713D01*
X536861D01*
X537649D02*
X538436D01*
X538042D01*
Y185074D01*
X537649Y184681D01*
X21900Y204100D02*
Y206461D01*
X23081D01*
X23474Y206068D01*
Y205281D01*
X23081Y204887D01*
X21900D01*
X22687D02*
X23474Y204100D01*
X25836Y206461D02*
X25049Y206068D01*
X24261Y205281D01*
Y204494D01*
X24655Y204100D01*
X25442D01*
X25836Y204494D01*
Y204887D01*
X25442Y205281D01*
X24261D01*
X75700Y48900D02*
Y51261D01*
X76881D01*
X77274Y50868D01*
Y50081D01*
X76881Y49687D01*
X75700D01*
X76487D02*
X77274Y48900D01*
X79242D02*
Y51261D01*
X78061Y50081D01*
X79636D01*
X45600Y153600D02*
Y155961D01*
X46781D01*
X47174Y155568D01*
Y154781D01*
X46781Y154387D01*
X45600D01*
X46387D02*
X47174Y153600D01*
X47961Y155568D02*
X48355Y155961D01*
X49142D01*
X49536Y155568D01*
Y155174D01*
X49142Y154781D01*
X48749D01*
X49142D01*
X49536Y154387D01*
Y153994D01*
X49142Y153600D01*
X48355D01*
X47961Y153994D01*
X17500Y142600D02*
Y144961D01*
X18681D01*
X19074Y144568D01*
Y143781D01*
X18681Y143387D01*
X17500D01*
X19861Y142600D02*
X20649D01*
X20255D01*
Y144961D01*
X19861Y144568D01*
X120048Y40181D02*
X120835D01*
X120442D01*
Y37819D01*
X120048D01*
X120835D01*
X123590Y39787D02*
X123197Y40181D01*
X122410D01*
X122016Y39787D01*
Y38213D01*
X122410Y37819D01*
X123197D01*
X123590Y38213D01*
X124378Y39787D02*
X124771Y40181D01*
X125558D01*
X125952Y39787D01*
Y39394D01*
X125558Y39000D01*
X125165D01*
X125558D01*
X125952Y38606D01*
Y38213D01*
X125558Y37819D01*
X124771D01*
X124378Y38213D01*
X41300Y238161D02*
X42087D01*
X41694D01*
Y235800D01*
X41300D01*
X42087D01*
X44842Y237768D02*
X44449Y238161D01*
X43661D01*
X43268Y237768D01*
Y236194D01*
X43661Y235800D01*
X44449D01*
X44842Y236194D01*
X47204Y235800D02*
X45629D01*
X47204Y237374D01*
Y237768D01*
X46810Y238161D01*
X46023D01*
X45629Y237768D01*
X84200Y151461D02*
Y149100D01*
X85381D01*
X85774Y149494D01*
Y151068D01*
X85381Y151461D01*
X84200D01*
X88136D02*
X87349Y151068D01*
X86561Y150281D01*
Y149494D01*
X86955Y149100D01*
X87742D01*
X88136Y149494D01*
Y149887D01*
X87742Y150281D01*
X86561D01*
X104700Y151461D02*
Y149100D01*
X105881D01*
X106274Y149494D01*
Y151068D01*
X105881Y151461D01*
X104700D01*
X108636D02*
X107061D01*
Y150281D01*
X107849Y150674D01*
X108242D01*
X108636Y150281D01*
Y149494D01*
X108242Y149100D01*
X107455D01*
X107061Y149494D01*
X124700Y151461D02*
Y149100D01*
X125881D01*
X126274Y149494D01*
Y151068D01*
X125881Y151461D01*
X124700D01*
X128242Y149100D02*
Y151461D01*
X127061Y150281D01*
X128636D01*
X122700Y120461D02*
Y118100D01*
X123881D01*
X124274Y118494D01*
Y120068D01*
X123881Y120461D01*
X122700D01*
X125061Y120068D02*
X125455Y120461D01*
X126242D01*
X126636Y120068D01*
Y119674D01*
X126242Y119281D01*
X125849D01*
X126242D01*
X126636Y118887D01*
Y118494D01*
X126242Y118100D01*
X125455D01*
X125061Y118494D01*
X120200Y88961D02*
Y86600D01*
X121381D01*
X121774Y86994D01*
Y88568D01*
X121381Y88961D01*
X120200D01*
X124136Y86600D02*
X122561D01*
X124136Y88174D01*
Y88568D01*
X123742Y88961D01*
X122955D01*
X122561Y88568D01*
X146426Y88681D02*
Y86319D01*
X147606D01*
X148000Y86713D01*
Y88287D01*
X147606Y88681D01*
X146426D01*
X148787Y86319D02*
X149574D01*
X149181D01*
Y88681D01*
X148787Y88287D01*
X79674Y119268D02*
X79281Y119661D01*
X78494D01*
X78100Y119268D01*
Y117694D01*
X78494Y117300D01*
X79281D01*
X79674Y117694D01*
X81642Y117300D02*
Y119661D01*
X80461Y118481D01*
X82036D01*
X187300Y183761D02*
Y181400D01*
X188481D01*
X188874Y181794D01*
Y182187D01*
X188481Y182581D01*
X187300D01*
X188481D01*
X188874Y182974D01*
Y183368D01*
X188481Y183761D01*
X187300D01*
X191236D02*
X189661D01*
Y182581D01*
X190449Y182974D01*
X190842D01*
X191236Y182581D01*
Y181794D01*
X190842Y181400D01*
X190055D01*
X189661Y181794D01*
X209800Y183761D02*
Y181400D01*
X210981D01*
X211374Y181794D01*
Y182187D01*
X210981Y182581D01*
X209800D01*
X210981D01*
X211374Y182974D01*
Y183368D01*
X210981Y183761D01*
X209800D01*
X213342Y181400D02*
Y183761D01*
X212161Y182581D01*
X213736D01*
X232300Y183261D02*
Y180900D01*
X233481D01*
X233874Y181294D01*
Y181687D01*
X233481Y182081D01*
X232300D01*
X233481D01*
X233874Y182474D01*
Y182868D01*
X233481Y183261D01*
X232300D01*
X234661Y182868D02*
X235055Y183261D01*
X235842D01*
X236236Y182868D01*
Y182474D01*
X235842Y182081D01*
X235449D01*
X235842D01*
X236236Y181687D01*
Y181294D01*
X235842Y180900D01*
X235055D01*
X234661Y181294D01*
X255800Y183361D02*
Y181000D01*
X256981D01*
X257374Y181394D01*
Y181787D01*
X256981Y182181D01*
X255800D01*
X256981D01*
X257374Y182574D01*
Y182968D01*
X256981Y183361D01*
X255800D01*
X259736Y181000D02*
X258161D01*
X259736Y182574D01*
Y182968D01*
X259342Y183361D01*
X258555D01*
X258161Y182968D01*
X277800Y183861D02*
Y181500D01*
X278981D01*
X279374Y181894D01*
Y182287D01*
X278981Y182681D01*
X277800D01*
X278981D01*
X279374Y183074D01*
Y183468D01*
X278981Y183861D01*
X277800D01*
X280161Y181500D02*
X280949D01*
X280555D01*
Y183861D01*
X280161Y183468D01*
D14*
X17400Y229561D02*
X18974D01*
X18187D01*
Y227200D01*
X19761D02*
Y229561D01*
X20942D01*
X21336Y229168D01*
Y228381D01*
X20942Y227987D01*
X19761D01*
X22123Y227594D02*
X22516Y227200D01*
X23304D01*
X23697Y227594D01*
Y229168D01*
X23304Y229561D01*
X22516D01*
X22123Y229168D01*
Y228774D01*
X22516Y228381D01*
X23697D01*
M02*
