M48
;Layer_Color=9474304
;FILE_FORMAT=2:5
INCH,LZ
;TYPE=PLATED
T1F00S00C0.01181
T2F00S00C0.01378
T3F00S00C0.02756
T4F00S00C0.02800
T5F00S00C0.03150
T6F00S00C0.03937
T7F00S00C0.05118
T8F00S00C0.05906
T9F00S00C0.09449
%
T01
X0269181Y0073484
X0270681Y0083984
X0276681Y0080484
X0285181Y0077484
X0285681Y0092484
X0281681Y0094984
X0278681Y0096984
X0276681Y0101484
X0277181Y0105484
Y0108984
Y0112484
X0278181Y0115984
X0279681Y0119484
X0282181Y0121984
X0264181Y0119484
X0262681Y0113484
X0262181Y0108484
Y0104484
Y0100484
X0263681Y0090484
X0290181Y0089984
X0294181Y0089484
X0292681Y0125484
X0289181
X0285181
X0296181Y0125984
Y0139984
X0292681
X0289181Y0139484
X0284681Y0138484
X0278681Y0136484
X0272181Y0131984
X0267681Y0127484
T02
X0156181Y0294484
X0165181
X0174181
Y0333484
Y0336984
X0171681Y0345984
X0183681
X0158681
X0148181
X0203181Y0308484
X0219681Y0287984
X0222681
Y0283984
X0219681
X0249181Y0318984
Y0323984
Y0328484
Y0332484
T03
X021811Y0097244
T04
X0211768Y0064173
X021063Y0081122
X0228346Y007874
X0441339Y0079528
X0448032
X0456299Y007874
X0464173Y0079528
X0435433Y0050394
X023937Y0211024
X0215748Y021063
X0227181Y0250484
X0049213Y0338976
X0114567Y032874
X0121681Y0314484
X0116181Y0305484
X0006693Y0455905
X0014567Y0470472
T05
X029685Y0066535
X0303543Y0079921
X0301575Y0089764
X0290604Y0096186
X0283681Y0102984
Y0110984
X0288681Y0119484
X0297931Y0120734
X0370681Y0089484
X0420681
X0455681
X0486681Y0089984
X0519681Y0089484
X0301181Y0128484
Y0136484
X0306299Y0145276
X0243681Y0264984
X0210681
X0011006Y0346789
X0011237Y0357165
X0115681Y0419984
X0123681Y0420484
X0131181Y0419984
X016878Y0419248
X0145669Y0311024
X0168583Y043539
X016878Y0449248
X0168583Y046539
X0133681Y0470984
X0126181
X0119181
T06
X0488583Y0049606
X0488386Y0062402
X0010879Y0236003
X0011139Y024496
X0010942Y0260118
X0010776Y0271032
X0010874Y0278611
X0010745Y0286299
Y0293779
X0010646Y0302047
X0010646Y030933
X0009681Y0319984
X0009859Y0330393
X0076681Y0434484
X0188878Y0429185
X0188779Y041698
X020878
X0208878Y0429185
X0226878Y0428685
X022678Y041648
X0245779Y041598
X0245878Y0428185
X0185181Y0328984
X0198681Y0308984
X026628Y041648
X0266378Y0428685
X0077181Y0468484
X0009181Y0438984
T07
X0183181Y0047984
X0400181Y0034484
X0283181Y0257484
X0302681Y0311484
X0305681Y0379484
X0112181Y0445484
T08
X0228346Y0020866
X0240551Y0020472
X025315
X0296681Y0107984
X0485827Y0038583
X0494095Y0020472
X0506299Y0020079
X0518898
X0355681Y0208984
X002126Y0186614
X0020866Y0174409
Y0161811
X043345Y0382689
X0433777Y0392428
X0322047Y046811
X0311811
X0180709Y0487008
T09
X0169638Y0034441
Y0061528
X0196724
Y0034441
X0386638Y0020941
Y0048028
X0413724
Y0020941
X0296724Y0243941
Y0271028
X0269638
Y0243941
X0098638Y0431941
X0125724
X0292138Y0393028
X0319224
Y0365941
X0292138
X0289138Y0325028
X0316224
Y0297941
X0289138
X0125724Y0459028
X0098638
M30
