G04*
G04 #@! TF.GenerationSoftware,Altium Limited,Altium Designer,20.2.7 (254)*
G04*
G04 Layer_Color=16711935*
%FSLAX25Y25*%
%MOIN*%
G70*
G04*
G04 #@! TF.SameCoordinates,5F875E55-BAE3-40D7-A44D-41C4DA183B39*
G04*
G04*
G04 #@! TF.FilePolarity,Positive*
G04*
G01*
G75*
%ADD10C,0.00787*%
%ADD11C,0.00394*%
D10*
X205102Y64815D02*
X267898D01*
Y111862D01*
X205102D02*
X267898D01*
X205102Y64815D02*
Y111862D01*
D11*
X153217Y93035D02*
Y109965D01*
X142783Y93035D02*
X153217D01*
X142783D02*
Y109965D01*
X153217D01*
X150618D02*
X153217Y107366D01*
X132217Y94035D02*
Y110965D01*
X121783Y94035D02*
X132217D01*
X121783D02*
Y110965D01*
X132217D01*
X129618D02*
X132217Y108366D01*
X248937Y14539D02*
Y19461D01*
X241063D02*
X248937D01*
X241063Y14539D02*
Y19461D01*
Y14539D02*
X248937D01*
Y23539D02*
Y28461D01*
X241063D02*
X248937D01*
X241063Y23539D02*
Y28461D01*
Y23539D02*
X248937D01*
X131717Y125035D02*
Y141965D01*
X121283Y125035D02*
X131717D01*
X121283D02*
Y141965D01*
X131717D01*
X129118D02*
X131717Y139366D01*
X128717Y62035D02*
Y78965D01*
X118283Y62035D02*
X128717D01*
X118283D02*
Y78965D01*
X128717D01*
X126118D02*
X128717Y76366D01*
X147323Y34646D02*
X162677D01*
Y15354D02*
Y34646D01*
X147323Y15354D02*
X162677D01*
X147323D02*
Y34646D01*
Y29646D02*
X152323Y34646D01*
X141563Y45539D02*
Y50461D01*
Y45539D02*
X149437D01*
Y50461D01*
X141563D02*
X149437D01*
X187591Y30315D02*
X190051Y27854D01*
X183949Y30315D02*
X190051D01*
X183949Y19685D02*
Y30315D01*
Y19685D02*
X190051D01*
Y30315D01*
X62374Y201039D02*
Y205961D01*
X54500D02*
X62374D01*
X54500Y201039D02*
Y205961D01*
Y201039D02*
X62374D01*
X46063Y185539D02*
Y190461D01*
Y185539D02*
X53937D01*
Y190461D01*
X46063D02*
X53937D01*
X58563Y164039D02*
Y168961D01*
Y164039D02*
X66437D01*
Y168961D01*
X58563D02*
X66437D01*
X45063Y173539D02*
Y178461D01*
Y173539D02*
X52937D01*
Y178461D01*
X45063D02*
X52937D01*
X23799Y174350D02*
Y180650D01*
Y174350D02*
X36201D01*
Y180650D01*
X23799D02*
X36201D01*
X25563Y157039D02*
Y161961D01*
Y157039D02*
X33437D01*
Y161961D01*
X25563D02*
X33437D01*
X49189Y45311D02*
X72811D01*
Y21689D02*
Y45311D01*
X49189Y21689D02*
X72811D01*
X49189D02*
Y45311D01*
X58063Y67539D02*
Y72461D01*
Y67539D02*
X65937D01*
Y72461D01*
X58063D02*
X65937D01*
X92043Y84039D02*
Y88961D01*
Y84039D02*
X99957D01*
Y88961D01*
X92043D02*
X99957D01*
X121213Y45039D02*
Y49961D01*
Y45039D02*
X129126D01*
Y49961D01*
X121213D02*
X129126D01*
X104213Y45039D02*
Y49961D01*
Y45039D02*
X112126D01*
Y49961D01*
X104213D02*
X112126D01*
X87213Y45039D02*
Y49961D01*
Y45039D02*
X95126D01*
Y49961D01*
X87213D02*
X95126D01*
X92063Y69539D02*
Y74461D01*
Y69539D02*
X99937D01*
Y74461D01*
X92063D02*
X99937D01*
X164157Y78720D02*
X183843D01*
X164157Y56279D02*
Y78720D01*
Y56279D02*
X183843D01*
Y78720D01*
X533658Y238079D02*
X553342D01*
X533658D02*
Y247921D01*
X553342D01*
Y238079D02*
Y247921D01*
X152717Y62035D02*
Y78965D01*
X142283Y62035D02*
X152717D01*
X142283D02*
Y78965D01*
X152717D01*
X150118D02*
X152717Y76366D01*
X119350Y28405D02*
X125650D01*
Y16594D02*
Y28405D01*
X119350Y16594D02*
X125650D01*
X119350D02*
Y28405D01*
Y24665D02*
X123091Y28405D01*
X47598Y149102D02*
X72402D01*
Y136898D02*
Y149102D01*
X47598Y136898D02*
X72402D01*
X47598D02*
Y149102D01*
X152216Y124677D02*
Y141606D01*
X141783Y124677D02*
X152216D01*
X141783D02*
Y141606D01*
X152216D01*
X149618D02*
X152216Y139008D01*
X23799Y193350D02*
X36201D01*
X23799D02*
Y199650D01*
X36201D01*
Y193350D02*
Y199650D01*
X47323Y231646D02*
X62677D01*
Y212354D02*
Y231646D01*
X47323Y212354D02*
X62677D01*
X47323D02*
Y231646D01*
Y226646D02*
X52323Y231646D01*
X173063Y10461D02*
X180937D01*
Y5539D02*
Y10461D01*
X173063Y5539D02*
X180937D01*
X173063D02*
Y10461D01*
X58063Y85461D02*
X65937D01*
Y80539D02*
Y85461D01*
X58063Y80539D02*
X65937D01*
X58063D02*
Y85461D01*
M02*
