G04*
G04 #@! TF.GenerationSoftware,Altium Limited,Altium Designer,20.2.7 (254)*
G04*
G04 Layer_Physical_Order=4*
G04 Layer_Color=16711680*
%FSLAX25Y25*%
%MOIN*%
G70*
G04*
G04 #@! TF.SameCoordinates,35C1B794-4458-498E-8B6A-B57C219EB0B0*
G04*
G04*
G04 #@! TF.FilePolarity,Positive*
G04*
G01*
G75*
%ADD12C,0.01000*%
%ADD70C,0.03150*%
%ADD71C,0.01968*%
%ADD73C,0.07874*%
%ADD79C,0.04724*%
%ADD80C,0.14173*%
%ADD81R,0.07677X0.07677*%
%ADD82C,0.03937*%
%ADD83C,0.05000*%
%ADD84C,0.07874*%
%ADD85C,0.01968*%
G36*
X143181Y348984D02*
X188181D01*
Y342484D01*
X224681Y305984D01*
X224681Y282101D01*
X224315Y281760D01*
X217681Y282234D01*
Y303984D01*
X205181Y316484D01*
X202188D01*
X201860Y316660D01*
X200302Y317132D01*
X198681Y317292D01*
X197060Y317132D01*
X195502Y316660D01*
X195174Y316484D01*
X167681D01*
X142681Y341484D01*
Y348831D01*
X143143Y349022D01*
X143181Y348984D01*
D02*
G37*
%LPC*%
G36*
X174181Y339007D02*
X173407Y338853D01*
X172750Y338415D01*
X172312Y337758D01*
X172158Y336984D01*
X172312Y336210D01*
X172750Y335554D01*
X172854Y335484D01*
Y334984D01*
X172750Y334915D01*
X172312Y334259D01*
X172158Y333484D01*
X172312Y332710D01*
X172750Y332054D01*
X173407Y331615D01*
X174181Y331461D01*
X174955Y331615D01*
X175612Y332054D01*
X176050Y332710D01*
X176204Y333484D01*
X176050Y334259D01*
X175612Y334915D01*
X175508Y334984D01*
Y335484D01*
X175612Y335554D01*
X176050Y336210D01*
X176204Y336984D01*
X176050Y337758D01*
X175612Y338415D01*
X174955Y338853D01*
X174181Y339007D01*
D02*
G37*
G36*
X185181Y332376D02*
X184303Y332260D01*
X183485Y331921D01*
X182783Y331382D01*
X182244Y330680D01*
X181905Y329862D01*
X181790Y328984D01*
X181905Y328106D01*
X182244Y327289D01*
X182783Y326586D01*
X183485Y326047D01*
X184303Y325709D01*
X185181Y325593D01*
X186059Y325709D01*
X186877Y326047D01*
X187579Y326586D01*
X188118Y327289D01*
X188457Y328106D01*
X188572Y328984D01*
X188457Y329862D01*
X188118Y330680D01*
X187579Y331382D01*
X186877Y331921D01*
X186059Y332260D01*
X185181Y332376D01*
D02*
G37*
%LPD*%
D12*
X296181Y125984D02*
Y139984D01*
X292681Y125484D02*
Y139984D01*
X289181Y125484D02*
Y139484D01*
X285181Y125484D02*
Y137722D01*
X284681Y138222D02*
X285181Y137722D01*
X284681Y138222D02*
Y138484D01*
X278681Y130984D02*
Y136484D01*
Y130984D02*
X282181Y127484D01*
Y121984D02*
Y127484D01*
X272181Y131984D02*
X275681Y128484D01*
Y123484D02*
Y128484D01*
Y123484D02*
X279681Y119484D01*
X267866Y126299D02*
X278181Y115984D01*
X267866Y126299D02*
Y127299D01*
X267681Y127484D02*
X267866Y127299D01*
X264181Y119484D02*
X266681D01*
X273681Y112484D01*
X277181D01*
X262681Y113484D02*
X269681D01*
X274181Y108984D01*
X277181D01*
X262181Y108484D02*
X271681D01*
X274681Y105484D01*
X277181D01*
X262181Y104484D02*
X270181D01*
X273181Y101484D01*
X276681D01*
X262181Y100484D02*
X267681D01*
X271181Y96984D01*
X278681D01*
X263681Y90484D02*
X272681D01*
X275181Y92984D01*
X279681D01*
X281681Y94984D01*
X270681Y83984D02*
X278181Y91484D01*
X282181D01*
X283181Y92484D01*
X285681D01*
X286181Y89984D02*
X290181D01*
X276681Y80484D02*
X286181Y89984D01*
X285181Y77484D02*
X290181Y82484D01*
Y85484D01*
X294181Y89484D01*
D70*
X295454Y95885D02*
X301575Y89764D01*
X290905Y95885D02*
X295454D01*
X303543Y79921D02*
Y87795D01*
X301575Y89764D02*
X303543Y87795D01*
Y73228D02*
Y79921D01*
X296850Y66535D02*
X303543Y73228D01*
X301181Y139764D02*
X306299Y144882D01*
Y145276D01*
X301181Y136484D02*
Y139764D01*
X486681Y89621D02*
X519545D01*
X486468Y89834D02*
X486681Y89621D01*
X165016Y445484D02*
X168780Y449248D01*
X112181Y445484D02*
X165016D01*
X519545Y89621D02*
X519681Y89484D01*
X455681D02*
X485968D01*
X420681D02*
X455681D01*
X485968D02*
X486317Y89834D01*
X486468D01*
X370681Y89484D02*
X420681D01*
X290604Y96186D02*
X290905Y95885D01*
X288979Y96186D02*
X290604D01*
X283482Y101683D02*
X288979Y96186D01*
X283681Y102984D02*
Y110984D01*
Y102882D02*
Y102984D01*
X282482Y101683D02*
X283681Y102882D01*
X282482Y101683D02*
X283482D01*
X283681Y110984D02*
Y114484D01*
X288681Y119484D01*
X297431Y120734D02*
X297931D01*
X296181Y119484D02*
X297431Y120734D01*
X288681Y119484D02*
X296181D01*
X301181Y123984D02*
Y128484D01*
X297931Y120734D02*
X301181Y123984D01*
Y128484D02*
Y136484D01*
X370255Y89484D02*
X370681D01*
D71*
X228346Y78740D02*
Y79004D01*
X208661Y98689D02*
X228346Y79004D01*
X29181Y293984D02*
X208661Y114504D01*
Y98689D02*
Y114504D01*
X228346Y62205D02*
Y78740D01*
X435433Y50394D02*
Y66142D01*
X441339Y72047D02*
Y79528D01*
X435433Y66142D02*
X441339Y72047D01*
X420079Y66535D02*
X437555Y84012D01*
X451028D01*
X456299Y78740D01*
X3937Y336315D02*
Y453150D01*
Y336315D02*
X9859Y330393D01*
X3937Y453150D02*
X6693Y455905D01*
X362205Y66535D02*
X420079D01*
X246063Y44488D02*
X340158D01*
X362205Y66535D01*
X228346Y62205D02*
X246063Y44488D01*
X29181Y293984D02*
Y308984D01*
X18181Y319984D02*
X29181Y308984D01*
X9681Y319984D02*
X18181D01*
D73*
X312598Y468898D02*
X335827D01*
X522047Y464961D02*
Y464961D01*
Y263386D02*
Y464961D01*
X311811Y468110D02*
X312598Y468898D01*
X344488Y477559D02*
X509449D01*
X335827Y468898D02*
X344488Y477559D01*
X509449D02*
X522047Y464961D01*
X433777Y286109D02*
Y392428D01*
X377953Y230315D02*
X488976D01*
X522047Y263386D01*
X366535Y241732D02*
Y451968D01*
Y241732D02*
X377953Y230315D01*
X345669Y198972D02*
X355681Y208984D01*
X296681Y107984D02*
X341057D01*
X345669Y112597D02*
Y198972D01*
X341057Y107984D02*
X345669Y112597D01*
X483071Y462598D02*
X503150Y442520D01*
X377165Y462598D02*
X483071D01*
X411811Y265748D02*
X464003D01*
X405512Y272047D02*
Y416535D01*
Y272047D02*
X411811Y265748D01*
X414511Y425535D02*
X459561D01*
X457480Y281496D02*
X464173Y288189D01*
Y420922D01*
X459561Y425535D02*
X464173Y420922D01*
X438390Y281496D02*
X457480D01*
X405512Y416535D02*
X414511Y425535D01*
X433777Y286109D02*
X438390Y281496D01*
X482283Y284028D02*
Y430315D01*
X400000Y443701D02*
X468898D01*
X464003Y265748D02*
X482283Y284028D01*
X468898Y443701D02*
X482283Y430315D01*
X366535Y451968D02*
X377165Y462598D01*
X387008Y255512D02*
X394094Y248425D01*
X387008Y430709D02*
X400000Y443701D01*
X503150Y271260D02*
Y442520D01*
X394094Y248425D02*
X480315D01*
X503150Y271260D01*
X387008Y255512D02*
Y430709D01*
D79*
X488386Y62402D02*
D03*
X488583Y49606D02*
D03*
X9181Y438984D02*
D03*
X188878Y429185D02*
D03*
X188779Y416980D02*
D03*
X208780D02*
D03*
X208878Y429185D02*
D03*
X226878Y428685D02*
D03*
X226780Y416480D02*
D03*
X245779Y415980D02*
D03*
X245878Y428185D02*
D03*
X266378Y428685D02*
D03*
X266280Y416480D02*
D03*
X185181Y328984D02*
D03*
X10776Y271032D02*
D03*
X10874Y278611D02*
D03*
X11139Y244960D02*
D03*
X10646Y309330D02*
D03*
X10745Y286299D02*
D03*
X9859Y330393D02*
D03*
X10646Y302047D02*
D03*
X10745Y293779D02*
D03*
X10879Y236003D02*
D03*
X9681Y319984D02*
D03*
X10942Y260118D02*
D03*
X218110Y97244D02*
D03*
X198681Y308984D02*
D03*
D80*
X289138Y325028D02*
D03*
X316224D02*
D03*
Y297941D02*
D03*
X289138D02*
D03*
X269638Y271028D02*
D03*
X296724D02*
D03*
Y243941D02*
D03*
X269638D02*
D03*
X169638Y61528D02*
D03*
X196724D02*
D03*
Y34441D02*
D03*
X169638D02*
D03*
X386638Y48028D02*
D03*
X413724D02*
D03*
Y20941D02*
D03*
X386638D02*
D03*
X98638Y459028D02*
D03*
X125724D02*
D03*
Y431941D02*
D03*
X98638D02*
D03*
X292138Y393028D02*
D03*
X319224D02*
D03*
Y365941D02*
D03*
X292138D02*
D03*
D81*
X302681Y311484D02*
D03*
X283181Y257484D02*
D03*
X183181Y47984D02*
D03*
X400181Y34484D02*
D03*
X112181Y445484D02*
D03*
X305681Y379484D02*
D03*
D82*
X168583Y465390D02*
D03*
X168780Y449248D02*
D03*
X168583Y435390D02*
D03*
X168780Y419248D02*
D03*
X11006Y346789D02*
D03*
X11237Y357165D02*
D03*
X301575Y89764D02*
D03*
X303543Y79921D02*
D03*
X296850Y66535D02*
D03*
X306299Y145276D02*
D03*
X145669Y311024D02*
D03*
X243681Y264984D02*
D03*
X210681D02*
D03*
X123681Y420484D02*
D03*
X126181Y470984D02*
D03*
X133681D02*
D03*
X119181D02*
D03*
X131181Y419984D02*
D03*
X115681D02*
D03*
X519681Y89484D02*
D03*
X486681Y89984D02*
D03*
X455681Y89484D02*
D03*
X420681D02*
D03*
X290604Y96186D02*
D03*
X283681Y102984D02*
D03*
Y110984D02*
D03*
X288681Y119484D02*
D03*
X297931Y120734D02*
D03*
X370681Y89484D02*
D03*
X301181Y136484D02*
D03*
Y128484D02*
D03*
D83*
X210630Y81122D02*
D03*
X228346Y78740D02*
D03*
X211768Y64173D02*
D03*
X441339Y79528D02*
D03*
X448032D02*
D03*
X464173D02*
D03*
X435433Y50394D02*
D03*
X456299Y78740D02*
D03*
X114567Y328740D02*
D03*
X49213Y338976D02*
D03*
X215748Y210630D02*
D03*
X239370Y211024D02*
D03*
X6693Y455905D02*
D03*
X14567Y470472D02*
D03*
X76681Y434484D02*
D03*
X77181Y468484D02*
D03*
X121681Y314484D02*
D03*
X116181Y305484D02*
D03*
X227181Y250484D02*
D03*
D84*
X485827Y38583D02*
D03*
X518898Y20079D02*
D03*
X506299D02*
D03*
X494095Y20472D02*
D03*
X228346Y20866D02*
D03*
X240551Y20472D02*
D03*
X253150D02*
D03*
X20866Y161811D02*
D03*
Y174409D02*
D03*
X21260Y186614D02*
D03*
X311811Y468110D02*
D03*
X322047D02*
D03*
X433450Y382689D02*
D03*
X433777Y392428D02*
D03*
X180709Y487008D02*
D03*
X355681Y208984D02*
D03*
X296681Y107984D02*
D03*
D85*
X269181Y73484D02*
D03*
X294181Y89484D02*
D03*
X285181Y77484D02*
D03*
X290181Y89984D02*
D03*
X276681Y80484D02*
D03*
X285681Y92484D02*
D03*
X270681Y83984D02*
D03*
X281681Y94984D02*
D03*
X263681Y90484D02*
D03*
X278681Y96984D02*
D03*
X262181Y100484D02*
D03*
X276681Y101484D02*
D03*
X262181Y104484D02*
D03*
X277181Y105484D02*
D03*
X262181Y108484D02*
D03*
X277181Y108984D02*
D03*
X262681Y113484D02*
D03*
X277181Y112484D02*
D03*
X264181Y119484D02*
D03*
X278181Y115984D02*
D03*
X267681Y127484D02*
D03*
X279681Y119484D02*
D03*
X272181Y131984D02*
D03*
X282181Y121984D02*
D03*
X278681Y136484D02*
D03*
X285181Y125484D02*
D03*
X284681Y138484D02*
D03*
X289181Y125484D02*
D03*
Y139484D02*
D03*
X292681Y125484D02*
D03*
Y139984D02*
D03*
X296181Y125984D02*
D03*
Y139984D02*
D03*
X203181Y308484D02*
D03*
X174181Y294484D02*
D03*
X183681Y345984D02*
D03*
X171681D02*
D03*
X158681D02*
D03*
X148181D02*
D03*
X222681Y283984D02*
D03*
Y287984D02*
D03*
X219681Y283984D02*
D03*
Y287984D02*
D03*
X249181Y328484D02*
D03*
Y332484D02*
D03*
Y323984D02*
D03*
Y318984D02*
D03*
X174181Y333484D02*
D03*
Y336984D02*
D03*
X165181Y294484D02*
D03*
X156181D02*
D03*
M02*
