G04*
G04 #@! TF.GenerationSoftware,Altium Limited,Altium Designer,20.2.7 (254)*
G04*
G04 Layer_Physical_Order=3*
G04 Layer_Color=16440176*
%FSLAX25Y25*%
%MOIN*%
G70*
G04*
G04 #@! TF.SameCoordinates,445C0D7E-7E36-472A-9239-D9981030C948*
G04*
G04*
G04 #@! TF.FilePolarity,Positive*
G04*
G01*
G75*
%ADD82C,0.04724*%
%ADD83C,0.14173*%
%ADD84R,0.07677X0.07677*%
%ADD85C,0.03937*%
%ADD86C,0.07874*%
%ADD87C,0.05000*%
%ADD88C,0.02362*%
%ADD89C,0.01968*%
G36*
X329528Y475252D02*
X329197Y475134D01*
X329028Y475114D01*
X327542Y476334D01*
X325832Y477247D01*
X323977Y477810D01*
X322047Y478000D01*
X320118Y477810D01*
X318262Y477247D01*
X316929Y476535D01*
X315596Y477247D01*
X313740Y477810D01*
X311811Y478000D01*
X309882Y477810D01*
X308026Y477247D01*
X306316Y476334D01*
X304818Y475104D01*
X303588Y473605D01*
X302674Y471895D01*
X302111Y470040D01*
X301921Y468110D01*
X302111Y466181D01*
X302674Y464325D01*
X303588Y462616D01*
X304818Y461117D01*
X306316Y459887D01*
X308026Y458973D01*
X309882Y458410D01*
X311811Y458220D01*
X313740Y458410D01*
X315596Y458973D01*
X316929Y459686D01*
X318262Y458973D01*
X320118Y458410D01*
X322047Y458220D01*
X323977Y458410D01*
X325832Y458973D01*
X327542Y459887D01*
X329028Y461106D01*
X329197Y461086D01*
X329528Y460968D01*
Y185433D01*
Y177559D01*
X325626Y176736D01*
X296681Y177100D01*
Y158484D01*
X290681D01*
Y177176D01*
X266181Y177484D01*
X246181D01*
X246181Y92984D01*
X254181D01*
X263681Y83484D01*
Y64984D01*
X272181D01*
X281181Y55984D01*
X340805D01*
X370752Y93977D01*
X548681Y92986D01*
X548681Y984D01*
X548181Y484D01*
X288733D01*
X288634Y984D01*
X536D01*
X183Y1339D01*
X1187Y179167D01*
Y405124D01*
X2362Y406299D01*
Y416535D01*
X1575D01*
Y490551D01*
X171078D01*
X171376Y490150D01*
X171009Y488937D01*
X170818Y487008D01*
X171009Y485078D01*
X171571Y483223D01*
X172485Y481513D01*
X173715Y480015D01*
X175214Y478785D01*
X176924Y477871D01*
X178779Y477308D01*
X180709Y477118D01*
X182638Y477308D01*
X184494Y477871D01*
X186203Y478785D01*
X187702Y480015D01*
X188932Y481513D01*
X189846Y483223D01*
X190409Y485078D01*
X190599Y487008D01*
X190409Y488937D01*
X190041Y490150D01*
X190339Y490551D01*
X329528D01*
Y475252D01*
D02*
G37*
%LPC*%
G36*
X77181Y472015D02*
X76267Y471894D01*
X75416Y471542D01*
X74685Y470981D01*
X74124Y470249D01*
X73771Y469398D01*
X73651Y468484D01*
X73771Y467571D01*
X74124Y466719D01*
X74685Y465988D01*
X75416Y465427D01*
X76267Y465074D01*
X77181Y464954D01*
X78095Y465074D01*
X78946Y465427D01*
X79677Y465988D01*
X80238Y466719D01*
X80591Y467571D01*
X80711Y468484D01*
X80591Y469398D01*
X80238Y470249D01*
X79677Y470981D01*
X78946Y471542D01*
X78095Y471894D01*
X77181Y472015D01*
D02*
G37*
G36*
X6693Y459436D02*
X5779Y459315D01*
X4928Y458963D01*
X4197Y458402D01*
X3636Y457671D01*
X3283Y456819D01*
X3163Y455905D01*
X3283Y454992D01*
X3636Y454140D01*
X4197Y453409D01*
X4928Y452848D01*
X5779Y452496D01*
X6693Y452375D01*
X7607Y452496D01*
X8458Y452848D01*
X9189Y453409D01*
X9750Y454140D01*
X10103Y454992D01*
X10223Y455905D01*
X10103Y456819D01*
X9750Y457671D01*
X9189Y458402D01*
X8458Y458963D01*
X7607Y459315D01*
X6693Y459436D01*
D02*
G37*
G36*
X9181Y442376D02*
X8303Y442260D01*
X7485Y441921D01*
X6783Y441382D01*
X6244Y440680D01*
X5905Y439862D01*
X5790Y438984D01*
X5905Y438106D01*
X6244Y437289D01*
X6783Y436586D01*
X7485Y436047D01*
X8303Y435709D01*
X9181Y435593D01*
X10059Y435709D01*
X10877Y436047D01*
X11579Y436586D01*
X12118Y437289D01*
X12457Y438106D01*
X12572Y438984D01*
X12457Y439862D01*
X12118Y440680D01*
X11579Y441382D01*
X10877Y441921D01*
X10059Y442260D01*
X9181Y442376D01*
D02*
G37*
G36*
X76681Y438015D02*
X75767Y437894D01*
X74916Y437541D01*
X74185Y436980D01*
X73624Y436249D01*
X73271Y435398D01*
X73151Y434484D01*
X73271Y433571D01*
X73624Y432719D01*
X74185Y431988D01*
X74916Y431427D01*
X75767Y431074D01*
X76681Y430954D01*
X77595Y431074D01*
X78446Y431427D01*
X79177Y431988D01*
X79738Y432719D01*
X80091Y433571D01*
X80211Y434484D01*
X80091Y435398D01*
X79738Y436249D01*
X79177Y436980D01*
X78446Y437541D01*
X77595Y437894D01*
X76681Y438015D01*
D02*
G37*
G36*
X103150Y416929D02*
X102756Y416535D01*
X103543D01*
X103150Y416929D01*
D02*
G37*
G36*
X168583Y473302D02*
X167039Y473150D01*
X165555Y472700D01*
X164187Y471968D01*
X162988Y470985D01*
X162004Y469785D01*
X161273Y468418D01*
X160823Y466933D01*
X160671Y465390D01*
X160823Y463846D01*
X161273Y462362D01*
X162004Y460994D01*
X162988Y459795D01*
X164187Y458811D01*
X165555Y458080D01*
X167039Y457630D01*
X167742Y457560D01*
Y457058D01*
X167236Y457008D01*
X165752Y456558D01*
X164384Y455827D01*
X164000Y455512D01*
X101575D01*
Y436221D01*
X102437D01*
Y435740D01*
X121925D01*
Y436221D01*
X128740D01*
X129134Y436614D01*
X137008Y428740D01*
X164320D01*
X165555Y428080D01*
X167039Y427630D01*
X167742Y427560D01*
Y427058D01*
X167236Y427008D01*
X165752Y426558D01*
X164384Y425827D01*
X163185Y424843D01*
X162201Y423644D01*
X161470Y422276D01*
X161020Y420792D01*
X160867Y419248D01*
X161020Y417704D01*
X161470Y416220D01*
X162201Y414852D01*
X163185Y413653D01*
X164384Y412669D01*
X165752Y411938D01*
X167236Y411488D01*
X168780Y411336D01*
X170323Y411488D01*
X171807Y411938D01*
X173175Y412669D01*
X174374Y413653D01*
X175358Y414852D01*
X176089Y416220D01*
X176540Y417704D01*
X176692Y419248D01*
X176540Y420792D01*
X176089Y422276D01*
X175358Y423644D01*
X174374Y424843D01*
X173175Y425827D01*
X171807Y426558D01*
X170323Y427008D01*
X169620Y427077D01*
Y427580D01*
X170126Y427630D01*
X171610Y428080D01*
X172846Y428740D01*
X178347D01*
Y453937D01*
X179528Y455118D01*
X179134Y455512D01*
X173559D01*
X173175Y455827D01*
X171807Y456558D01*
X170323Y457008D01*
X169620Y457077D01*
Y457580D01*
X170126Y457630D01*
X171610Y458080D01*
X172978Y458811D01*
X174177Y459795D01*
X175161Y460994D01*
X175892Y462362D01*
X176343Y463846D01*
X176495Y465390D01*
X176343Y466933D01*
X175892Y468418D01*
X175161Y469785D01*
X174177Y470985D01*
X172978Y471968D01*
X171610Y472700D01*
X170126Y473150D01*
X168583Y473302D01*
D02*
G37*
G36*
X208878Y437493D02*
X207257Y437333D01*
X205699Y436860D01*
X204262Y436093D01*
X203004Y435059D01*
X201970Y433801D01*
X201203Y432364D01*
X200730Y430806D01*
X200570Y429185D01*
X200730Y427564D01*
X201203Y426006D01*
X201970Y424570D01*
X203004Y423311D01*
Y423287D01*
X202851Y422789D01*
X201872Y421596D01*
X201104Y420159D01*
X200631Y418601D01*
X200472Y416980D01*
X200631Y415360D01*
X201104Y413801D01*
X201872Y412365D01*
X202905Y411106D01*
X204164Y410073D01*
X205600Y409305D01*
X207159Y408832D01*
X208780Y408673D01*
X210400Y408832D01*
X211959Y409305D01*
X213395Y410073D01*
X214654Y411106D01*
X215687Y412365D01*
X216455Y413801D01*
X216928Y415360D01*
X217087Y416980D01*
X216928Y418601D01*
X216455Y420159D01*
X215687Y421596D01*
X214654Y422855D01*
Y422878D01*
X214806Y423377D01*
X215786Y424570D01*
X216553Y426006D01*
X217026Y427564D01*
X217186Y429185D01*
X217026Y430806D01*
X216553Y432364D01*
X215786Y433801D01*
X214752Y435059D01*
X213493Y436093D01*
X212057Y436860D01*
X210499Y437333D01*
X208878Y437493D01*
D02*
G37*
G36*
X188878D02*
X187257Y437333D01*
X185699Y436860D01*
X184262Y436093D01*
X183003Y435059D01*
X181970Y433801D01*
X181203Y432364D01*
X180730Y430806D01*
X180570Y429185D01*
X180730Y427564D01*
X181203Y426006D01*
X181970Y424570D01*
X183003Y423311D01*
Y423287D01*
X182851Y422789D01*
X181872Y421596D01*
X181104Y420159D01*
X180631Y418601D01*
X180472Y416980D01*
X180631Y415360D01*
X181104Y413801D01*
X181872Y412365D01*
X182905Y411106D01*
X184164Y410073D01*
X185600Y409305D01*
X187159Y408832D01*
X188779Y408673D01*
X190400Y408832D01*
X191959Y409305D01*
X193395Y410073D01*
X194654Y411106D01*
X195687Y412365D01*
X196455Y413801D01*
X196928Y415360D01*
X197087Y416980D01*
X196928Y418601D01*
X196455Y420159D01*
X195687Y421596D01*
X194654Y422855D01*
Y422878D01*
X194806Y423377D01*
X195786Y424570D01*
X196553Y426006D01*
X197026Y427564D01*
X197186Y429185D01*
X197026Y430806D01*
X196553Y432364D01*
X195786Y433801D01*
X194752Y435059D01*
X193493Y436093D01*
X192057Y436860D01*
X190499Y437333D01*
X188878Y437493D01*
D02*
G37*
G36*
X266378Y436993D02*
X264757Y436833D01*
X263199Y436360D01*
X261762Y435593D01*
X260504Y434559D01*
X259470Y433301D01*
X258703Y431864D01*
X258230Y430306D01*
X258070Y428685D01*
X258230Y427064D01*
X258703Y425506D01*
X259470Y424069D01*
X260504Y422811D01*
Y422787D01*
X260351Y422289D01*
X259372Y421096D01*
X258604Y419660D01*
X258131Y418101D01*
X257972Y416480D01*
X258131Y414860D01*
X258604Y413301D01*
X259372Y411865D01*
X260405Y410606D01*
X261664Y409573D01*
X263100Y408805D01*
X264659Y408332D01*
X266280Y408173D01*
X267900Y408332D01*
X269459Y408805D01*
X270895Y409573D01*
X272154Y410606D01*
X273187Y411865D01*
X273955Y413301D01*
X274428Y414860D01*
X274587Y416480D01*
X274428Y418101D01*
X273955Y419660D01*
X273187Y421096D01*
X272154Y422355D01*
Y422378D01*
X272306Y422877D01*
X273286Y424069D01*
X274053Y425506D01*
X274526Y427064D01*
X274686Y428685D01*
X274526Y430306D01*
X274053Y431864D01*
X273286Y433301D01*
X272252Y434559D01*
X270993Y435593D01*
X269557Y436360D01*
X267999Y436833D01*
X266378Y436993D01*
D02*
G37*
G36*
X226878D02*
X225257Y436833D01*
X223699Y436360D01*
X222262Y435593D01*
X221004Y434559D01*
X219970Y433301D01*
X219203Y431864D01*
X218730Y430306D01*
X218570Y428685D01*
X218730Y427064D01*
X219203Y425506D01*
X219970Y424069D01*
X221004Y422811D01*
Y422787D01*
X220851Y422289D01*
X219872Y421096D01*
X219104Y419660D01*
X218631Y418101D01*
X218472Y416480D01*
X218631Y414860D01*
X219104Y413301D01*
X219872Y411865D01*
X220905Y410606D01*
X222164Y409573D01*
X223600Y408805D01*
X225159Y408332D01*
X226780Y408173D01*
X228400Y408332D01*
X229959Y408805D01*
X231395Y409573D01*
X232654Y410606D01*
X233687Y411865D01*
X234455Y413301D01*
X234928Y414860D01*
X235087Y416480D01*
X234928Y418101D01*
X234455Y419660D01*
X233687Y421096D01*
X232654Y422355D01*
Y422378D01*
X232806Y422877D01*
X233786Y424069D01*
X234553Y425506D01*
X235026Y427064D01*
X235186Y428685D01*
X235026Y430306D01*
X234553Y431864D01*
X233786Y433301D01*
X232752Y434559D01*
X231493Y435593D01*
X230057Y436360D01*
X228499Y436833D01*
X226878Y436993D01*
D02*
G37*
G36*
X245878Y436493D02*
X244257Y436333D01*
X242699Y435860D01*
X241262Y435093D01*
X240003Y434059D01*
X238970Y432801D01*
X238203Y431364D01*
X237730Y429806D01*
X237570Y428185D01*
X237730Y426564D01*
X238203Y425006D01*
X238970Y423569D01*
X240003Y422311D01*
Y422287D01*
X239851Y421789D01*
X238872Y420596D01*
X238104Y419160D01*
X237631Y417601D01*
X237472Y415980D01*
X237631Y414360D01*
X238104Y412801D01*
X238872Y411365D01*
X239905Y410106D01*
X241164Y409073D01*
X242600Y408305D01*
X244159Y407832D01*
X245779Y407673D01*
X247400Y407832D01*
X248959Y408305D01*
X250395Y409073D01*
X251654Y410106D01*
X252687Y411365D01*
X253455Y412801D01*
X253928Y414360D01*
X254087Y415980D01*
X253928Y417601D01*
X253455Y419160D01*
X252687Y420596D01*
X251654Y421855D01*
Y421878D01*
X251806Y422376D01*
X252786Y423569D01*
X253553Y425006D01*
X254026Y426564D01*
X254186Y428185D01*
X254026Y429806D01*
X253553Y431364D01*
X252786Y432801D01*
X251752Y434059D01*
X250494Y435093D01*
X249057Y435860D01*
X247499Y436333D01*
X245878Y436493D01*
D02*
G37*
G36*
X315425Y389228D02*
X295937D01*
Y369740D01*
X315425D01*
Y389228D01*
D02*
G37*
G36*
X183681Y352907D02*
X182331Y352774D01*
X181032Y352380D01*
X179835Y351741D01*
X178786Y350880D01*
X177973Y349889D01*
X177681Y349854D01*
X177389Y349889D01*
X176576Y350880D01*
X175527Y351741D01*
X174330Y352380D01*
X173032Y352774D01*
X171681Y352907D01*
X170331Y352774D01*
X169032Y352380D01*
X167835Y351741D01*
X166786Y350880D01*
X165925Y349831D01*
X165465Y348970D01*
X164898D01*
X164437Y349831D01*
X163576Y350880D01*
X162527Y351741D01*
X161330Y352380D01*
X160032Y352774D01*
X158681Y352907D01*
X157331Y352774D01*
X156032Y352380D01*
X154835Y351741D01*
X153786Y350880D01*
X153681Y350752D01*
X153181D01*
X153077Y350880D01*
X152027Y351741D01*
X150830Y352380D01*
X149532Y352774D01*
X148181Y352907D01*
X146830Y352774D01*
X145532Y352380D01*
X144335Y351741D01*
X143286Y350880D01*
X142425Y349831D01*
X141785Y348634D01*
X141391Y347335D01*
X141258Y345984D01*
X141391Y344634D01*
X141785Y343335D01*
X142425Y342138D01*
X143286Y341089D01*
X144335Y340228D01*
X145532Y339588D01*
X146830Y339194D01*
X148181Y339061D01*
X149532Y339194D01*
X150830Y339588D01*
X150882Y339616D01*
D01*
X152027Y340228D01*
X153077Y341089D01*
X153181Y341216D01*
X153681D01*
X153786Y341089D01*
X154835Y340228D01*
X156032Y339588D01*
X157331Y339194D01*
X158681Y339061D01*
X160032Y339194D01*
X161330Y339588D01*
X162527Y340228D01*
X163576Y341089D01*
X164437Y342138D01*
X164898Y342999D01*
X165465D01*
X165925Y342138D01*
X166786Y341089D01*
X167835Y340228D01*
X168043Y340117D01*
X167785Y339634D01*
X167391Y338335D01*
X167258Y336984D01*
X167391Y335634D01*
X167512Y335234D01*
X167391Y334835D01*
X167258Y333484D01*
X167391Y332134D01*
X167785Y330835D01*
X168425Y329638D01*
X169286Y328589D01*
X170335Y327728D01*
X171532Y327088D01*
X172830Y326694D01*
X174181Y326561D01*
X175532Y326694D01*
X176830Y327088D01*
X177201Y327286D01*
D01*
X178027Y327728D01*
X179077Y328589D01*
X179937Y329638D01*
X180577Y330835D01*
X180971Y332134D01*
X181104Y333484D01*
X180971Y334835D01*
X180850Y335234D01*
X180971Y335634D01*
X181104Y336984D01*
X180971Y338335D01*
X180711Y339193D01*
X180881Y339402D01*
X181122Y339561D01*
X182331Y339194D01*
X183681Y339061D01*
X185032Y339194D01*
X186330Y339588D01*
X187527Y340228D01*
X188576Y341089D01*
X189437Y342138D01*
X190077Y343335D01*
X190471Y344634D01*
X190604Y345984D01*
X190471Y347335D01*
X190077Y348634D01*
X189437Y349831D01*
X188576Y350880D01*
X187527Y351741D01*
X186330Y352380D01*
X185032Y352774D01*
X183681Y352907D01*
D02*
G37*
G36*
X11237Y365077D02*
X9693Y364925D01*
X8209Y364475D01*
X6841Y363744D01*
X6012Y363063D01*
D01*
X5642Y362760D01*
X4658Y361561D01*
X3927Y360193D01*
X3477Y358709D01*
X3325Y357165D01*
X3477Y355622D01*
X3927Y354137D01*
X4658Y352769D01*
X5193Y352118D01*
X4428Y351185D01*
X3696Y349817D01*
X3246Y348333D01*
X3094Y346789D01*
X3246Y345246D01*
X3696Y343761D01*
X4428Y342393D01*
X5412Y341195D01*
X5964Y340741D01*
D01*
X6611Y340211D01*
X7978Y339479D01*
X9463Y339029D01*
X11006Y338877D01*
X12550Y339029D01*
X14034Y339479D01*
X15402Y340211D01*
X16601Y341195D01*
X17585Y342393D01*
X18316Y343761D01*
X18766Y345246D01*
X18918Y346789D01*
X18766Y348333D01*
X18316Y349817D01*
X17585Y351185D01*
X17050Y351836D01*
X17816Y352769D01*
X18547Y354137D01*
X18997Y355622D01*
X19149Y357165D01*
X18997Y358709D01*
X18547Y360193D01*
X17816Y361561D01*
X16832Y362760D01*
X15633Y363744D01*
X14265Y364475D01*
X12781Y364925D01*
X11237Y365077D01*
D02*
G37*
G36*
X9859Y333785D02*
X8981Y333669D01*
X8163Y333330D01*
X7461Y332791D01*
X6922Y332089D01*
X6583Y331271D01*
X6468Y330393D01*
X6583Y329516D01*
X6922Y328698D01*
X7461Y327995D01*
X8163Y327456D01*
X8981Y327118D01*
X9859Y327002D01*
X10737Y327118D01*
X11555Y327456D01*
X12257Y327995D01*
X12796Y328698D01*
X13135Y329516D01*
X13250Y330393D01*
X13135Y331271D01*
X12796Y332089D01*
X12257Y332791D01*
X11555Y333330D01*
X10737Y333669D01*
X9859Y333785D01*
D02*
G37*
G36*
X185181Y332376D02*
X184303Y332260D01*
X183485Y331921D01*
X182783Y331382D01*
X182244Y330680D01*
X181905Y329862D01*
X181790Y328984D01*
X181905Y328106D01*
X182244Y327289D01*
X182783Y326586D01*
X183485Y326047D01*
X184303Y325709D01*
X185181Y325593D01*
X186059Y325709D01*
X186877Y326047D01*
X187579Y326586D01*
X188118Y327289D01*
X188457Y328106D01*
X188572Y328984D01*
X188457Y329862D01*
X188118Y330680D01*
X187579Y331382D01*
X186877Y331921D01*
X186059Y332260D01*
X185181Y332376D01*
D02*
G37*
G36*
X9681Y323376D02*
X8803Y323260D01*
X7986Y322921D01*
X7283Y322382D01*
X6744Y321680D01*
X6405Y320862D01*
X6290Y319984D01*
X6405Y319107D01*
X6744Y318289D01*
X7283Y317586D01*
X7986Y317047D01*
X8803Y316709D01*
X9681Y316593D01*
X10559Y316709D01*
X11377Y317047D01*
X12079Y317586D01*
X12618Y318289D01*
X12957Y319107D01*
X13072Y319984D01*
X12957Y320862D01*
X12618Y321680D01*
X12079Y322382D01*
X11377Y322921D01*
X10559Y323260D01*
X9681Y323376D01*
D02*
G37*
G36*
X249181Y339407D02*
X247831Y339274D01*
X246532Y338880D01*
X245335Y338241D01*
X244286Y337380D01*
X243425Y336331D01*
X242785Y335134D01*
X242391Y333835D01*
X242258Y332484D01*
X242391Y331134D01*
X242588Y330484D01*
X242391Y329835D01*
X242258Y328484D01*
X242391Y327134D01*
X242664Y326234D01*
X242391Y325335D01*
X242258Y323984D01*
X242391Y322634D01*
X242740Y321484D01*
X242391Y320335D01*
X242258Y318984D01*
X242391Y317634D01*
X242785Y316335D01*
X243425Y315138D01*
X244286Y314089D01*
X245335Y313228D01*
X246532Y312588D01*
X247831Y312194D01*
X249181Y312061D01*
X250532Y312194D01*
X251831Y312588D01*
X253027Y313228D01*
X254077Y314089D01*
X254937Y315138D01*
X255577Y316335D01*
X255971Y317634D01*
X256104Y318984D01*
X255971Y320335D01*
X255623Y321484D01*
X255971Y322634D01*
X256104Y323984D01*
X255971Y325335D01*
X255698Y326234D01*
X255971Y327134D01*
X256104Y328484D01*
X255971Y329835D01*
X255774Y330484D01*
X255971Y331134D01*
X256104Y332484D01*
X255971Y333835D01*
X255577Y335134D01*
X254937Y336331D01*
X254077Y337380D01*
X253027Y338241D01*
X251831Y338880D01*
X250532Y339274D01*
X249181Y339407D01*
D02*
G37*
G36*
X121681Y318014D02*
X120767Y317894D01*
X119916Y317542D01*
X119185Y316981D01*
X118624Y316249D01*
X118271Y315398D01*
X118151Y314484D01*
X118271Y313571D01*
X118624Y312719D01*
X119185Y311988D01*
X119916Y311427D01*
X120767Y311074D01*
X121681Y310954D01*
X122595Y311074D01*
X123446Y311427D01*
X123572Y311524D01*
X124177Y311988D01*
X124738Y312719D01*
X125091Y313571D01*
X125211Y314484D01*
X125091Y315398D01*
X124738Y316249D01*
X124177Y316981D01*
X123446Y317542D01*
X122595Y317894D01*
X121681Y318014D01*
D02*
G37*
G36*
X116181Y309014D02*
X115267Y308894D01*
X114416Y308541D01*
X113685Y307980D01*
X113124Y307249D01*
X112771Y306398D01*
X112651Y305484D01*
X112771Y304571D01*
X113124Y303719D01*
X113685Y302988D01*
X114416Y302427D01*
X115267Y302074D01*
X116181Y301954D01*
X117095Y302074D01*
X117946Y302427D01*
X118677Y302988D01*
X119238Y303719D01*
X119591Y304571D01*
X119711Y305484D01*
X119591Y306398D01*
X119238Y307249D01*
X118677Y307980D01*
X117946Y308541D01*
X117095Y308894D01*
X116181Y309014D01*
D02*
G37*
G36*
X312425Y321228D02*
X292937D01*
Y301740D01*
X312425D01*
Y321228D01*
D02*
G37*
G36*
X174181Y301407D02*
X172830Y301274D01*
X171532Y300880D01*
X170335Y300241D01*
X169681Y299704D01*
X169027Y300241D01*
X167831Y300880D01*
X166532Y301274D01*
X165181Y301407D01*
X163830Y301274D01*
X162532Y300880D01*
X161335Y300241D01*
X160681Y299704D01*
X160027Y300241D01*
X158830Y300880D01*
X157532Y301274D01*
X156181Y301407D01*
X154831Y301274D01*
X153532Y300880D01*
X152335Y300241D01*
X151286Y299380D01*
X150425Y298330D01*
X149785Y297134D01*
X149391Y295835D01*
X149258Y294484D01*
X149391Y293134D01*
X149785Y291835D01*
X150425Y290638D01*
X151286Y289589D01*
X152335Y288728D01*
X153532Y288088D01*
X154831Y287694D01*
X156181Y287561D01*
X157532Y287694D01*
X158830Y288088D01*
X160027Y288728D01*
X160681Y289264D01*
X161335Y288728D01*
X162532Y288088D01*
X163830Y287694D01*
X165181Y287561D01*
X166532Y287694D01*
X167831Y288088D01*
X169027Y288728D01*
X169681Y289264D01*
X170335Y288728D01*
X171532Y288088D01*
X172830Y287694D01*
X174181Y287561D01*
X175532Y287694D01*
X176830Y288088D01*
X178027Y288728D01*
X179077Y289589D01*
X179937Y290638D01*
X180577Y291835D01*
X180971Y293134D01*
X181104Y294484D01*
X180971Y295835D01*
X180577Y297134D01*
X179937Y298330D01*
X179077Y299380D01*
X178027Y300241D01*
X176830Y300880D01*
X175532Y301274D01*
X174181Y301407D01*
D02*
G37*
G36*
X10942Y263509D02*
X10064Y263393D01*
X9246Y263055D01*
X8544Y262516D01*
X8005Y261813D01*
X7666Y260996D01*
X7551Y260118D01*
X7666Y259240D01*
X8005Y258422D01*
X8544Y257720D01*
X9246Y257181D01*
X10064Y256842D01*
X10942Y256727D01*
X11819Y256842D01*
X12637Y257181D01*
X13340Y257720D01*
X13879Y258422D01*
X14217Y259240D01*
X14333Y260118D01*
X14217Y260996D01*
X13879Y261813D01*
X13340Y262516D01*
X12637Y263055D01*
X11819Y263393D01*
X10942Y263509D01*
D02*
G37*
G36*
X288020Y262323D02*
X278343D01*
Y252646D01*
X288020D01*
Y262323D01*
D02*
G37*
G36*
X245681Y304484D02*
X215181D01*
X203681Y292984D01*
Y235484D01*
X249181D01*
Y300595D01*
X249531Y300634D01*
X245681Y304484D01*
D02*
G37*
G36*
X11139Y253268D02*
X9518Y253108D01*
X7959Y252636D01*
X6523Y251868D01*
X5264Y250835D01*
X4231Y249576D01*
X3463Y248140D01*
X2991Y246581D01*
X2831Y244960D01*
X2991Y243340D01*
X3463Y241781D01*
X4040Y240702D01*
X3971Y240619D01*
X3203Y239182D01*
X2731Y237624D01*
X2571Y236003D01*
X2731Y234382D01*
X3203Y232824D01*
X3971Y231388D01*
X5004Y230129D01*
X6263Y229096D01*
X7699Y228328D01*
X9258Y227855D01*
X10879Y227695D01*
X12499Y227855D01*
X14058Y228328D01*
X15494Y229096D01*
X16753Y230129D01*
X17786Y231388D01*
X18554Y232824D01*
X19027Y234382D01*
X19186Y236003D01*
X19027Y237624D01*
X18554Y239182D01*
X17977Y240261D01*
X18046Y240345D01*
X18814Y241781D01*
X19287Y243340D01*
X19446Y244960D01*
X19287Y246581D01*
X18814Y248140D01*
X18046Y249576D01*
X17013Y250835D01*
X15754Y251868D01*
X14318Y252636D01*
X12759Y253108D01*
X11139Y253268D01*
D02*
G37*
G36*
X250787Y311024D02*
X209449D01*
X192126Y293701D01*
Y231890D01*
X196850Y227165D01*
X246457D01*
Y211024D01*
X246417Y210984D01*
X260236D01*
Y214984D01*
X249334D01*
X249143Y215446D01*
X249181Y215484D01*
Y230484D01*
X249181D01*
Y230484D01*
X202181D01*
X196681Y235984D01*
Y290484D01*
X214681Y308484D01*
X247681D01*
X254931Y301234D01*
X255309Y301276D01*
X255681Y300943D01*
Y234484D01*
X256181Y233984D01*
Y222484D01*
X260236D01*
Y300787D01*
X250394Y310630D01*
X250787Y311024D01*
D02*
G37*
G36*
X239370Y214554D02*
X238456Y214434D01*
X237605Y214081D01*
X236874Y213520D01*
X236313Y212789D01*
X235960Y211937D01*
X235840Y211024D01*
X235960Y210110D01*
X236313Y209259D01*
X236874Y208527D01*
X237605Y207966D01*
X238456Y207614D01*
X239370Y207493D01*
X240284Y207614D01*
X241135Y207966D01*
X241866Y208527D01*
X242427Y209259D01*
X242780Y210110D01*
X242895Y210984D01*
X242900Y211024D01*
X242780Y211937D01*
X242427Y212789D01*
X241866Y213520D01*
X241135Y214081D01*
X240284Y214434D01*
X239370Y214554D01*
D02*
G37*
G36*
X215181Y102014D02*
X214267Y101894D01*
X213416Y101541D01*
X212685Y100980D01*
X212124Y100249D01*
X211771Y99398D01*
X211651Y98484D01*
X211771Y97571D01*
X212124Y96719D01*
X212685Y95988D01*
X213416Y95427D01*
X214267Y95074D01*
X215181Y94954D01*
X216095Y95074D01*
X216946Y95427D01*
X217677Y95988D01*
X218238Y96719D01*
X218591Y97571D01*
X218711Y98484D01*
X218591Y99398D01*
X218238Y100249D01*
X217677Y100980D01*
X216946Y101541D01*
X216095Y101894D01*
X215181Y102014D01*
D02*
G37*
G36*
X211417Y72303D02*
X210566Y72133D01*
X210039Y71781D01*
X209512Y72133D01*
X208661Y72303D01*
X207810Y72133D01*
X207089Y71651D01*
X206607Y70930D01*
X206438Y70079D01*
X206607Y69228D01*
X207089Y68506D01*
X207810Y68024D01*
X208661Y67855D01*
X209512Y68024D01*
X210039Y68376D01*
X210566Y68024D01*
X211417Y67855D01*
X212268Y68024D01*
X212990Y68506D01*
X213472Y69228D01*
X213641Y70079D01*
X213472Y70930D01*
X212990Y71651D01*
X212268Y72133D01*
X211417Y72303D01*
D02*
G37*
G36*
X470079Y77940D02*
X469165Y77819D01*
X468314Y77467D01*
X467583Y76906D01*
X467022Y76174D01*
X466669Y75323D01*
X466548Y74410D01*
X466669Y73496D01*
X467022Y72644D01*
X467583Y71913D01*
X468314Y71352D01*
X469165Y70999D01*
X470079Y70879D01*
X470992Y70999D01*
X471844Y71352D01*
X472575Y71913D01*
X473136Y72644D01*
X473489Y73496D01*
X473609Y74410D01*
X473489Y75323D01*
X473136Y76174D01*
X472575Y76906D01*
X471844Y77467D01*
X470992Y77819D01*
X470079Y77940D01*
D02*
G37*
G36*
X487681Y66875D02*
X486803Y66760D01*
X485986Y66421D01*
X485283Y65882D01*
X484744Y65180D01*
X484405Y64362D01*
X484290Y63484D01*
X484405Y62607D01*
X484744Y61789D01*
X485283Y61086D01*
X485986Y60547D01*
X486803Y60209D01*
X487681Y60093D01*
X488559Y60209D01*
X489377Y60547D01*
X490079Y61086D01*
X490618Y61789D01*
X490957Y62607D01*
X491072Y63484D01*
X490957Y64362D01*
X490618Y65180D01*
X490079Y65882D01*
X489377Y66421D01*
X488559Y66760D01*
X487681Y66875D01*
D02*
G37*
G36*
X434252Y63766D02*
X433338Y63646D01*
X432487Y63293D01*
X431756Y62732D01*
X431195Y62001D01*
X430842Y61150D01*
X430722Y60236D01*
X430842Y59323D01*
X431195Y58471D01*
X431756Y57740D01*
X432487Y57179D01*
X433338Y56826D01*
X434252Y56706D01*
X435166Y56826D01*
X436017Y57179D01*
X436748Y57740D01*
X437309Y58471D01*
X437662Y59323D01*
X437782Y60236D01*
X437662Y61150D01*
X437309Y62001D01*
X436748Y62732D01*
X436017Y63293D01*
X435166Y63646D01*
X434252Y63766D01*
D02*
G37*
G36*
X439988Y48838D02*
X439137Y48669D01*
X438416Y48187D01*
X438302Y48016D01*
X437802D01*
X437793Y48029D01*
X437072Y48511D01*
X436221Y48680D01*
X435369Y48511D01*
X434648Y48029D01*
X434166Y47308D01*
X433997Y46457D01*
X434166Y45606D01*
X434648Y44884D01*
X435369Y44402D01*
X436221Y44233D01*
X437072Y44402D01*
X437793Y44884D01*
X437907Y45055D01*
X438407D01*
X438416Y45042D01*
X439137Y44560D01*
X439988Y44390D01*
X440839Y44560D01*
X441561Y45042D01*
X442043Y45763D01*
X442212Y46614D01*
X442043Y47465D01*
X441561Y48187D01*
X440839Y48669D01*
X439988Y48838D01*
D02*
G37*
G36*
X188020Y52823D02*
X178342D01*
Y43146D01*
X188020D01*
Y52823D01*
D02*
G37*
G36*
X405020Y39323D02*
X395342D01*
Y29646D01*
X405020D01*
Y39323D01*
D02*
G37*
G36*
X228346Y25846D02*
X227058Y25676D01*
X225857Y25179D01*
X224825Y24387D01*
X224034Y23356D01*
X223536Y22155D01*
X223367Y20866D01*
X223536Y19577D01*
X224034Y18376D01*
X224825Y17345D01*
X225857Y16554D01*
X227058Y16056D01*
X228346Y15887D01*
X229635Y16056D01*
X230836Y16554D01*
X231868Y17345D01*
X232659Y18376D01*
X233156Y19577D01*
X233326Y20866D01*
X233156Y22155D01*
X232659Y23356D01*
X231868Y24387D01*
X230836Y25179D01*
X229635Y25676D01*
X228346Y25846D01*
D02*
G37*
G36*
X253150Y25452D02*
X251861Y25282D01*
X250660Y24785D01*
X249628Y23994D01*
X248837Y22962D01*
X248340Y21761D01*
X248170Y20472D01*
X248340Y19184D01*
X248837Y17983D01*
X249628Y16951D01*
X250660Y16160D01*
X251861Y15663D01*
X253150Y15493D01*
X254438Y15663D01*
X255639Y16160D01*
X256671Y16951D01*
X257462Y17983D01*
X257960Y19184D01*
X258129Y20472D01*
X257960Y21761D01*
X257462Y22962D01*
X256671Y23994D01*
X255639Y24785D01*
X254438Y25282D01*
X253150Y25452D01*
D02*
G37*
G36*
X240551D02*
X239262Y25282D01*
X238061Y24785D01*
X237030Y23994D01*
X236239Y22962D01*
X235741Y21761D01*
X235572Y20472D01*
X235741Y19184D01*
X236239Y17983D01*
X237030Y16951D01*
X238061Y16160D01*
X239262Y15663D01*
X240551Y15493D01*
X241840Y15663D01*
X243041Y16160D01*
X244072Y16951D01*
X244864Y17983D01*
X245361Y19184D01*
X245531Y20472D01*
X245361Y21761D01*
X244864Y22962D01*
X244072Y23994D01*
X243041Y24785D01*
X241840Y25282D01*
X240551Y25452D01*
D02*
G37*
%LPD*%
D82*
X487878Y50689D02*
D03*
X487681Y63484D02*
D03*
X9181Y438984D02*
D03*
X188878Y429185D02*
D03*
X188779Y416980D02*
D03*
X208780D02*
D03*
X208878Y429185D02*
D03*
X226878Y428685D02*
D03*
X226780Y416480D02*
D03*
X245779Y415980D02*
D03*
X245878Y428185D02*
D03*
X266378Y428685D02*
D03*
X266280Y416480D02*
D03*
X185181Y328984D02*
D03*
X10776Y271032D02*
D03*
X10874Y278611D02*
D03*
X11139Y244960D02*
D03*
X10646Y309330D02*
D03*
X10745Y286299D02*
D03*
X9859Y330393D02*
D03*
X10646Y302047D02*
D03*
X10745Y293779D02*
D03*
X10879Y236003D02*
D03*
X9681Y319984D02*
D03*
X10942Y260118D02*
D03*
X198681Y308984D02*
D03*
D83*
X289138Y325028D02*
D03*
X316224D02*
D03*
Y297941D02*
D03*
X289138D02*
D03*
X269638Y271028D02*
D03*
X296724D02*
D03*
Y243941D02*
D03*
X269638D02*
D03*
X169638Y61528D02*
D03*
X196724D02*
D03*
Y34441D02*
D03*
X169638D02*
D03*
X386638Y48028D02*
D03*
X413724D02*
D03*
Y20941D02*
D03*
X386638D02*
D03*
X98638Y459028D02*
D03*
X125724D02*
D03*
Y431941D02*
D03*
X98638D02*
D03*
X292138Y393028D02*
D03*
X319224D02*
D03*
Y365941D02*
D03*
X292138D02*
D03*
D84*
X302681Y311484D02*
D03*
X283181Y257484D02*
D03*
X183181Y47984D02*
D03*
X400181Y34484D02*
D03*
X112181Y445484D02*
D03*
X305681Y379484D02*
D03*
D85*
X168583Y465390D02*
D03*
X168780Y449248D02*
D03*
X168583Y435390D02*
D03*
X168780Y419248D02*
D03*
X11006Y346789D02*
D03*
X11237Y357165D02*
D03*
X145669Y311024D02*
D03*
X243681Y264984D02*
D03*
X210681D02*
D03*
X123681Y420484D02*
D03*
X126181Y470984D02*
D03*
X133681D02*
D03*
X119181D02*
D03*
X131181Y419984D02*
D03*
X115681D02*
D03*
X519681Y89484D02*
D03*
X486681Y89984D02*
D03*
X455681Y89484D02*
D03*
X420681D02*
D03*
X306181Y74484D02*
D03*
X285181Y61484D02*
D03*
X290604Y96186D02*
D03*
X301681Y94484D02*
D03*
X283681Y102984D02*
D03*
Y110984D02*
D03*
X288681Y119484D02*
D03*
X297931Y120734D02*
D03*
X293681Y161484D02*
D03*
X370681Y89484D02*
D03*
X301181Y136484D02*
D03*
Y128484D02*
D03*
D86*
X518898Y20079D02*
D03*
X506299D02*
D03*
X494095Y20472D02*
D03*
X228346Y20866D02*
D03*
X240551Y20472D02*
D03*
X253150D02*
D03*
X20866Y161811D02*
D03*
Y174409D02*
D03*
X21260Y186614D02*
D03*
X311811Y468110D02*
D03*
X322047D02*
D03*
X433450Y382689D02*
D03*
X433777Y392428D02*
D03*
X180709Y487008D02*
D03*
X355681Y208984D02*
D03*
X296681Y107984D02*
D03*
D87*
X114567Y328740D02*
D03*
X49213Y338976D02*
D03*
X215748Y210630D02*
D03*
X470079Y74410D02*
D03*
X458268Y74016D02*
D03*
X434252Y60236D02*
D03*
X239370Y211024D02*
D03*
X446959Y73908D02*
D03*
X6693Y455905D02*
D03*
X14567Y470472D02*
D03*
X76681Y434484D02*
D03*
X77181Y468484D02*
D03*
X215181Y98484D02*
D03*
X121681Y314484D02*
D03*
X116181Y305484D02*
D03*
X227181Y250484D02*
D03*
D88*
X439988Y46614D02*
D03*
X436221Y46457D02*
D03*
X211523Y63833D02*
D03*
X208661Y63780D02*
D03*
X211417Y70079D02*
D03*
X208661D02*
D03*
D89*
X249681Y86984D02*
D03*
X245681D02*
D03*
X241681D02*
D03*
X269181Y73484D02*
D03*
X294181Y89484D02*
D03*
X285181Y77484D02*
D03*
X290181Y89984D02*
D03*
X276681Y80484D02*
D03*
X285681Y92484D02*
D03*
X270681Y83984D02*
D03*
X281681Y94984D02*
D03*
X263681Y90484D02*
D03*
X278681Y96984D02*
D03*
X262181Y100484D02*
D03*
X276681Y101484D02*
D03*
X262181Y104484D02*
D03*
X277181Y105484D02*
D03*
X262181Y108484D02*
D03*
X277181Y108984D02*
D03*
X262681Y113484D02*
D03*
X277181Y112484D02*
D03*
X264181Y119484D02*
D03*
X278181Y115984D02*
D03*
X267681Y127484D02*
D03*
X279681Y119484D02*
D03*
X272181Y131984D02*
D03*
X282181Y121984D02*
D03*
X278681Y136484D02*
D03*
X285181Y125484D02*
D03*
X284681Y138484D02*
D03*
X289181Y125484D02*
D03*
Y139484D02*
D03*
X292681Y125484D02*
D03*
Y139984D02*
D03*
X296181Y125984D02*
D03*
Y139984D02*
D03*
X203181Y308484D02*
D03*
X174181Y294484D02*
D03*
X183681Y345984D02*
D03*
X171681D02*
D03*
X158681D02*
D03*
X148181D02*
D03*
X222681Y283984D02*
D03*
Y287984D02*
D03*
X219681Y283984D02*
D03*
Y287984D02*
D03*
X249181Y328484D02*
D03*
Y332484D02*
D03*
Y323984D02*
D03*
Y318984D02*
D03*
X174181Y333484D02*
D03*
Y336984D02*
D03*
X165181Y294484D02*
D03*
X156181D02*
D03*
M02*
