G04*
G04 #@! TF.GenerationSoftware,Altium Limited,Altium Designer,20.2.7 (254)*
G04*
G04 Layer_Physical_Order=2*
G04 Layer_Color=36540*
%FSLAX25Y25*%
%MOIN*%
G70*
G04*
G04 #@! TF.SameCoordinates,445C0D7E-7E36-472A-9239-D9981030C948*
G04*
G04*
G04 #@! TF.FilePolarity,Positive*
G04*
G01*
G75*
%ADD12C,0.01000*%
%ADD73C,0.01968*%
%ADD81C,0.02362*%
%ADD82C,0.04724*%
%ADD83C,0.14173*%
%ADD84R,0.07677X0.07677*%
%ADD85C,0.03937*%
%ADD86C,0.07874*%
%ADD87C,0.05000*%
%ADD88C,0.02362*%
%ADD89C,0.01968*%
G36*
X307681Y276484D02*
Y233484D01*
X262181D01*
X248181Y247484D01*
X216681Y247484D01*
X216681Y261984D01*
X244681D01*
X262181Y277984D01*
X306181D01*
X307681Y276484D01*
D02*
G37*
G36*
X264173Y338583D02*
X264961Y337795D01*
Y316142D01*
X202829D01*
X201860Y316660D01*
X200302Y317132D01*
X198681Y317292D01*
X197060Y317132D01*
X195502Y316660D01*
X194066Y315892D01*
X192807Y314859D01*
X191773Y313600D01*
X191006Y312163D01*
X190879Y311745D01*
X179528Y300394D01*
Y290551D01*
X152362D01*
X151969Y290945D01*
Y304124D01*
X152760Y305088D01*
X153491Y306456D01*
X153941Y307941D01*
X154012Y308661D01*
X166142D01*
X170866Y313386D01*
Y338622D01*
X171220Y338975D01*
X264173Y338583D01*
D02*
G37*
G36*
X159181Y455484D02*
Y439984D01*
X136181Y416984D01*
X86712D01*
X86181Y476984D01*
X86348Y480484D01*
X134181D01*
X159181Y455484D01*
D02*
G37*
%LPC*%
G36*
X288020Y262323D02*
X278343D01*
Y252646D01*
X288020D01*
Y262323D01*
D02*
G37*
G36*
X185181Y332376D02*
X184303Y332260D01*
X183485Y331921D01*
X182783Y331382D01*
X182244Y330680D01*
X181905Y329862D01*
X181790Y328984D01*
X181905Y328106D01*
X182244Y327289D01*
X182783Y326586D01*
X183485Y326047D01*
X184303Y325709D01*
X185181Y325593D01*
X186059Y325709D01*
X186877Y326047D01*
X187579Y326586D01*
X188118Y327289D01*
X188457Y328106D01*
X188572Y328984D01*
X188457Y329862D01*
X188118Y330680D01*
X187579Y331382D01*
X186877Y331921D01*
X186059Y332260D01*
X185181Y332376D01*
D02*
G37*
G36*
X121925Y455228D02*
X102437D01*
Y435740D01*
X121925D01*
Y455228D01*
D02*
G37*
%LPD*%
D12*
X269181Y73484D02*
X288681D01*
X294267Y79070D01*
Y79899D01*
X292181Y81984D02*
X294267Y79899D01*
X283681Y81984D02*
X292181D01*
X269681Y95984D02*
X283681Y81984D01*
X269681Y95984D02*
Y118984D01*
X282181Y131484D01*
X293681D02*
X296181Y133984D01*
Y139984D01*
X282181Y131484D02*
X293681D01*
D73*
X229761Y251064D02*
X243681Y264984D01*
X227761Y251064D02*
X229761D01*
X227181Y250484D02*
X227761Y251064D01*
X210681Y264984D02*
X224601Y251064D01*
X226601D01*
X227181Y250484D01*
X433858Y48925D02*
Y59842D01*
X434252Y60236D01*
X439913Y46539D02*
X439988Y46614D01*
X436221Y46457D02*
X436327D01*
X436409Y46539D01*
X439913D01*
X434252Y60236D02*
X434252D01*
X427953Y66535D02*
X434252Y60236D01*
X337795Y44488D02*
X359842Y66535D01*
X433858Y48925D02*
X436221Y46563D01*
X241339Y44488D02*
X337795D01*
X359842Y66535D02*
X427953D01*
X436221Y46457D02*
Y46563D01*
X215748Y70079D02*
X241339Y44488D01*
X211417Y70079D02*
X215748D01*
X185433Y198819D02*
X227165D01*
X239370Y211024D01*
X100787Y198819D02*
X185433D01*
X190129Y88583D02*
X190157D01*
X188976Y89736D02*
X190129Y88583D01*
X188976Y89736D02*
Y195276D01*
X185433Y198819D02*
X188976Y195276D01*
X190157Y88583D02*
X208661Y70079D01*
X211417D01*
X10942Y260118D02*
X39489D01*
X100787Y198819D01*
D81*
X116681Y309484D02*
X121681Y314484D01*
X116681Y305984D02*
Y309484D01*
X116181Y305484D02*
X116681Y305984D01*
D82*
X487878Y50689D02*
D03*
X487681Y63484D02*
D03*
X9181Y438984D02*
D03*
X188878Y429185D02*
D03*
X188779Y416980D02*
D03*
X208780D02*
D03*
X208878Y429185D02*
D03*
X226878Y428685D02*
D03*
X226780Y416480D02*
D03*
X245779Y415980D02*
D03*
X245878Y428185D02*
D03*
X266378Y428685D02*
D03*
X266280Y416480D02*
D03*
X185181Y328984D02*
D03*
X10776Y271032D02*
D03*
X10874Y278611D02*
D03*
X11139Y244960D02*
D03*
X10646Y309330D02*
D03*
X10745Y286299D02*
D03*
X9859Y330393D02*
D03*
X10646Y302047D02*
D03*
X10745Y293779D02*
D03*
X10879Y236003D02*
D03*
X9681Y319984D02*
D03*
X10942Y260118D02*
D03*
X198681Y308984D02*
D03*
D83*
X289138Y325028D02*
D03*
X316224D02*
D03*
Y297941D02*
D03*
X289138D02*
D03*
X269638Y271028D02*
D03*
X296724D02*
D03*
Y243941D02*
D03*
X269638D02*
D03*
X169638Y61528D02*
D03*
X196724D02*
D03*
Y34441D02*
D03*
X169638D02*
D03*
X386638Y48028D02*
D03*
X413724D02*
D03*
Y20941D02*
D03*
X386638D02*
D03*
X98638Y459028D02*
D03*
X125724D02*
D03*
Y431941D02*
D03*
X98638D02*
D03*
X292138Y393028D02*
D03*
X319224D02*
D03*
Y365941D02*
D03*
X292138D02*
D03*
D84*
X302681Y311484D02*
D03*
X283181Y257484D02*
D03*
X183181Y47984D02*
D03*
X400181Y34484D02*
D03*
X112181Y445484D02*
D03*
X305681Y379484D02*
D03*
D85*
X168583Y465390D02*
D03*
X168780Y449248D02*
D03*
X168583Y435390D02*
D03*
X168780Y419248D02*
D03*
X11006Y346789D02*
D03*
X11237Y357165D02*
D03*
X145669Y311024D02*
D03*
X243681Y264984D02*
D03*
X210681D02*
D03*
X123681Y420484D02*
D03*
X126181Y470984D02*
D03*
X133681D02*
D03*
X119181D02*
D03*
X131181Y419984D02*
D03*
X115681D02*
D03*
X519681Y89484D02*
D03*
X486681Y89984D02*
D03*
X455681Y89484D02*
D03*
X420681D02*
D03*
X306181Y74484D02*
D03*
X285181Y61484D02*
D03*
X290604Y96186D02*
D03*
X301681Y94484D02*
D03*
X283681Y102984D02*
D03*
Y110984D02*
D03*
X288681Y119484D02*
D03*
X297931Y120734D02*
D03*
X293681Y161484D02*
D03*
X370681Y89484D02*
D03*
X301181Y136484D02*
D03*
Y128484D02*
D03*
D86*
X518898Y20079D02*
D03*
X506299D02*
D03*
X494095Y20472D02*
D03*
X228346Y20866D02*
D03*
X240551Y20472D02*
D03*
X253150D02*
D03*
X20866Y161811D02*
D03*
Y174409D02*
D03*
X21260Y186614D02*
D03*
X311811Y468110D02*
D03*
X322047D02*
D03*
X433450Y382689D02*
D03*
X433777Y392428D02*
D03*
X180709Y487008D02*
D03*
X355681Y208984D02*
D03*
X296681Y107984D02*
D03*
D87*
X114567Y328740D02*
D03*
X49213Y338976D02*
D03*
X215748Y210630D02*
D03*
X470079Y74410D02*
D03*
X458268Y74016D02*
D03*
X434252Y60236D02*
D03*
X239370Y211024D02*
D03*
X446959Y73908D02*
D03*
X6693Y455905D02*
D03*
X14567Y470472D02*
D03*
X76681Y434484D02*
D03*
X77181Y468484D02*
D03*
X215181Y98484D02*
D03*
X121681Y314484D02*
D03*
X116181Y305484D02*
D03*
X227181Y250484D02*
D03*
D88*
X439988Y46614D02*
D03*
X436221Y46457D02*
D03*
X211523Y63833D02*
D03*
X208661Y63780D02*
D03*
X211417Y70079D02*
D03*
X208661D02*
D03*
D89*
X249681Y86984D02*
D03*
X245681D02*
D03*
X241681D02*
D03*
X269181Y73484D02*
D03*
X294181Y89484D02*
D03*
X285181Y77484D02*
D03*
X290181Y89984D02*
D03*
X276681Y80484D02*
D03*
X285681Y92484D02*
D03*
X270681Y83984D02*
D03*
X281681Y94984D02*
D03*
X263681Y90484D02*
D03*
X278681Y96984D02*
D03*
X262181Y100484D02*
D03*
X276681Y101484D02*
D03*
X262181Y104484D02*
D03*
X277181Y105484D02*
D03*
X262181Y108484D02*
D03*
X277181Y108984D02*
D03*
X262681Y113484D02*
D03*
X277181Y112484D02*
D03*
X264181Y119484D02*
D03*
X278181Y115984D02*
D03*
X267681Y127484D02*
D03*
X279681Y119484D02*
D03*
X272181Y131984D02*
D03*
X282181Y121984D02*
D03*
X278681Y136484D02*
D03*
X285181Y125484D02*
D03*
X284681Y138484D02*
D03*
X289181Y125484D02*
D03*
Y139484D02*
D03*
X292681Y125484D02*
D03*
Y139984D02*
D03*
X296181Y125984D02*
D03*
Y139984D02*
D03*
X203181Y308484D02*
D03*
X174181Y294484D02*
D03*
X183681Y345984D02*
D03*
X171681D02*
D03*
X158681D02*
D03*
X148181D02*
D03*
X222681Y283984D02*
D03*
Y287984D02*
D03*
X219681Y283984D02*
D03*
Y287984D02*
D03*
X249181Y328484D02*
D03*
Y332484D02*
D03*
Y323984D02*
D03*
Y318984D02*
D03*
X174181Y333484D02*
D03*
Y336984D02*
D03*
X165181Y294484D02*
D03*
X156181D02*
D03*
M02*
