G04*
G04 #@! TF.GenerationSoftware,Altium Limited,Altium Designer,20.2.7 (254)*
G04*
G04 Layer_Color=128*
%FSLAX25Y25*%
%MOIN*%
G70*
G04*
G04 #@! TF.SameCoordinates,6C2C61A8-3AF8-4D38-8781-6E19ECE08A8B*
G04*
G04*
G04 #@! TF.FilePolarity,Positive*
G04*
G01*
G75*
%ADD64C,0.00200*%
D64*
X539925Y154028D02*
X543075D01*
X541500Y152453D02*
Y155602D01*
X539925Y174500D02*
X543075D01*
X541500Y172925D02*
Y176075D01*
X12925Y40000D02*
X16075D01*
X14500Y38425D02*
Y41575D01*
X260925Y117000D02*
X264075D01*
X262500Y115425D02*
Y118575D01*
X261122Y133240D02*
X264272D01*
X262697Y131665D02*
Y134815D01*
X282122Y117224D02*
X285272D01*
X283697Y115650D02*
Y118799D01*
X282319Y133465D02*
X285469D01*
X283894Y131890D02*
Y135039D01*
X213925Y116500D02*
X217075D01*
X215500Y114925D02*
Y118075D01*
X214122Y132740D02*
X217272D01*
X215697Y131165D02*
Y134315D01*
X191622Y117724D02*
X194772D01*
X193197Y116150D02*
Y119299D01*
X191819Y133965D02*
X194968D01*
X193394Y132390D02*
Y135539D01*
X237122Y117224D02*
X240272D01*
X238697Y115650D02*
Y118799D01*
X237319Y133465D02*
X240469D01*
X238894Y131890D02*
Y135039D01*
X24425Y211000D02*
X27575D01*
X26000Y209425D02*
Y212575D01*
X74728Y209276D02*
X77878D01*
X76303Y207701D02*
Y210850D01*
X74532Y193035D02*
X77681D01*
X76106Y191461D02*
Y194610D01*
X211925Y182500D02*
X215075D01*
X213500Y180925D02*
Y184075D01*
X84622Y192724D02*
X87772D01*
X86197Y191150D02*
Y194299D01*
X84819Y208965D02*
X87968D01*
X86394Y207390D02*
Y210539D01*
X96122Y191724D02*
X99272D01*
X97697Y190150D02*
Y193299D01*
X96319Y207965D02*
X99468D01*
X97894Y206390D02*
Y209539D01*
X79622Y162224D02*
X82772D01*
X81197Y160650D02*
Y163799D01*
X79819Y178465D02*
X82968D01*
X81394Y176890D02*
Y180039D01*
X92122Y162224D02*
X95272D01*
X93697Y160650D02*
Y163799D01*
X92319Y178465D02*
X95468D01*
X93894Y176890D02*
Y180039D01*
X104622Y162224D02*
X107772D01*
X106197Y160650D02*
Y163799D01*
X104819Y178465D02*
X107968D01*
X106394Y176890D02*
Y180039D01*
X12925Y53000D02*
X16075D01*
X14500Y51425D02*
Y54575D01*
X17425Y102500D02*
X20575D01*
X19000Y100925D02*
Y104075D01*
X17327Y110768D02*
X20476D01*
X18902Y109193D02*
Y112343D01*
X17327Y119331D02*
X20476D01*
X18902Y117756D02*
Y120905D01*
X17425Y137244D02*
X20575D01*
X19000Y135669D02*
Y138819D01*
X17425Y95020D02*
X20575D01*
X19000Y93445D02*
Y96595D01*
X17425Y87441D02*
X20575D01*
X19000Y85866D02*
Y89016D01*
X74925Y17500D02*
X78075D01*
X76500Y15925D02*
Y19075D01*
X85600Y55500D02*
X88400D01*
X87000Y54100D02*
Y56900D01*
X106100Y39500D02*
X108900D01*
X107500Y38100D02*
Y40900D01*
X133600Y31000D02*
X136400D01*
X135000Y29600D02*
Y32400D01*
X513100Y40000D02*
X515900D01*
X514500Y38600D02*
Y41400D01*
X64600Y196500D02*
X67400D01*
X66000Y195100D02*
Y197900D01*
X41600Y71000D02*
X44400D01*
X43000Y69600D02*
Y72400D01*
X33600Y62000D02*
X36400D01*
X35000Y60600D02*
Y63400D01*
X100100Y66500D02*
X102900D01*
X101500Y65100D02*
Y67900D01*
X106600Y71000D02*
X109400D01*
X108000Y69600D02*
Y72400D01*
X142600Y37000D02*
X145400D01*
X144000Y35600D02*
Y38400D01*
X61600Y15500D02*
X64400D01*
X63000Y14100D02*
Y16900D01*
X25100Y50000D02*
X27900D01*
X26500Y48600D02*
Y51400D01*
X30100Y26000D02*
X32900D01*
X31500Y24600D02*
Y27400D01*
X42600Y201594D02*
X45400D01*
X44000Y200195D02*
Y202994D01*
X30100Y207000D02*
X32900D01*
X31500Y205600D02*
Y208400D01*
X39100Y164000D02*
X41900D01*
X40500Y162600D02*
Y165400D01*
X63600Y179500D02*
X66400D01*
X65000Y178100D02*
Y180900D01*
X521683Y243083D02*
X524483D01*
X523083Y241683D02*
Y244483D01*
X540100Y197500D02*
X542900D01*
X541500Y196100D02*
Y198900D01*
X77600Y77000D02*
X80400D01*
X79000Y75600D02*
Y78400D01*
X32600Y97000D02*
X35400D01*
X34000Y95600D02*
Y98400D01*
X70600Y121000D02*
X73400D01*
X72000Y119600D02*
Y122400D01*
X151100Y36000D02*
X153900D01*
X152500Y34600D02*
Y37400D01*
X100600Y57500D02*
X103400D01*
X102000Y56100D02*
Y58900D01*
X35600Y40000D02*
X38400D01*
X37000Y38600D02*
Y41400D01*
X490600Y41000D02*
X493400D01*
X492000Y39600D02*
Y42400D01*
X492100Y212500D02*
X494900D01*
X493500Y211100D02*
Y213900D01*
X527100Y213000D02*
X529900D01*
X528500Y211600D02*
Y214400D01*
X517600Y213000D02*
X520400D01*
X519000Y211600D02*
Y214400D01*
X520100Y40000D02*
X522900D01*
X521500Y38600D02*
Y41400D01*
X528100Y40500D02*
X530900D01*
X529500Y39100D02*
Y41900D01*
X234600Y198500D02*
X237400D01*
X236000Y197100D02*
Y199900D01*
X405100Y102500D02*
X407900D01*
X406500Y101100D02*
Y103900D01*
M02*
