G04*
G04 #@! TF.GenerationSoftware,Altium Limited,Altium Designer,20.2.7 (254)*
G04*
G04 Layer_Physical_Order=4*
G04 Layer_Color=16711680*
%FSLAX25Y25*%
%MOIN*%
G70*
G04*
G04 #@! TF.SameCoordinates,DBF9737C-FB11-4D03-B001-0F7B986813C6*
G04*
G04*
G04 #@! TF.FilePolarity,Positive*
G04*
G01*
G75*
%ADD12C,0.01575*%
%ADD13C,0.01000*%
%ADD60C,0.03937*%
%ADD66C,0.03937*%
%ADD67C,0.01968*%
%ADD68C,0.05000*%
G36*
X184500Y53000D02*
Y52500D01*
X194000Y42500D01*
X275500D01*
X276000Y42000D01*
X275500Y41500D01*
Y2500D01*
X165500D01*
X162500Y5500D01*
Y53500D01*
X184500D01*
Y53000D01*
D02*
G37*
D12*
X60000Y196500D02*
X66000D01*
X31500Y207000D02*
X32000Y207500D01*
X49000D02*
X60000Y196500D01*
X32000Y207500D02*
X49000D01*
D13*
X26500Y49000D02*
X27000Y49500D01*
X235894Y156465D02*
Y161606D01*
X101394Y175465D02*
X104965D01*
X114000Y184500D01*
X185437D02*
X212697Y157240D01*
X114000Y184500D02*
X185437D01*
X89929Y184000D02*
X102000D01*
X81394Y175465D02*
X89929Y184000D01*
X102000D02*
X109000Y191000D01*
X127000D01*
X129500Y193500D01*
X131500D01*
X101394Y175465D02*
X101429Y175500D01*
X118894Y175465D02*
X133358Y161000D01*
X269810Y168985D02*
Y171190D01*
X215500Y225500D02*
X269810Y171190D01*
X100672Y225500D02*
X215500D01*
X107429Y217500D02*
X212500D01*
X251000Y179000D01*
Y166437D02*
Y179000D01*
X97894Y207965D02*
X107429Y217500D01*
X281330Y157465D02*
X281394D01*
X269810Y168985D02*
X281330Y157465D01*
X260197Y157240D02*
Y157240D01*
X251000Y166437D02*
X260197Y157240D01*
X94521Y219349D02*
X100672Y225500D01*
X86394Y208965D02*
X94521Y217092D01*
Y219349D01*
X204000Y193500D02*
X235894Y161606D01*
X131500Y193500D02*
X204000Y193500D01*
X133358Y161000D02*
X171500D01*
X175535Y156965D01*
X76106Y193035D02*
X81571Y198500D01*
X117500D01*
X127000Y208000D01*
X208000D01*
X14000Y101000D02*
X16000Y99000D01*
X14000Y105000D02*
X16000Y107000D01*
X15768Y110768D02*
X18902D01*
X26500Y50000D02*
X27000Y49500D01*
X22709Y99000D02*
X24709Y97000D01*
X22000Y107000D02*
X24000Y109000D01*
X31500Y26000D02*
X33000Y27500D01*
Y41657D02*
X35000Y43657D01*
X34000Y97000D02*
Y97914D01*
X34586Y98500D01*
X79000Y77000D02*
X82500Y73500D01*
X87000Y55500D02*
X87000D01*
X96500Y55586D02*
Y60500D01*
X96414Y60586D02*
X96500Y60500D01*
X96414Y60586D02*
Y61414D01*
X103000Y39500D02*
X107500D01*
X11500Y86000D02*
Y106500D01*
X14000Y101000D02*
Y105000D01*
X26500Y20000D02*
Y49000D01*
X33000Y27500D02*
Y41657D01*
X96414Y61414D02*
X97000Y62000D01*
X107500Y30000D02*
Y39500D01*
X108000Y68000D02*
Y71000D01*
Y79500D01*
X109500Y57500D02*
Y66500D01*
X152500Y28000D02*
Y36000D01*
X24000Y109000D02*
Y114232D01*
X35000Y43657D02*
Y62000D01*
X65000Y128000D02*
Y179500D01*
X26500Y50000D02*
Y66000D01*
Y20000D02*
X31000Y15500D01*
X31500Y71000D02*
X43000D01*
X26500D02*
X31500D01*
X24709Y97000D02*
X34000D01*
X19000Y102500D02*
X34500D01*
X53000Y121000D02*
X72000D01*
X101086Y51000D02*
X107000D01*
X102000Y57500D02*
X109500D01*
X108000Y68000D02*
X109500Y66500D01*
X99500D02*
X101500D01*
X82500Y73500D02*
X92500D01*
X127000Y31000D02*
X135000D01*
X130000Y37000D02*
X144000D01*
X11500Y106500D02*
X15768Y110768D01*
X26500Y66000D02*
X31500Y71000D01*
X65000Y128000D02*
X72000Y121000D01*
X96500Y55586D02*
X101086Y51000D01*
X86000Y62000D02*
X97000D01*
X101500Y66500D01*
X92500Y73500D02*
X99500Y66500D01*
X18902Y119331D02*
X24000Y114232D01*
X87000Y55500D02*
X103000Y39500D01*
X89000Y98500D02*
X108000Y79500D01*
X31000Y15500D02*
X63000D01*
X37000Y40000D02*
X64000D01*
X16000Y99000D02*
X22709D01*
X16000Y107000D02*
X22000D01*
X117000Y20500D02*
X145000D01*
X107500Y30000D02*
X117000Y20500D01*
X145000D02*
X152500Y28000D01*
X11500Y86000D02*
X26500Y71000D01*
X34500Y102500D02*
X53000Y121000D01*
X107000Y51000D02*
X127000Y31000D01*
X109500Y57500D02*
X130000Y37000D01*
X34586Y98500D02*
X89000D01*
X64000Y40000D02*
X86000Y62000D01*
X523500Y59822D02*
X536000Y47322D01*
X523500Y180000D02*
X540500Y197000D01*
X523500Y59822D02*
Y180000D01*
X516000Y200500D02*
X528500Y213000D01*
X516000Y55082D02*
X529500Y41582D01*
X516000Y55082D02*
Y200500D01*
X510500Y51000D02*
X521500Y40000D01*
X510500Y51000D02*
Y204500D01*
X519000Y213000D01*
X508000Y40000D02*
X514500D01*
X501000Y47000D02*
X508000Y40000D01*
X501000Y47000D02*
Y205000D01*
X492000Y41000D02*
X502000Y31000D01*
X535414D01*
X208000Y208000D02*
X210500Y205500D01*
X175535Y156965D02*
X190394D01*
X25905Y201594D02*
X44000D01*
X20500Y207000D02*
X25905Y201594D01*
X20500Y207000D02*
Y214500D01*
X26500Y220500D01*
X65079D01*
X76303Y209276D01*
X62000Y185500D02*
X68000D01*
X40500Y164000D02*
X62000Y185500D01*
X72000Y171421D02*
Y181500D01*
X68000Y185500D02*
X72000Y181500D01*
Y171421D02*
X81197Y162224D01*
X550000Y162528D02*
Y216165D01*
X541500Y154028D02*
X550000Y162528D01*
X523083Y243083D02*
X550000Y216165D01*
X541500Y197500D02*
X542000Y197000D01*
X536000Y31586D02*
Y47322D01*
X535414Y31000D02*
X536000Y31586D01*
X529500Y40500D02*
Y41582D01*
X493500Y212500D02*
X501000Y205000D01*
D60*
X310500Y28500D02*
Y212500D01*
X294000Y229000D02*
X310500Y212500D01*
Y28500D02*
X326000Y13000D01*
X233000Y221500D02*
X240500Y229000D01*
X294000D01*
X406703Y83203D02*
Y102297D01*
X388000Y82806D02*
X395522Y75284D01*
X398784D01*
X406703Y83203D01*
X378000Y71306D02*
X387306Y62000D01*
X380306Y195500D02*
X429194D01*
X378000Y193194D02*
X380306Y195500D01*
X378000Y71306D02*
Y193194D01*
X388000Y175500D02*
X392000Y179500D01*
X388000Y82806D02*
Y175500D01*
X406500Y102500D02*
X406703Y102297D01*
X394306Y183500D02*
X412500D01*
X392000Y181194D02*
X394306Y183500D01*
X392000Y179500D02*
Y181194D01*
X412500Y183500D02*
X421500Y174500D01*
Y75000D02*
Y174500D01*
X408500Y62000D02*
X421500Y75000D01*
X387306Y62000D02*
X408500D01*
X421500Y49000D02*
X431500Y59000D01*
Y60000D01*
X375000Y49000D02*
X421500D01*
X429194Y195500D02*
X431500Y193194D01*
X431500Y60000D02*
X431500Y193194D01*
X363000Y61000D02*
X375000Y49000D01*
X363000Y61000D02*
X363000Y201000D01*
X445500Y51500D02*
Y202000D01*
X369000Y207000D02*
X440500D01*
X432500Y38500D02*
X445500Y51500D01*
X363000Y201000D02*
X369000Y207000D01*
X440500D02*
X445500Y202000D01*
X357000Y38500D02*
X432500D01*
X346000Y49500D02*
Y214000D01*
Y49500D02*
X357000Y38500D01*
Y225000D02*
X449000D01*
X460500Y213500D01*
X346000Y214000D02*
X357000Y225000D01*
X460500Y37500D02*
Y213500D01*
X450000Y27000D02*
X460500Y37500D01*
X462500Y236500D02*
X478000Y221000D01*
X326000Y13000D02*
X475694D01*
X478000Y15306D02*
Y221000D01*
X475694Y13000D02*
X478000Y15306D01*
X342500Y236500D02*
X462500D01*
X330000Y40000D02*
Y224000D01*
X342500Y236500D01*
X343000Y27000D02*
X450000D01*
X330000Y40000D02*
X343000Y27000D01*
D66*
X86394Y208965D02*
D03*
X297598Y163764D02*
D03*
X297402Y179905D02*
D03*
X305500Y6000D02*
D03*
X297598Y136764D02*
D03*
X297402Y152905D02*
D03*
X290000Y6500D02*
D03*
X541500Y154028D02*
D03*
Y174500D02*
D03*
X14500Y40000D02*
D03*
X260000Y141000D02*
D03*
X260197Y157240D02*
D03*
X281197Y141224D02*
D03*
X281394Y157465D02*
D03*
X213000Y140500D02*
D03*
X213197Y156740D02*
D03*
X190697Y141724D02*
D03*
X190894Y157965D02*
D03*
X236197Y141224D02*
D03*
X236394Y157465D02*
D03*
X19000Y222000D02*
D03*
X76303Y209276D02*
D03*
X76106Y193035D02*
D03*
X210500Y205500D02*
D03*
X86197Y192724D02*
D03*
X97697Y191724D02*
D03*
X97894Y207965D02*
D03*
X81197Y159224D02*
D03*
X81394Y175465D02*
D03*
X101197Y159224D02*
D03*
X101394Y175465D02*
D03*
X118697Y159224D02*
D03*
X118894Y175465D02*
D03*
X14500Y53000D02*
D03*
X19000Y102500D02*
D03*
X18902Y110768D02*
D03*
Y119331D02*
D03*
X19000Y137244D02*
D03*
Y95020D02*
D03*
Y87441D02*
D03*
X76500Y17500D02*
D03*
D67*
X245500Y6500D02*
D03*
Y13500D02*
D03*
Y19500D02*
D03*
X248500Y26000D02*
D03*
X245000D02*
D03*
X248500Y31000D02*
D03*
X245000D02*
D03*
X248500Y36000D02*
D03*
Y40500D02*
D03*
X245000Y36000D02*
D03*
Y40500D02*
D03*
X181500Y50500D02*
D03*
X177500D02*
D03*
X173000D02*
D03*
X169000D02*
D03*
X165000D02*
D03*
D68*
X63000Y15500D02*
D03*
X35000Y62000D02*
D03*
X31500Y26000D02*
D03*
X26500Y50000D02*
D03*
X87000Y55500D02*
D03*
X107500Y39500D02*
D03*
X135000Y31000D02*
D03*
X514500Y40000D02*
D03*
X66000Y196500D02*
D03*
X43000Y71000D02*
D03*
X101500Y66500D02*
D03*
X108000Y71000D02*
D03*
X144000Y37000D02*
D03*
X44000Y201594D02*
D03*
X31500Y207000D02*
D03*
X40500Y164000D02*
D03*
X65000Y179500D02*
D03*
X523083Y243083D02*
D03*
X541500Y197500D02*
D03*
X79000Y77000D02*
D03*
X34000Y97000D02*
D03*
X72000Y121000D02*
D03*
X152500Y36000D02*
D03*
X102000Y57500D02*
D03*
X37000Y40000D02*
D03*
X492000Y41000D02*
D03*
X493500Y212500D02*
D03*
X528500Y213000D02*
D03*
X519000D02*
D03*
X521500Y40000D02*
D03*
X529500Y40500D02*
D03*
X233000Y221500D02*
D03*
X406500Y102500D02*
D03*
M02*
