G04*
G04 #@! TF.GenerationSoftware,Altium Limited,Altium Designer,20.2.7 (254)*
G04*
G04 Layer_Color=255*
%FSLAX25Y25*%
%MOIN*%
G70*
G04*
G04 #@! TF.SameCoordinates,35C1B794-4458-498E-8B6A-B57C219EB0B0*
G04*
G04*
G04 #@! TF.FilePolarity,Positive*
G04*
G01*
G75*
%ADD79C,0.04724*%
%ADD80C,0.14173*%
%ADD81R,0.07677X0.07677*%
%ADD82C,0.03937*%
D79*
X488386Y62402D02*
D03*
X488583Y49606D02*
D03*
X9181Y438984D02*
D03*
X188878Y429185D02*
D03*
X188779Y416980D02*
D03*
X208780D02*
D03*
X208878Y429185D02*
D03*
X226878Y428685D02*
D03*
X226780Y416480D02*
D03*
X245779Y415980D02*
D03*
X245878Y428185D02*
D03*
X266378Y428685D02*
D03*
X266280Y416480D02*
D03*
X185181Y328984D02*
D03*
X10776Y271032D02*
D03*
X10874Y278611D02*
D03*
X11139Y244960D02*
D03*
X10646Y309330D02*
D03*
X10745Y286299D02*
D03*
X9859Y330393D02*
D03*
X10646Y302047D02*
D03*
X10745Y293779D02*
D03*
X10879Y236003D02*
D03*
X9681Y319984D02*
D03*
X10942Y260118D02*
D03*
D80*
X289138Y325028D02*
D03*
X316224D02*
D03*
Y297941D02*
D03*
X289138D02*
D03*
X269638Y271028D02*
D03*
X296724D02*
D03*
Y243941D02*
D03*
X269638D02*
D03*
X169638Y61528D02*
D03*
X196724D02*
D03*
Y34441D02*
D03*
X169638D02*
D03*
X386638Y48028D02*
D03*
X413724D02*
D03*
Y20941D02*
D03*
X386638D02*
D03*
X98638Y459028D02*
D03*
X125724D02*
D03*
Y431941D02*
D03*
X98638D02*
D03*
X292138Y393028D02*
D03*
X319224D02*
D03*
Y365941D02*
D03*
X292138D02*
D03*
D81*
X302681Y311484D02*
D03*
X283181Y257484D02*
D03*
X183181Y47984D02*
D03*
X400181Y34484D02*
D03*
X112181Y445484D02*
D03*
X305681Y379484D02*
D03*
D82*
X168583Y465390D02*
D03*
X168780Y449248D02*
D03*
X168583Y435390D02*
D03*
X168780Y419248D02*
D03*
X11006Y346789D02*
D03*
X11237Y357165D02*
D03*
M02*
