G04*
G04 #@! TF.GenerationSoftware,Altium Limited,Altium Designer,20.2.7 (254)*
G04*
G04 Layer_Color=32768*
%FSLAX25Y25*%
%MOIN*%
G70*
G04*
G04 #@! TF.SameCoordinates,CF43E641-EDBD-4116-B357-B4F524034C76*
G04*
G04*
G04 #@! TF.FilePolarity,Positive*
G04*
G01*
G75*
%ADD10C,0.00394*%
%ADD69C,0.00197*%
D10*
X37394Y69898D02*
X68890D01*
Y17929D02*
Y69898D01*
X37394Y17929D02*
X68890D01*
X37394D02*
Y69898D01*
X199902Y111992D02*
X273091D01*
Y15358D02*
Y111992D01*
X199902Y15358D02*
X273091D01*
X199902D02*
Y111992D01*
D69*
X65228Y199760D02*
Y207240D01*
X51646D02*
X65228D01*
X51646Y199760D02*
Y207240D01*
Y199760D02*
X65228D01*
X43209Y184260D02*
Y191740D01*
Y184260D02*
X56791D01*
Y191740D01*
X43209D02*
X56791D01*
X55709Y162760D02*
Y170240D01*
Y162760D02*
X69291D01*
Y170240D01*
X55709D02*
X69291D01*
X42209Y172260D02*
Y179740D01*
Y172260D02*
X55791D01*
Y179740D01*
X42209D02*
X55791D01*
X21043Y172972D02*
Y182028D01*
Y172972D02*
X38957D01*
Y182028D01*
X21043D02*
X38957D01*
X22709Y155760D02*
Y163240D01*
Y155760D02*
X36291D01*
Y163240D01*
X22709D02*
X36291D01*
X39071Y74327D02*
Y102673D01*
Y74327D02*
X72732D01*
Y102673D01*
X39071D02*
X72732D01*
X80646Y91760D02*
Y99240D01*
Y91760D02*
X94228D01*
Y99240D01*
X80646D02*
X94228D01*
X98882Y92996D02*
Y100004D01*
Y92996D02*
X110457D01*
Y100004D01*
X98882D02*
X110457D01*
X99713Y78996D02*
Y86004D01*
Y78996D02*
X111287D01*
Y86004D01*
X99713D02*
X111287D01*
X82213Y79996D02*
Y87004D01*
Y79996D02*
X93787D01*
Y87004D01*
X82213D02*
X93787D01*
X82213Y64496D02*
Y71504D01*
Y64496D02*
X93787D01*
Y71504D01*
X82213D02*
X93787D01*
X119382Y43996D02*
Y51004D01*
Y43996D02*
X130957D01*
Y51004D01*
X119382D02*
X130957D01*
X102382Y43996D02*
Y51004D01*
Y43996D02*
X113957D01*
Y51004D01*
X102382D02*
X113957D01*
X85382Y43996D02*
Y51004D01*
Y43996D02*
X96957D01*
Y51004D01*
X85382D02*
X96957D01*
X89232Y33988D02*
X105768D01*
Y20012D02*
Y33988D01*
X89232Y20012D02*
X105768D01*
X89232D02*
Y33988D01*
X138709Y22260D02*
Y29740D01*
Y22260D02*
X152291D01*
Y29740D01*
X138709D02*
X152291D01*
X162740Y81102D02*
X185260D01*
X162740Y53898D02*
Y81102D01*
Y53898D02*
X185260D01*
Y81102D01*
X242028Y114043D02*
Y131957D01*
X232972Y114043D02*
X242028D01*
X232972D02*
Y131957D01*
X242028D01*
X530902Y236701D02*
X556098D01*
X530902D02*
Y249299D01*
X556098D01*
Y236701D02*
Y249299D01*
X151201Y59453D02*
Y83547D01*
X138799Y59453D02*
X151201D01*
X138799D02*
Y83547D01*
X151201D01*
X111134Y36587D02*
X127866D01*
Y22413D02*
Y36587D01*
X111134Y22413D02*
X127866D01*
X111134D02*
Y36587D01*
X136201Y121953D02*
Y146047D01*
X123799Y121953D02*
X136201D01*
X123799D02*
Y146047D01*
X136201D01*
X103799Y121953D02*
Y146047D01*
X116201D01*
Y121953D02*
Y146047D01*
X103799Y121953D02*
X116201D01*
X95701D02*
Y146047D01*
X83299Y121953D02*
X95701D01*
X83299D02*
Y146047D01*
X95701D01*
X44744Y150480D02*
X75256D01*
Y135520D02*
Y150480D01*
X44744Y135520D02*
X75256D01*
X44744D02*
Y150480D01*
X134201Y90953D02*
Y115047D01*
X121799Y90953D02*
X134201D01*
X121799D02*
Y115047D01*
X134201D01*
X21043Y191972D02*
X38957D01*
X21043D02*
Y201028D01*
X38957D01*
Y191972D02*
Y201028D01*
X131701Y59453D02*
Y83547D01*
X119299Y59453D02*
X131701D01*
X119299D02*
Y83547D01*
X131701D01*
X40433Y232728D02*
X69567D01*
Y211272D02*
Y232728D01*
X40433Y211272D02*
X69567D01*
X40433D02*
Y232728D01*
X82240Y32209D02*
Y45791D01*
X74760Y32209D02*
X82240D01*
X74760D02*
Y45791D01*
X82240D01*
X156905Y21559D02*
Y41441D01*
X170095D01*
Y21559D02*
Y41441D01*
X156905Y21559D02*
X170095D01*
X77209Y114240D02*
X90791D01*
Y106760D02*
Y114240D01*
X77209Y106760D02*
X90791D01*
X77209D02*
Y114240D01*
M02*
