G04*
G04 #@! TF.GenerationSoftware,Altium Limited,Altium Designer,20.2.7 (254)*
G04*
G04 Layer_Color=8388736*
%FSLAX25Y25*%
%MOIN*%
G70*
G04*
G04 #@! TF.SameCoordinates,445C0D7E-7E36-472A-9239-D9981030C948*
G04*
G04*
G04 #@! TF.FilePolarity,Negative*
G04*
G01*
G75*
%ADD36R,0.00689X0.02461*%
%ADD37R,0.00689X0.02461*%
%ADD38R,0.02165X0.00689*%
%ADD39R,0.02067X0.00689*%
%ADD40R,0.00689X0.02461*%
%ADD41R,0.00689X0.02461*%
%ADD42R,0.05721X0.11430*%
%ADD43R,0.04540X0.06312*%
%ADD44R,0.09776X0.09776*%
%ADD45R,0.06804X0.03359*%
%ADD46R,0.04816X0.06587*%
%ADD47R,0.06312X0.04540*%
%ADD48R,0.04343X0.03162*%
%ADD49R,0.07887X0.07493*%
%ADD50R,0.02769X0.07099*%
%ADD51R,0.03162X0.05918*%
%ADD52R,0.06587X0.04816*%
%ADD53R,0.06706X0.03359*%
%ADD54R,0.09068X0.06312*%
%ADD55R,0.05328X0.03162*%
%ADD56R,0.22099X0.06587*%
%ADD57R,0.06800X0.09776*%
%ADD58R,0.27335X0.25328*%
%ADD59R,0.04934X0.13792*%
%ADD60R,0.04934X0.07887*%
%ADD61R,0.08674X0.02769*%
%ADD62R,0.12611X0.20485*%
%ADD63R,0.66115X0.53910*%
%ADD64R,0.05721X0.03753*%
%ADD65C,0.05524*%
%ADD66C,0.14973*%
%ADD67R,0.08477X0.08477*%
%ADD68C,0.04737*%
%ADD69C,0.08674*%
%ADD70C,0.05800*%
%ADD71C,0.03162*%
%ADD72C,0.02769*%
G36*
X230709Y453150D02*
X222047D01*
Y455512D01*
X230709D01*
Y453150D01*
D02*
G37*
G36*
X250000Y452756D02*
X241339D01*
Y455118D01*
X250000D01*
Y452756D01*
D02*
G37*
G36*
X270472Y452362D02*
X261811D01*
Y454724D01*
X270472D01*
Y452362D01*
D02*
G37*
G36*
X193307D02*
X184646D01*
Y454724D01*
X193307D01*
Y452362D01*
D02*
G37*
G36*
X212205Y451968D02*
X203543D01*
Y454331D01*
X212205D01*
Y451968D01*
D02*
G37*
G36*
X231102Y439764D02*
X222441D01*
Y442126D01*
X231102D01*
Y439764D01*
D02*
G37*
G36*
X193307Y439370D02*
X184646D01*
Y441732D01*
X193307D01*
Y439370D01*
D02*
G37*
G36*
X270472Y438976D02*
X261811D01*
Y441339D01*
X270472D01*
Y438976D01*
D02*
G37*
G36*
X250000D02*
X241339D01*
Y441339D01*
X250000D01*
Y438976D01*
D02*
G37*
G36*
X212598D02*
X203937D01*
Y441339D01*
X212598D01*
Y438976D01*
D02*
G37*
G36*
X205681Y305984D02*
X195681D01*
Y314484D01*
X205681D01*
Y305984D01*
D02*
G37*
G36*
X26378Y164961D02*
X26378Y155905D01*
X1181D01*
X1181Y193701D01*
X26378D01*
Y164961D01*
D02*
G37*
G36*
X259055Y25984D02*
Y787D01*
X221260Y787D01*
Y25984D01*
X250000D01*
X259055Y25984D01*
D02*
G37*
G36*
X524803Y25591D02*
Y394D01*
X487008Y394D01*
Y25591D01*
X515748D01*
X524803Y25591D01*
D02*
G37*
D36*
X190215Y446833D02*
D03*
X206951Y446364D02*
D03*
X225451Y447364D02*
D03*
D37*
X187754Y446833D02*
D03*
X209411Y446364D02*
D03*
X227911Y447364D02*
D03*
D38*
X188984Y445947D02*
D03*
X208181Y445478D02*
D03*
X226681Y446478D02*
D03*
X245681Y446148D02*
D03*
X266181D02*
D03*
D39*
X188935Y447718D02*
D03*
X208132Y447250D02*
D03*
X226632Y448250D02*
D03*
X245632Y447919D02*
D03*
X266132Y447919D02*
D03*
D40*
X246911Y447034D02*
D03*
X267411D02*
D03*
D41*
X244451D02*
D03*
X264951D02*
D03*
D42*
X61221Y341339D02*
D03*
X79724D02*
D03*
D43*
X453543Y32677D02*
D03*
X461417D02*
D03*
X234807Y56484D02*
D03*
X242681D02*
D03*
X74181Y261484D02*
D03*
X66307D02*
D03*
X67181Y283484D02*
D03*
X75055D02*
D03*
X27307Y431984D02*
D03*
X35181D02*
D03*
X52362Y432677D02*
D03*
X44488D02*
D03*
X251181Y56984D02*
D03*
X259055D02*
D03*
X59118Y477984D02*
D03*
X51244D02*
D03*
X40618Y477484D02*
D03*
X32744D02*
D03*
X192555Y319484D02*
D03*
X184681D02*
D03*
D44*
X455465Y49350D02*
D03*
X236181Y73484D02*
D03*
D45*
X444787Y41850D02*
D03*
Y46850D02*
D03*
Y51850D02*
D03*
Y56850D02*
D03*
X466142D02*
D03*
Y51850D02*
D03*
Y46850D02*
D03*
Y41850D02*
D03*
X225504Y65984D02*
D03*
Y70984D02*
D03*
Y75984D02*
D03*
Y80984D02*
D03*
X246858D02*
D03*
Y75984D02*
D03*
Y70984D02*
D03*
Y65984D02*
D03*
X152504Y329484D02*
D03*
Y324484D02*
D03*
Y319484D02*
D03*
Y314484D02*
D03*
X173858D02*
D03*
Y319484D02*
D03*
Y324484D02*
D03*
Y329484D02*
D03*
D46*
X440512Y65354D02*
D03*
X446890D02*
D03*
X459016D02*
D03*
X465394D02*
D03*
X220492Y243484D02*
D03*
X226870D02*
D03*
X230354Y211024D02*
D03*
X223976D02*
D03*
X73870Y272984D02*
D03*
X67492D02*
D03*
X134370Y326484D02*
D03*
X127992D02*
D03*
D47*
X477559Y42520D02*
D03*
Y34646D02*
D03*
X257181Y67047D02*
D03*
Y74921D02*
D03*
X16681Y452547D02*
D03*
Y460421D02*
D03*
X477165Y52362D02*
D03*
Y60236D02*
D03*
D48*
X216158Y267681D02*
D03*
X238205D02*
D03*
D49*
X221276Y276933D02*
D03*
X233087D02*
D03*
D50*
X233480Y257839D02*
D03*
X227181D02*
D03*
X220882D02*
D03*
D51*
X223681Y220350D02*
D03*
X219941Y228618D02*
D03*
X227421D02*
D03*
D52*
X216681Y70173D02*
D03*
Y63795D02*
D03*
X175181Y306673D02*
D03*
Y300295D02*
D03*
X166181Y306673D02*
D03*
Y300295D02*
D03*
X156681Y306673D02*
D03*
Y300295D02*
D03*
X234681Y88795D02*
D03*
Y95173D02*
D03*
D53*
X29551Y444984D02*
D03*
Y449984D02*
D03*
Y454984D02*
D03*
Y459984D02*
D03*
X50811D02*
D03*
Y454984D02*
D03*
Y449984D02*
D03*
Y444984D02*
D03*
D54*
X88595Y302626D02*
D03*
X52768D02*
D03*
X88595Y320342D02*
D03*
X52768D02*
D03*
X92126Y364567D02*
D03*
X56299D02*
D03*
X92126Y382283D02*
D03*
X56299D02*
D03*
D55*
X138264Y318484D02*
D03*
Y311004D02*
D03*
X128028D02*
D03*
Y314744D02*
D03*
Y318484D02*
D03*
D56*
X176681Y373602D02*
D03*
Y353366D02*
D03*
X154181Y373602D02*
D03*
Y353366D02*
D03*
D57*
X111705Y348913D02*
D03*
X129657D02*
D03*
D58*
X120681Y377043D02*
D03*
D59*
X78976Y404984D02*
D03*
X103386D02*
D03*
X43976Y405484D02*
D03*
X68386D02*
D03*
D60*
X75587Y444984D02*
D03*
X63776D02*
D03*
X75181Y456984D02*
D03*
X63370D02*
D03*
D61*
X188886Y451311D02*
D03*
X188984Y442453D02*
D03*
X208083Y450843D02*
D03*
X208181Y441984D02*
D03*
X226583Y451842D02*
D03*
X226681Y442984D02*
D03*
X245583Y451512D02*
D03*
X245681Y442654D02*
D03*
X266083Y451512D02*
D03*
X266181Y442654D02*
D03*
D62*
X215685Y325984D02*
D03*
X258677D02*
D03*
D63*
X237181Y375984D02*
D03*
D64*
X227685Y325984D02*
D03*
X240677D02*
D03*
D65*
X487878Y50689D02*
D03*
X487681Y63484D02*
D03*
X9181Y438984D02*
D03*
X188878Y429185D02*
D03*
X188779Y416980D02*
D03*
X208780D02*
D03*
X208878Y429185D02*
D03*
X226878Y428685D02*
D03*
X226780Y416480D02*
D03*
X245779Y415980D02*
D03*
X245878Y428185D02*
D03*
X266378Y428685D02*
D03*
X266280Y416480D02*
D03*
X185181Y328984D02*
D03*
X10776Y271032D02*
D03*
X10874Y278611D02*
D03*
X11139Y244960D02*
D03*
X10646Y309330D02*
D03*
X10745Y286299D02*
D03*
X9859Y330393D02*
D03*
X10646Y302047D02*
D03*
X10745Y293779D02*
D03*
X10879Y236003D02*
D03*
X9681Y319984D02*
D03*
X10942Y260118D02*
D03*
X198681Y308984D02*
D03*
D66*
X289138Y325028D02*
D03*
X316224D02*
D03*
Y297941D02*
D03*
X289138D02*
D03*
X269638Y271028D02*
D03*
X296724D02*
D03*
Y243941D02*
D03*
X269638D02*
D03*
X169638Y61528D02*
D03*
X196724D02*
D03*
Y34441D02*
D03*
X169638D02*
D03*
X386638Y48028D02*
D03*
X413724D02*
D03*
Y20941D02*
D03*
X386638D02*
D03*
X98638Y459028D02*
D03*
X125724D02*
D03*
Y431941D02*
D03*
X98638D02*
D03*
X292138Y393028D02*
D03*
X319224D02*
D03*
Y365941D02*
D03*
X292138D02*
D03*
D67*
X302681Y311484D02*
D03*
X283181Y257484D02*
D03*
X183181Y47984D02*
D03*
X400181Y34484D02*
D03*
X112181Y445484D02*
D03*
X305681Y379484D02*
D03*
D68*
X168583Y465390D02*
D03*
X168780Y449248D02*
D03*
X168583Y435390D02*
D03*
X168780Y419248D02*
D03*
X11006Y346789D02*
D03*
X11237Y357165D02*
D03*
X145669Y311024D02*
D03*
X243681Y264984D02*
D03*
X210681D02*
D03*
X123681Y420484D02*
D03*
X126181Y470984D02*
D03*
X133681D02*
D03*
X119181D02*
D03*
X131181Y419984D02*
D03*
X115681D02*
D03*
X519681Y89484D02*
D03*
X486681Y89984D02*
D03*
X455681Y89484D02*
D03*
X420681D02*
D03*
X306181Y74484D02*
D03*
X285181Y61484D02*
D03*
X290604Y96186D02*
D03*
X301681Y94484D02*
D03*
X283681Y102984D02*
D03*
Y110984D02*
D03*
X288681Y119484D02*
D03*
X297931Y120734D02*
D03*
X293681Y161484D02*
D03*
X370681Y89484D02*
D03*
X301181Y136484D02*
D03*
Y128484D02*
D03*
D69*
X518898Y20079D02*
D03*
X506299D02*
D03*
X494095Y20472D02*
D03*
X228346Y20866D02*
D03*
X240551Y20472D02*
D03*
X253150D02*
D03*
X20866Y161811D02*
D03*
Y174409D02*
D03*
X21260Y186614D02*
D03*
X311811Y468110D02*
D03*
X322047D02*
D03*
X433450Y382689D02*
D03*
X433777Y392428D02*
D03*
X180709Y487008D02*
D03*
X355681Y208984D02*
D03*
X296681Y107984D02*
D03*
D70*
X114567Y328740D02*
D03*
X49213Y338976D02*
D03*
X215748Y210630D02*
D03*
X470079Y74410D02*
D03*
X458268Y74016D02*
D03*
X434252Y60236D02*
D03*
X239370Y211024D02*
D03*
X446959Y73908D02*
D03*
X6693Y455905D02*
D03*
X14567Y470472D02*
D03*
X76681Y434484D02*
D03*
X77181Y468484D02*
D03*
X215181Y98484D02*
D03*
X121681Y314484D02*
D03*
X116181Y305484D02*
D03*
X227181Y250484D02*
D03*
D71*
X439988Y46614D02*
D03*
X436221Y46457D02*
D03*
X211523Y63833D02*
D03*
X208661Y63780D02*
D03*
X211417Y70079D02*
D03*
X208661D02*
D03*
D72*
X249681Y86984D02*
D03*
X245681D02*
D03*
X241681D02*
D03*
X269181Y73484D02*
D03*
X294181Y89484D02*
D03*
X285181Y77484D02*
D03*
X290181Y89984D02*
D03*
X276681Y80484D02*
D03*
X285681Y92484D02*
D03*
X270681Y83984D02*
D03*
X281681Y94984D02*
D03*
X263681Y90484D02*
D03*
X278681Y96984D02*
D03*
X262181Y100484D02*
D03*
X276681Y101484D02*
D03*
X262181Y104484D02*
D03*
X277181Y105484D02*
D03*
X262181Y108484D02*
D03*
X277181Y108984D02*
D03*
X262681Y113484D02*
D03*
X277181Y112484D02*
D03*
X264181Y119484D02*
D03*
X278181Y115984D02*
D03*
X267681Y127484D02*
D03*
X279681Y119484D02*
D03*
X272181Y131984D02*
D03*
X282181Y121984D02*
D03*
X278681Y136484D02*
D03*
X285181Y125484D02*
D03*
X284681Y138484D02*
D03*
X289181Y125484D02*
D03*
Y139484D02*
D03*
X292681Y125484D02*
D03*
Y139984D02*
D03*
X296181Y125984D02*
D03*
Y139984D02*
D03*
X203181Y308484D02*
D03*
X174181Y294484D02*
D03*
X183681Y345984D02*
D03*
X171681D02*
D03*
X158681D02*
D03*
X148181D02*
D03*
X222681Y283984D02*
D03*
Y287984D02*
D03*
X219681Y283984D02*
D03*
Y287984D02*
D03*
X249181Y328484D02*
D03*
Y332484D02*
D03*
Y323984D02*
D03*
Y318984D02*
D03*
X174181Y333484D02*
D03*
Y336984D02*
D03*
X165181Y294484D02*
D03*
X156181D02*
D03*
M02*
