G04*
G04 #@! TF.GenerationSoftware,Altium Limited,Altium Designer,20.2.7 (254)*
G04*
G04 Layer_Color=255*
%FSLAX25Y25*%
%MOIN*%
G70*
G04*
G04 #@! TF.SameCoordinates,6C2C61A8-3AF8-4D38-8781-6E19ECE08A8B*
G04*
G04*
G04 #@! TF.FilePolarity,Positive*
G04*
G01*
G75*
%ADD61C,0.03937*%
D61*
X541500Y154028D02*
D03*
Y174500D02*
D03*
X14500Y40000D02*
D03*
X262500Y117000D02*
D03*
X262697Y133240D02*
D03*
X283697Y117224D02*
D03*
X283894Y133465D02*
D03*
X215500Y116500D02*
D03*
X215697Y132740D02*
D03*
X193197Y117724D02*
D03*
X193394Y133965D02*
D03*
X238697Y117224D02*
D03*
X238894Y133465D02*
D03*
X26000Y211000D02*
D03*
X76303Y209276D02*
D03*
X76106Y193035D02*
D03*
X213500Y182500D02*
D03*
X86197Y192724D02*
D03*
X86394Y208965D02*
D03*
X97697Y191724D02*
D03*
X97894Y207965D02*
D03*
X81197Y162224D02*
D03*
X81394Y178465D02*
D03*
X93697Y162224D02*
D03*
X93894Y178465D02*
D03*
X106197Y162224D02*
D03*
X106394Y178465D02*
D03*
X14500Y53000D02*
D03*
X19000Y102500D02*
D03*
X18902Y110768D02*
D03*
Y119331D02*
D03*
X19000Y137244D02*
D03*
Y95020D02*
D03*
Y87441D02*
D03*
X76500Y17500D02*
D03*
M02*
