G04*
G04 #@! TF.GenerationSoftware,Altium Limited,Altium Designer,20.2.7 (254)*
G04*
G04 Layer_Color=8388736*
%FSLAX25Y25*%
%MOIN*%
G70*
G04*
G04 #@! TF.SameCoordinates,6C2C61A8-3AF8-4D38-8781-6E19ECE08A8B*
G04*
G04*
G04 #@! TF.FilePolarity,Negative*
G04*
G01*
G75*
%ADD32R,0.00689X0.02461*%
%ADD33R,0.00689X0.02461*%
%ADD34R,0.02165X0.00689*%
%ADD35R,0.02067X0.00689*%
%ADD36R,0.04540X0.06312*%
%ADD37R,0.06312X0.09068*%
%ADD38R,0.05328X0.07887*%
%ADD39R,0.07257X0.05997*%
%ADD40R,0.05328X0.03162*%
%ADD41R,0.12611X0.20485*%
%ADD42R,0.66115X0.53910*%
%ADD43R,0.04934X0.13792*%
%ADD44R,0.04934X0.07887*%
%ADD45R,0.22099X0.06587*%
%ADD46R,0.06706X0.03359*%
%ADD47R,0.08674X0.02769*%
%ADD48R,0.07690X0.04540*%
%ADD49R,0.07690X0.13398*%
%ADD50R,0.04816X0.06587*%
%ADD51R,0.06312X0.04540*%
%ADD52R,0.03753X0.05721*%
%ADD53C,0.04737*%
%ADD54C,0.05800*%
D32*
X285427Y149683D02*
D03*
X263427Y149183D02*
D03*
X239927Y149077D02*
D03*
X217427Y149577D02*
D03*
X194927D02*
D03*
D33*
X282966Y149683D02*
D03*
X260966Y149183D02*
D03*
X237467Y149077D02*
D03*
X214967Y149577D02*
D03*
X192466D02*
D03*
D34*
X284197Y148797D02*
D03*
X262197Y148297D02*
D03*
X238697Y148191D02*
D03*
X216197Y148691D02*
D03*
X193697Y148691D02*
D03*
D35*
X284148Y150569D02*
D03*
X262148Y150069D02*
D03*
X238648Y149963D02*
D03*
X216148Y150463D02*
D03*
X193648Y150463D02*
D03*
D36*
X141563Y26000D02*
D03*
X149437D02*
D03*
X25563Y159500D02*
D03*
X33437D02*
D03*
X62374Y203500D02*
D03*
X54500D02*
D03*
X58563Y166500D02*
D03*
X66437D02*
D03*
X45063Y176000D02*
D03*
X52937D02*
D03*
X46063Y188000D02*
D03*
X53937D02*
D03*
X83500Y95500D02*
D03*
X91374D02*
D03*
X80063Y110500D02*
D03*
X87937D02*
D03*
D37*
X44284Y26000D02*
D03*
Y61827D02*
D03*
X62000Y26000D02*
D03*
Y61827D02*
D03*
D38*
X523083Y233500D02*
D03*
X534500D02*
D03*
D39*
X145000Y80358D02*
D03*
Y62642D02*
D03*
X130000Y142858D02*
D03*
Y125142D02*
D03*
X110000D02*
D03*
Y142858D02*
D03*
X89500D02*
D03*
Y125142D02*
D03*
X128000Y111858D02*
D03*
Y94142D02*
D03*
X125500Y80358D02*
D03*
Y62642D02*
D03*
D40*
X114382Y33240D02*
D03*
Y29500D02*
D03*
Y25760D02*
D03*
X124618D02*
D03*
Y33240D02*
D03*
X91382Y34240D02*
D03*
Y30500D02*
D03*
Y26760D02*
D03*
X101618D02*
D03*
Y30500D02*
D03*
Y34240D02*
D03*
D41*
X255996Y26205D02*
D03*
X213004D02*
D03*
D42*
X234500Y76205D02*
D03*
D43*
X47795Y143000D02*
D03*
X72205D02*
D03*
D44*
X35906Y196500D02*
D03*
X24094D02*
D03*
Y177500D02*
D03*
X35906D02*
D03*
D45*
X154925Y121500D02*
D03*
Y101264D02*
D03*
D46*
X44370Y229500D02*
D03*
Y224500D02*
D03*
Y219500D02*
D03*
Y214500D02*
D03*
X65630D02*
D03*
Y219500D02*
D03*
Y224500D02*
D03*
Y229500D02*
D03*
D47*
X284098Y154161D02*
D03*
X284197Y145303D02*
D03*
X262098Y153661D02*
D03*
X262197Y144803D02*
D03*
X238598Y153555D02*
D03*
X238697Y144697D02*
D03*
X216098Y154055D02*
D03*
X216197Y145197D02*
D03*
X193598Y154055D02*
D03*
X193697Y145197D02*
D03*
D48*
X43500Y97555D02*
D03*
Y88500D02*
D03*
Y79445D02*
D03*
D49*
X68303Y88500D02*
D03*
D50*
X102311Y82500D02*
D03*
X108689D02*
D03*
X101480Y96500D02*
D03*
X107858D02*
D03*
X84811Y68000D02*
D03*
X91189D02*
D03*
X121980Y47500D02*
D03*
X128358D02*
D03*
X104980D02*
D03*
X111358D02*
D03*
X87980D02*
D03*
X94358D02*
D03*
X84811Y83500D02*
D03*
X91189D02*
D03*
D51*
X78500Y42937D02*
D03*
Y35063D02*
D03*
D52*
X163500Y25004D02*
D03*
Y37996D02*
D03*
D53*
X541500Y154028D02*
D03*
Y174500D02*
D03*
X14500Y40000D02*
D03*
X262500Y117000D02*
D03*
X262697Y133240D02*
D03*
X283697Y117224D02*
D03*
X283894Y133465D02*
D03*
X215500Y116500D02*
D03*
X215697Y132740D02*
D03*
X193197Y117724D02*
D03*
X193394Y133965D02*
D03*
X238697Y117224D02*
D03*
X238894Y133465D02*
D03*
X26000Y211000D02*
D03*
X76303Y209276D02*
D03*
X76106Y193035D02*
D03*
X213500Y182500D02*
D03*
X86197Y192724D02*
D03*
X86394Y208965D02*
D03*
X97697Y191724D02*
D03*
X97894Y207965D02*
D03*
X81197Y162224D02*
D03*
X81394Y178465D02*
D03*
X93697Y162224D02*
D03*
X93894Y178465D02*
D03*
X106197Y162224D02*
D03*
X106394Y178465D02*
D03*
X14500Y53000D02*
D03*
X19000Y102500D02*
D03*
X18902Y110768D02*
D03*
Y119331D02*
D03*
X19000Y137244D02*
D03*
Y95020D02*
D03*
Y87441D02*
D03*
X76500Y17500D02*
D03*
D54*
X87000Y55500D02*
D03*
X107500Y39500D02*
D03*
X135000Y31000D02*
D03*
X514500Y40000D02*
D03*
X66000Y196500D02*
D03*
X43000Y71000D02*
D03*
X35000Y62000D02*
D03*
X101500Y66500D02*
D03*
X108000Y71000D02*
D03*
X144000Y37000D02*
D03*
X63000Y15500D02*
D03*
X26500Y50000D02*
D03*
X31500Y26000D02*
D03*
X44000Y201594D02*
D03*
X31500Y207000D02*
D03*
X40500Y164000D02*
D03*
X65000Y179500D02*
D03*
X523083Y243083D02*
D03*
X541500Y197500D02*
D03*
X79000Y77000D02*
D03*
X34000Y97000D02*
D03*
X72000Y121000D02*
D03*
X152500Y36000D02*
D03*
X102000Y57500D02*
D03*
X37000Y40000D02*
D03*
X492000Y41000D02*
D03*
X493500Y212500D02*
D03*
X528500Y213000D02*
D03*
X519000D02*
D03*
X521500Y40000D02*
D03*
X529500Y40500D02*
D03*
X236000Y198500D02*
D03*
X406500Y102500D02*
D03*
M02*
