G04*
G04 #@! TF.GenerationSoftware,Altium Limited,Altium Designer,20.2.7 (254)*
G04*
G04 Layer_Color=16711935*
%FSLAX25Y25*%
%MOIN*%
G70*
G04*
G04 #@! TF.SameCoordinates,6C2C61A8-3AF8-4D38-8781-6E19ECE08A8B*
G04*
G04*
G04 #@! TF.FilePolarity,Negative*
G04*
G01*
G75*
%ADD53C,0.04737*%
%ADD54C,0.05800*%
D53*
X541500Y154028D02*
D03*
Y174500D02*
D03*
X14500Y40000D02*
D03*
X262500Y117000D02*
D03*
X262697Y133240D02*
D03*
X283697Y117224D02*
D03*
X283894Y133465D02*
D03*
X215500Y116500D02*
D03*
X215697Y132740D02*
D03*
X193197Y117724D02*
D03*
X193394Y133965D02*
D03*
X238697Y117224D02*
D03*
X238894Y133465D02*
D03*
X26000Y211000D02*
D03*
X76303Y209276D02*
D03*
X76106Y193035D02*
D03*
X213500Y182500D02*
D03*
X86197Y192724D02*
D03*
X86394Y208965D02*
D03*
X97697Y191724D02*
D03*
X97894Y207965D02*
D03*
X81197Y162224D02*
D03*
X81394Y178465D02*
D03*
X93697Y162224D02*
D03*
X93894Y178465D02*
D03*
X106197Y162224D02*
D03*
X106394Y178465D02*
D03*
X14500Y53000D02*
D03*
X19000Y102500D02*
D03*
X18902Y110768D02*
D03*
Y119331D02*
D03*
X19000Y137244D02*
D03*
Y95020D02*
D03*
Y87441D02*
D03*
X76500Y17500D02*
D03*
D54*
X87000Y55500D02*
D03*
X107500Y39500D02*
D03*
X135000Y31000D02*
D03*
X514500Y40000D02*
D03*
X66000Y196500D02*
D03*
X43000Y71000D02*
D03*
X35000Y62000D02*
D03*
X101500Y66500D02*
D03*
X108000Y71000D02*
D03*
X144000Y37000D02*
D03*
X63000Y15500D02*
D03*
X26500Y50000D02*
D03*
X31500Y26000D02*
D03*
X44000Y201594D02*
D03*
X31500Y207000D02*
D03*
X40500Y164000D02*
D03*
X65000Y179500D02*
D03*
X523083Y243083D02*
D03*
X541500Y197500D02*
D03*
X79000Y77000D02*
D03*
X34000Y97000D02*
D03*
X72000Y121000D02*
D03*
X152500Y36000D02*
D03*
X102000Y57500D02*
D03*
X37000Y40000D02*
D03*
X492000Y41000D02*
D03*
X493500Y212500D02*
D03*
X528500Y213000D02*
D03*
X519000D02*
D03*
X521500Y40000D02*
D03*
X529500Y40500D02*
D03*
X236000Y198500D02*
D03*
X406500Y102500D02*
D03*
M02*
