G04*
G04 #@! TF.GenerationSoftware,Altium Limited,Altium Designer,20.2.7 (254)*
G04*
G04 Layer_Physical_Order=1*
G04 Layer_Color=255*
%FSLAX25Y25*%
%MOIN*%
G70*
G04*
G04 #@! TF.SameCoordinates,CF43E641-EDBD-4116-B357-B4F524034C76*
G04*
G04*
G04 #@! TF.FilePolarity,Positive*
G04*
G01*
G75*
%ADD12C,0.01575*%
%ADD13C,0.01000*%
%ADD15R,0.03740X0.05512*%
%ADD16R,0.04134X0.07087*%
%ADD17R,0.05512X0.08268*%
%ADD18R,0.06890X0.12598*%
%ADD19R,0.06890X0.03740*%
%ADD20R,0.04016X0.05787*%
%ADD21R,0.04724X0.02362*%
%ADD22R,0.21299X0.05787*%
%ADD23R,0.11811X0.19685*%
%ADD24R,0.65315X0.53110*%
%ADD25R,0.07087X0.04528*%
%ADD26R,0.04331X0.10630*%
%ADD27R,0.06457X0.05197*%
%ADD28R,0.04528X0.02362*%
%ADD29R,0.04134X0.12992*%
%ADD30R,0.05906X0.02559*%
%ADD31R,0.07874X0.01968*%
%ADD32R,0.05512X0.03740*%
%ADD33R,0.02953X0.04921*%
%ADD60C,0.09843*%
%ADD61C,0.11811*%
%ADD62C,0.03937*%
%ADD63C,0.01181*%
%ADD64C,0.06299*%
%ADD65C,0.06693*%
%ADD66C,0.03937*%
%ADD67C,0.05000*%
%ADD68C,0.01968*%
G36*
X281984Y173028D02*
Y172240D01*
X285035Y169189D01*
X277358D01*
X280410Y172240D01*
Y173028D01*
Y173126D01*
X277260Y176276D01*
X284982D01*
X281984Y173028D01*
D02*
G37*
G36*
X213984Y172921D02*
Y172134D01*
X217035Y169083D01*
X209358D01*
X212409Y172134D01*
Y172921D01*
Y173020D01*
X209260Y176169D01*
X216982D01*
X213984Y172921D01*
D02*
G37*
G36*
X191484D02*
Y172134D01*
X194535Y169083D01*
X186858D01*
X189909Y172134D01*
Y172921D01*
Y173020D01*
X186760Y176169D01*
X194482D01*
X191484Y172921D01*
D02*
G37*
G36*
X259984Y172528D02*
Y171740D01*
X263035Y168689D01*
X255358D01*
X258410Y171740D01*
Y172528D01*
Y172626D01*
X255260Y175776D01*
X262982D01*
X259984Y172528D01*
D02*
G37*
G36*
X236484Y172421D02*
Y171634D01*
X239535Y168583D01*
X231858D01*
X234910Y171634D01*
Y172421D01*
Y172520D01*
X231760Y175669D01*
X239482D01*
X236484Y172421D01*
D02*
G37*
G36*
X275500Y53500D02*
X199856Y52505D01*
X199500Y52856D01*
Y116500D01*
X197500Y118500D01*
X198000Y119000D01*
X275500D01*
Y53500D01*
D02*
G37*
G36*
X184500Y49000D02*
X163500D01*
Y60000D01*
X184500D01*
Y49000D01*
D02*
G37*
G36*
X264000Y2500D02*
X243500D01*
Y42000D01*
X264000D01*
Y2500D01*
D02*
G37*
%LPC*%
G36*
X257697Y34789D02*
X256922Y34687D01*
X256200Y34388D01*
X255580Y33912D01*
X255104Y33292D01*
X254805Y32570D01*
X254703Y31795D01*
X254805Y31020D01*
X255104Y30298D01*
X255580Y29678D01*
X255875Y29383D01*
X256495Y28907D01*
X257217Y28608D01*
X257992Y28506D01*
X258767Y28608D01*
X259489Y28907D01*
X260109Y29383D01*
X260585Y30003D01*
X260884Y30725D01*
X260986Y31500D01*
X260884Y32275D01*
X260585Y32997D01*
X260109Y33617D01*
X259814Y33912D01*
X259194Y34388D01*
X258472Y34687D01*
X257697Y34789D01*
D02*
G37*
%LPD*%
D12*
X45063Y177590D02*
X45751D01*
X76500Y11086D02*
X78086Y9500D01*
X211303Y25004D02*
X215504Y29205D01*
X163500Y25004D02*
X211303D01*
X78086Y9500D02*
X147996D01*
X163500Y25004D01*
X61000Y9000D02*
X75500D01*
X76500Y10000D02*
Y11086D01*
X75500Y9000D02*
X76500Y10000D01*
Y11086D02*
Y17500D01*
X55000Y15000D02*
Y29500D01*
Y15000D02*
X61000Y9000D01*
X55000Y29500D02*
X60563Y35063D01*
X78500D01*
X44359Y177590D02*
X45063D01*
X16500Y187429D02*
X24094Y195024D01*
Y196500D02*
X25413Y197819D01*
Y200913D01*
X31500Y207000D01*
X24094Y195024D02*
Y196500D01*
X35906Y177500D02*
X36500Y176906D01*
Y168000D02*
X40500Y164000D01*
X36500Y168000D02*
Y176906D01*
X38000Y186500D02*
X43980Y180520D01*
X27000Y186500D02*
X38000D01*
X43980Y177969D02*
Y180520D01*
Y177969D02*
X44359Y177590D01*
X45063Y176000D02*
Y177590D01*
Y176000D02*
X45063Y176000D01*
X24094Y183595D02*
X27000Y186500D01*
X30500Y165000D02*
X30500D01*
X16500Y173500D02*
X21857Y168143D01*
X27357D02*
X30500Y165000D01*
X21857Y168143D02*
X27357D01*
X30500Y165000D02*
X32067Y163433D01*
X16500Y173500D02*
Y187429D01*
X24094Y177500D02*
Y183595D01*
X32067Y160870D02*
X33437Y159500D01*
X32067Y160870D02*
Y163433D01*
D13*
X102000Y37500D02*
X107000Y32500D01*
X88309Y41362D02*
X92172Y37500D01*
X102000D01*
X96480Y35500D02*
X101240Y30740D01*
X89039Y35500D02*
X96480D01*
X86106Y38433D02*
X89039Y35500D01*
X109500Y27027D02*
Y44756D01*
X62500Y203500D02*
Y209000D01*
X45751Y177590D02*
Y188000D01*
X73513Y143084D02*
X73584Y141984D01*
X72910Y143705D02*
X73512Y143104D01*
X37405Y195000D02*
X44000Y201594D01*
X101197Y159224D02*
X118697D01*
X81197D02*
X101197D01*
X73500Y166500D02*
X81075Y158925D01*
X527500Y212550D02*
Y213207D01*
X91189Y75811D02*
Y83500D01*
X63982Y178482D02*
X65000D01*
X62061Y176561D02*
X63982Y178482D01*
X73500Y166500D02*
Y180028D01*
X17500Y208500D02*
Y220500D01*
X19000Y222000D01*
Y222295D01*
X26205Y229500D02*
X44370D01*
X19000Y222295D02*
X26205Y229500D01*
X12500Y203500D02*
X17500Y208500D01*
X12500Y170000D02*
Y203500D01*
X285658Y136764D02*
X297598D01*
X305000Y6500D02*
Y145307D01*
X297402Y152905D02*
X305000Y145307D01*
X297500Y163665D02*
X297598Y163764D01*
X297500Y153004D02*
Y163665D01*
X297402Y152905D02*
X297500Y153004D01*
X290000Y187307D02*
X297402Y179905D01*
X305000Y6500D02*
X305500Y6000D01*
X281197Y141224D02*
X285658Y136764D01*
X280697Y141724D02*
X281197Y141224D01*
X296402Y152905D02*
X296500Y153004D01*
X285224Y187307D02*
X290000D01*
X281098Y183181D02*
X285224Y187307D01*
X541500Y197500D02*
Y198086D01*
Y174500D02*
Y197500D01*
X73500Y180028D02*
X86197Y192724D01*
X97197Y192224D02*
X97697Y191724D01*
X86697Y192224D02*
X97197D01*
X86197Y192724D02*
X86697Y192224D01*
X85957Y23043D02*
Y25957D01*
Y23043D02*
X89500Y19500D01*
X85957Y25957D02*
X87000Y27000D01*
X92579D01*
X108050Y19500D02*
X112618Y24068D01*
X89500Y19500D02*
X108050D01*
X87500Y17000D02*
X117654D01*
X82500Y22000D02*
Y27500D01*
Y22000D02*
X87500Y17000D01*
X62000Y26000D02*
X74500D01*
X87500Y13000D02*
X121000D01*
X74500Y26000D02*
X87500Y13000D01*
X121000D02*
X128672Y20672D01*
X92579Y23260D02*
X102421D01*
X85740Y30740D02*
X92579D01*
X82500Y27500D02*
X85740Y30740D01*
X102421Y23260D02*
X106260D01*
X107000Y24000D01*
Y32500D01*
X101240Y30740D02*
X102421D01*
X533968Y243083D02*
X534051Y243000D01*
X523083Y243083D02*
X533968D01*
X552949Y239850D02*
Y243000D01*
X543500Y230402D02*
X552949Y239850D01*
X543500Y200086D02*
Y230402D01*
X73512Y143104D02*
X73513Y143085D01*
X73513Y143084D01*
X35000Y62000D02*
X44110D01*
X31500Y26000D02*
X44284D01*
X51551Y50000D02*
X59744Y58193D01*
X62000Y60449D02*
Y61827D01*
X44110Y62000D02*
Y63032D01*
X63000Y20500D02*
X63452Y20952D01*
X62000Y26000D02*
X63452Y24548D01*
X63000Y15500D02*
Y20500D01*
X26500Y50000D02*
X51551D01*
X63452Y20952D02*
Y24548D01*
X59744Y58193D02*
X59744D01*
X62000Y60449D01*
X70500Y56000D02*
X86500D01*
X87000Y55500D01*
X135000Y31000D02*
X137744Y28256D01*
X141563Y26000D02*
Y26886D01*
X140193Y28256D02*
X141563Y26886D01*
X137744Y28256D02*
X140193D01*
X152000Y35500D02*
X152500Y36000D01*
X152000Y29449D02*
Y35500D01*
X149437Y26000D02*
Y26886D01*
X152000Y29449D01*
X520000Y50000D02*
Y194500D01*
Y50000D02*
X529500Y40500D01*
X520000Y194500D02*
X534000Y208500D01*
X513500Y48000D02*
X521500Y40000D01*
X513500Y198550D02*
X527500Y212550D01*
X513500Y48000D02*
Y198550D01*
X507500Y200843D02*
X519000Y212343D01*
X508086Y40765D02*
X513735D01*
X507500Y41351D02*
X508086Y40765D01*
X507500Y41351D02*
Y200843D01*
X492000Y42082D02*
X497500Y47582D01*
X493500Y211418D02*
X497500Y207418D01*
Y47582D02*
Y207418D01*
X513735Y40765D02*
X514500Y40000D01*
X73513Y143084D02*
X73513Y143084D01*
X68928Y162244D02*
X70083Y163398D01*
Y226720D01*
X59500Y196500D02*
X66000D01*
X73513Y143084D02*
Y143084D01*
X73513Y143084D02*
X73513Y143084D01*
X80063Y110500D02*
Y111386D01*
Y109614D02*
Y110500D01*
X84811Y68000D02*
Y68886D01*
Y67114D02*
Y68000D01*
X104980Y47500D02*
Y48386D01*
Y47066D02*
Y47500D01*
X43000Y71000D02*
Y78945D01*
X101500Y64500D02*
Y66500D01*
Y64500D02*
X118000Y48000D01*
X103819Y75181D02*
Y80992D01*
Y75181D02*
X108000Y71000D01*
X131000Y37000D02*
X144000D01*
X123488Y44512D02*
X131000Y37000D01*
X111358Y46614D02*
Y47500D01*
X109500Y44756D02*
X111358Y46614D01*
X110086Y26441D02*
X113701D01*
X109500Y27027D02*
X110086Y26441D01*
X91000Y41500D02*
X98000D01*
X103472Y45558D02*
X104980Y47066D01*
X102058Y45558D02*
X103472D01*
X98000Y41500D02*
X102058Y45558D01*
X88808Y43692D02*
X91000Y41500D01*
X88808Y43692D02*
Y46672D01*
X87980Y47500D02*
X88808Y46672D01*
X80075Y41362D02*
X88309D01*
X72500Y41586D02*
Y46151D01*
X73849Y47500D02*
X87980D01*
X72500Y46151D02*
X73849Y47500D01*
X72500Y41586D02*
X75653Y38433D01*
X117654Y17000D02*
X124618Y23964D01*
X128672Y20672D02*
Y27549D01*
X35906Y196500D02*
X37405Y195000D01*
X48000Y200157D02*
X50000Y198157D01*
X48000Y200157D02*
Y204517D01*
X50000Y200985D02*
X53000Y197985D01*
X50000Y200985D02*
Y207500D01*
X45194Y212306D02*
X50000Y207500D01*
X45194Y212306D02*
Y213720D01*
X44414Y214500D02*
X45194Y213720D01*
X39917Y212599D02*
X48000Y204517D01*
X39917Y212599D02*
Y216721D01*
X50000Y192823D02*
Y198157D01*
X53000Y188937D02*
Y197985D01*
X44370Y214500D02*
X44414D01*
X39917Y216721D02*
X42697Y219500D01*
X46063Y188886D02*
X50000Y192823D01*
X53000Y188937D02*
X53937Y188000D01*
X54500Y203500D02*
Y209000D01*
Y203500D02*
X55870Y202130D01*
Y200130D02*
Y202130D01*
Y200130D02*
X59500Y196500D01*
X20744Y161756D02*
X24193D01*
X12500Y170000D02*
X20744Y161756D01*
X24193D02*
X25563Y160386D01*
Y159500D02*
Y160386D01*
X46063Y188000D02*
Y188886D01*
X62061Y174927D02*
Y176561D01*
X52937Y176000D02*
Y187000D01*
X53937Y188000D01*
X44370Y224500D02*
X54000D01*
X56500Y222000D01*
Y211000D02*
Y222000D01*
X54500Y209000D02*
X56500Y211000D01*
X44370Y229500D02*
X57500D01*
X59500Y227500D01*
Y212000D02*
Y227500D01*
Y212000D02*
X62500Y209000D01*
X62374Y203500D02*
X62500D01*
X42697Y219500D02*
X44370D01*
X541500Y198086D02*
X543500Y200086D01*
X523083Y224917D02*
Y243083D01*
Y224917D02*
X527000Y221000D01*
X532000D01*
X534000Y219000D01*
Y208500D02*
Y219000D01*
X62061Y167506D02*
Y174927D01*
X61475Y175513D02*
X62061Y174927D01*
X52937Y176000D02*
X53424Y175513D01*
X61475D01*
X91189Y67114D02*
Y68000D01*
X79000Y77000D02*
X79197D01*
X84811Y82614D02*
Y83500D01*
X79197Y77000D02*
X84811Y82614D01*
X74500Y70979D02*
X75086Y70394D01*
X74500Y85000D02*
X78856Y89356D01*
X75086Y70394D02*
X83303D01*
X74500Y70979D02*
Y85000D01*
X83303Y70394D02*
X84811Y68886D01*
X78856Y89356D02*
X84856D01*
X14500Y53000D02*
X23000Y44500D01*
X31000D01*
X33500Y47000D01*
X61500D01*
X70500Y56000D01*
X14500Y40000D02*
X15000Y39500D01*
X36500D02*
X37000Y40000D01*
X15000Y39500D02*
X36500D01*
X14500Y53000D02*
X20414D01*
X27500Y60086D01*
X43000Y78945D02*
X43500Y79445D01*
X42945Y97000D02*
X43500Y97555D01*
X34000Y97000D02*
X42945D01*
X102311Y82500D02*
X103819Y80992D01*
X118000Y35188D02*
Y48000D01*
Y35188D02*
X118146Y35043D01*
Y31438D02*
Y35043D01*
X116889Y30181D02*
X118146Y31438D01*
X115063Y30181D02*
X116889D01*
X114382Y29500D02*
X115063Y30181D01*
X101480Y83331D02*
Y96500D01*
Y83331D02*
X102311Y82500D01*
X81000Y121000D02*
X86567Y115433D01*
X72000Y121000D02*
X81000D01*
X493500Y211418D02*
Y212500D01*
X492000Y41000D02*
Y42082D01*
X94358Y55722D02*
Y63945D01*
Y47500D02*
Y55722D01*
X87278D02*
X94358D01*
X156000Y41500D02*
X160524D01*
X134358D02*
X156000D01*
X152500Y36000D02*
Y38000D01*
X156000Y41500D01*
X123488Y44512D02*
Y45992D01*
X121980Y47500D02*
X123488Y45992D01*
X160524Y41500D02*
X163500Y38524D01*
X128358Y47500D02*
X134358Y41500D01*
X102000Y57500D02*
X102472Y57028D01*
Y50894D02*
Y57028D01*
X43000Y143000D02*
X47795D01*
X37244Y137244D02*
X43000Y143000D01*
X19000Y137244D02*
X37244D01*
X540957Y154571D02*
X541500Y154028D01*
X519000Y212343D02*
Y213000D01*
X86567Y111870D02*
Y115433D01*
X87000Y91500D02*
Y98747D01*
X80500Y105000D02*
X85744Y99756D01*
X85991D01*
X87000Y98747D01*
X84856Y89356D02*
X87000Y91500D01*
X80063Y109614D02*
X80500Y109177D01*
Y105000D02*
Y109177D01*
X58563Y126437D02*
X72244Y112756D01*
X78693D01*
X58563Y126437D02*
Y165614D01*
X78693Y112756D02*
X80063Y111386D01*
X81207Y133435D02*
Y133435D01*
X86772Y127240D02*
X88870Y125142D01*
X86772Y127240D02*
Y127870D01*
X81207Y133435D02*
X86772Y127870D01*
X88870Y125142D02*
X89500D01*
X73291Y141351D02*
X81207Y133435D01*
X72205Y143000D02*
X72910Y143705D01*
X73291Y141351D02*
X73584Y141984D01*
X86567Y111870D02*
X87937Y110500D01*
X91374Y91374D02*
Y95500D01*
X84811Y83500D02*
X86319Y85008D01*
Y86319D01*
X91374Y91374D01*
X19000Y95020D02*
Y102500D01*
Y87441D02*
Y95020D01*
X29809Y73191D02*
X40555Y83936D01*
X27500Y70881D02*
X29809Y73191D01*
X19000Y87441D02*
X19028Y87413D01*
Y83972D02*
Y87413D01*
Y83972D02*
X29809Y73191D01*
X27500Y60086D02*
X31586Y56000D01*
X40555Y83936D02*
Y87130D01*
X31586Y56000D02*
X51000D01*
X41925Y88500D02*
X43500D01*
X40555Y87130D02*
X41925Y88500D01*
X27500Y60086D02*
Y70881D01*
X44110Y63032D02*
X55500Y74421D01*
X51000Y56000D02*
X53000Y58000D01*
Y63449D01*
X68303Y78752D02*
Y88500D01*
X53000Y63449D02*
X68303Y78752D01*
X55500Y74421D02*
Y87562D01*
X75479Y97586D02*
X77565Y95500D01*
X65523Y97586D02*
X75479D01*
X55500Y87562D02*
X65523Y97586D01*
X77565Y95500D02*
X83500D01*
X87937Y109614D02*
Y110500D01*
Y109614D02*
X89307Y108244D01*
X90193D01*
X97543Y100894D01*
X98851D01*
X62000Y61827D02*
X79524D01*
X84811Y67114D01*
X78500Y42937D02*
X80075Y41362D01*
X75653Y38433D02*
X86106D01*
X113701Y26441D02*
X114382Y25760D01*
X102472Y50894D02*
X104980Y48386D01*
X91189Y68000D02*
Y75811D01*
X91189Y83500D02*
Y84386D01*
X97500Y90697D02*
Y99543D01*
X104350Y100894D02*
X107858Y97386D01*
X97500Y99543D02*
X98851Y100894D01*
X107858Y96500D02*
Y97386D01*
X98851Y100894D02*
X104350D01*
X91189Y84386D02*
X97500Y90697D01*
X61946Y164244D02*
X63946Y162244D01*
X67303Y229500D02*
X70083Y226720D01*
X59933Y164244D02*
X61946D01*
X58563Y165614D02*
X59933Y164244D01*
X58563Y165614D02*
Y166500D01*
X63946Y162244D02*
X68928D01*
X65630Y229500D02*
X67303D01*
X62061Y167506D02*
X63067Y166500D01*
X66437D01*
X89500Y142858D02*
X110000D01*
Y125142D02*
X130000D01*
X91189Y67114D02*
X94358Y63945D01*
X108689Y82500D02*
Y95669D01*
X107858Y96500D02*
X108689Y95669D01*
X126382Y29839D02*
X128672Y27549D01*
X124618Y33240D02*
X125701D01*
X126382Y32559D01*
Y29839D02*
Y32559D01*
X112618Y25079D02*
X113299Y25760D01*
X112618Y24068D02*
Y25079D01*
X113299Y25760D02*
X114382D01*
X124618Y23964D02*
Y25760D01*
D15*
X54500Y203500D02*
D03*
X62374D02*
D03*
X53937Y188000D02*
D03*
X46063D02*
D03*
X66437Y166500D02*
D03*
X58563D02*
D03*
X52937Y176000D02*
D03*
X45063D02*
D03*
X33437Y159500D02*
D03*
X25563D02*
D03*
X91374Y95500D02*
D03*
X83500D02*
D03*
X149437Y26000D02*
D03*
X141563D02*
D03*
X80063Y110500D02*
D03*
X87937D02*
D03*
D16*
X35906Y177500D02*
D03*
X24094D02*
D03*
X35906Y196500D02*
D03*
X24094D02*
D03*
D17*
X44284Y26000D02*
D03*
Y61827D02*
D03*
X62000Y26000D02*
D03*
Y61827D02*
D03*
D18*
X68303Y88500D02*
D03*
D19*
X43500Y79445D02*
D03*
Y88500D02*
D03*
Y97555D02*
D03*
D20*
X107858Y96500D02*
D03*
X101480D02*
D03*
X108689Y82500D02*
D03*
X102311D02*
D03*
X91189Y83500D02*
D03*
X84811D02*
D03*
X91189Y68000D02*
D03*
X84811D02*
D03*
X128358Y47500D02*
D03*
X121980D02*
D03*
X111358D02*
D03*
X104980D02*
D03*
X94358D02*
D03*
X87980D02*
D03*
D21*
X92579Y30740D02*
D03*
Y27000D02*
D03*
Y23260D02*
D03*
X102421D02*
D03*
Y30740D02*
D03*
D22*
X174000Y57382D02*
D03*
Y77618D02*
D03*
D23*
X215000Y31500D02*
D03*
X257992D02*
D03*
D24*
X236496Y81500D02*
D03*
D25*
X237500Y128709D02*
D03*
Y117291D02*
D03*
D26*
X552949Y243000D02*
D03*
X534051D02*
D03*
D27*
X145000Y80358D02*
D03*
Y62642D02*
D03*
X130000Y142858D02*
D03*
Y125142D02*
D03*
X110000D02*
D03*
Y142858D02*
D03*
X89500D02*
D03*
Y125142D02*
D03*
X128000Y111858D02*
D03*
Y94142D02*
D03*
X125500Y80358D02*
D03*
Y62642D02*
D03*
D28*
X114382Y33240D02*
D03*
Y29500D02*
D03*
Y25760D02*
D03*
X124618D02*
D03*
Y33240D02*
D03*
D29*
X47795Y143000D02*
D03*
X72205D02*
D03*
D30*
X44370Y229500D02*
D03*
Y224500D02*
D03*
Y219500D02*
D03*
Y214500D02*
D03*
X65630D02*
D03*
Y219500D02*
D03*
Y224500D02*
D03*
Y229500D02*
D03*
D31*
X281098Y177161D02*
D03*
X281197Y168303D02*
D03*
X259098Y176661D02*
D03*
X259197Y167803D02*
D03*
X235598Y176555D02*
D03*
X235697Y167697D02*
D03*
X213098Y177055D02*
D03*
X213197Y168197D02*
D03*
X190598Y177055D02*
D03*
X190697Y168197D02*
D03*
D32*
X78500Y42937D02*
D03*
Y35063D02*
D03*
D33*
X163500Y25004D02*
D03*
Y37996D02*
D03*
D60*
X190697Y141724D02*
X236197D01*
Y141224D02*
X266000D01*
X266500Y141724D02*
X280697D01*
X266000Y141224D02*
X266500Y141724D01*
D61*
X221500Y132000D02*
X255500D01*
X259000Y135500D01*
X213000Y140500D02*
X221500Y132000D01*
X190500Y159000D02*
Y164000D01*
X235697Y186740D02*
X259098D01*
X218500D02*
X235697D01*
Y179740D02*
Y186740D01*
X190598Y180740D02*
Y186740D01*
X213098Y182642D02*
Y186740D01*
X190598D02*
X213098D01*
X213197Y158500D02*
Y163777D01*
X235500Y162500D02*
X235894Y162106D01*
Y159000D02*
Y162106D01*
X259500Y163500D02*
X259622Y159003D01*
X281000Y159500D02*
Y163500D01*
X281098Y182142D02*
Y183181D01*
X277539Y186740D02*
X281098Y183181D01*
X259098Y186740D02*
X277539D01*
X259098Y180642D02*
Y186740D01*
D62*
X257697Y31795D02*
X257992Y31500D01*
X211299Y27299D02*
X212500Y28500D01*
X146000Y117075D02*
Y218500D01*
X170000Y242500D02*
X492000D01*
X146000Y218500D02*
X170000Y242500D01*
X145075Y106543D02*
X174000Y77618D01*
X145075Y106543D02*
Y117075D01*
X144370Y62642D02*
X145000D01*
X130154Y48425D02*
X144370Y62642D01*
X128398Y48425D02*
X130154D01*
X128358Y48386D02*
X128398Y48425D01*
X128358Y47500D02*
Y48386D01*
X139858Y111858D02*
X145075Y117075D01*
X128000Y111858D02*
X139858D01*
X130630Y142858D02*
X145075Y128413D01*
Y117075D02*
Y128413D01*
X219000Y197000D02*
X232500D01*
X233000Y197500D01*
X210500Y205500D02*
X219000Y197000D01*
X492000Y242500D02*
X503000Y231500D01*
X496000Y11500D02*
X503000Y18500D01*
Y231500D01*
X329000Y11500D02*
X496000D01*
X130000Y142858D02*
X130630D01*
X233000Y197500D02*
Y221500D01*
X406500Y102500D02*
Y167694D01*
X404194Y170000D02*
X406500Y167694D01*
X393500Y170000D02*
X404194D01*
X386500Y163000D02*
X393500Y170000D01*
X386500Y74500D02*
Y163000D01*
Y74500D02*
X393000Y68000D01*
X422500D01*
X426000Y71500D01*
Y175000D01*
X416000Y185000D02*
X426000Y175000D01*
X386500Y185000D02*
X416000D01*
X375000Y173500D02*
X386500Y185000D01*
X375000Y58500D02*
Y173500D01*
Y58500D02*
X380500Y53000D01*
X432000D02*
X441000Y62000D01*
X380500Y53000D02*
X432000D01*
X441000Y62000D02*
Y185500D01*
X428000Y198500D02*
X441000Y185500D01*
X358000Y186500D02*
X370000Y198500D01*
X428000D01*
X358000Y44000D02*
X363694Y38306D01*
X358000Y44000D02*
Y186500D01*
X449000Y38306D02*
Y38500D01*
X363694Y38306D02*
X449000D01*
Y38500D02*
X457500Y47000D01*
Y201000D01*
X445000Y213500D02*
X457500Y201000D01*
X337500Y201500D02*
X349500Y213500D01*
X445000D01*
X337500Y32000D02*
Y201500D01*
Y32000D02*
X345500Y24000D01*
X463500D02*
X473500Y34000D01*
X345500Y24000D02*
X463500D01*
X473500Y34000D02*
Y210500D01*
X328500Y228000D02*
X456000D01*
X473500Y210500D01*
X319500Y219000D02*
X328500Y228000D01*
X319500Y21000D02*
Y219000D01*
Y21000D02*
X329000Y11500D01*
X144370Y80358D02*
X145000D01*
X128752Y64740D02*
X144370Y80358D01*
X127598Y64740D02*
X128752D01*
X125500Y62642D02*
X127598Y64740D01*
X128000Y82457D02*
Y94142D01*
X125902Y80358D02*
X128000Y82457D01*
X125500Y80358D02*
X125902D01*
X233000Y197500D02*
X235697Y194803D01*
Y186740D02*
Y194803D01*
D63*
X237500Y117291D02*
X283209D01*
X286500Y114000D01*
Y10000D02*
Y114000D01*
Y10000D02*
X290000Y6500D01*
D64*
X235697Y176654D02*
Y179740D01*
X190500Y168000D02*
X190697Y168197D01*
X190500Y164000D02*
Y168000D01*
X213197Y163777D02*
Y168197D01*
X235500Y162500D02*
Y167500D01*
X235697Y167697D01*
X259500Y163500D02*
X259697Y167303D01*
X259197Y167803D02*
X259697Y167303D01*
X281000Y163500D02*
Y168106D01*
X281197Y168303D01*
X281098Y177161D02*
Y182142D01*
X213098Y177055D02*
Y182642D01*
X259098Y176661D02*
Y180642D01*
X235598Y176555D02*
X235697Y176654D01*
D65*
X190598Y177055D02*
Y180740D01*
D66*
X86394Y208965D02*
D03*
X297598Y163764D02*
D03*
X297402Y179905D02*
D03*
X305500Y6000D02*
D03*
X297598Y136764D02*
D03*
X297402Y152905D02*
D03*
X290000Y6500D02*
D03*
X541500Y154028D02*
D03*
Y174500D02*
D03*
X14500Y40000D02*
D03*
X260000Y141000D02*
D03*
X260197Y157240D02*
D03*
X281197Y141224D02*
D03*
X281394Y157465D02*
D03*
X213000Y140500D02*
D03*
X213197Y156740D02*
D03*
X190697Y141724D02*
D03*
X190894Y157965D02*
D03*
X236197Y141224D02*
D03*
X236394Y157465D02*
D03*
X19000Y222000D02*
D03*
X76303Y209276D02*
D03*
X76106Y193035D02*
D03*
X210500Y205500D02*
D03*
X86197Y192724D02*
D03*
X97697Y191724D02*
D03*
X97894Y207965D02*
D03*
X81197Y159224D02*
D03*
X81394Y175465D02*
D03*
X101197Y159224D02*
D03*
X101394Y175465D02*
D03*
X118697Y159224D02*
D03*
X118894Y175465D02*
D03*
X14500Y53000D02*
D03*
X19000Y102500D02*
D03*
X18902Y110768D02*
D03*
Y119331D02*
D03*
X19000Y137244D02*
D03*
Y95020D02*
D03*
Y87441D02*
D03*
X76500Y17500D02*
D03*
D67*
X65000Y178482D02*
D03*
X63000Y15500D02*
D03*
X35000Y62000D02*
D03*
X31500Y26000D02*
D03*
X26500Y50000D02*
D03*
X87000Y55500D02*
D03*
X107500Y39500D02*
D03*
X135000Y31000D02*
D03*
X514500Y40000D02*
D03*
X66000Y196500D02*
D03*
X43000Y71000D02*
D03*
X101500Y66500D02*
D03*
X108000Y71000D02*
D03*
X144000Y37000D02*
D03*
X44000Y201594D02*
D03*
X31500Y207000D02*
D03*
X40500Y164000D02*
D03*
X523083Y243083D02*
D03*
X541500Y197500D02*
D03*
X79000Y77000D02*
D03*
X34000Y97000D02*
D03*
X72000Y121000D02*
D03*
X152500Y36000D02*
D03*
X102000Y57500D02*
D03*
X37000Y40000D02*
D03*
X492000Y41000D02*
D03*
X493500Y212500D02*
D03*
X528500Y213000D02*
D03*
X519000D02*
D03*
X521500Y40000D02*
D03*
X529500Y40500D02*
D03*
X233000Y221500D02*
D03*
X406500Y102500D02*
D03*
D68*
X245500Y6500D02*
D03*
Y13500D02*
D03*
Y19500D02*
D03*
X248500Y26000D02*
D03*
X245000D02*
D03*
X248500Y31000D02*
D03*
X245000D02*
D03*
X248500Y36000D02*
D03*
Y40500D02*
D03*
X245000Y36000D02*
D03*
Y40500D02*
D03*
X181500Y50500D02*
D03*
X177500D02*
D03*
X173000D02*
D03*
X169000D02*
D03*
X165000D02*
D03*
M02*
