G04*
G04 #@! TF.GenerationSoftware,Altium Limited,Altium Designer,20.2.7 (254)*
G04*
G04 Layer_Physical_Order=1*
G04 Layer_Color=255*
%FSLAX25Y25*%
%MOIN*%
G70*
G04*
G04 #@! TF.SameCoordinates,6C2C61A8-3AF8-4D38-8781-6E19ECE08A8B*
G04*
G04*
G04 #@! TF.FilePolarity,Positive*
G04*
G01*
G75*
%ADD12C,0.01575*%
%ADD13C,0.01000*%
%ADD15R,0.03740X0.05512*%
%ADD16R,0.05512X0.08268*%
%ADD17R,0.04528X0.07087*%
%ADD18R,0.06457X0.05197*%
%ADD19R,0.04528X0.02362*%
%ADD20R,0.11811X0.19685*%
%ADD21R,0.65315X0.53110*%
%ADD22R,0.04134X0.12992*%
%ADD23R,0.04134X0.07087*%
%ADD24R,0.21299X0.05787*%
%ADD25R,0.05906X0.02559*%
%ADD26R,0.07874X0.01968*%
%ADD27R,0.06890X0.03740*%
%ADD28R,0.06890X0.12598*%
%ADD29R,0.04016X0.05787*%
%ADD30R,0.05512X0.03740*%
%ADD31R,0.02953X0.04921*%
%ADD55C,0.03937*%
%ADD56C,0.09843*%
%ADD57C,0.11811*%
%ADD58C,0.00591*%
%ADD59C,0.06299*%
%ADD60C,0.06693*%
%ADD61C,0.03937*%
%ADD62C,0.05000*%
G36*
X284984Y150028D02*
Y149240D01*
X288035Y146189D01*
X280358D01*
X283410Y149240D01*
Y150028D01*
Y150126D01*
X280260Y153276D01*
X287982D01*
X284984Y150028D01*
D02*
G37*
G36*
X216984Y149921D02*
Y149134D01*
X220035Y146083D01*
X212358D01*
X215409Y149134D01*
Y149921D01*
Y150020D01*
X212260Y153169D01*
X219982D01*
X216984Y149921D01*
D02*
G37*
G36*
X194484D02*
Y149134D01*
X197535Y146083D01*
X189858D01*
X192909Y149134D01*
Y149921D01*
Y150020D01*
X189760Y153169D01*
X197482D01*
X194484Y149921D01*
D02*
G37*
G36*
X262984Y149528D02*
Y148740D01*
X266035Y145689D01*
X258358D01*
X261409Y148740D01*
Y149528D01*
Y149626D01*
X258260Y152776D01*
X265982D01*
X262984Y149528D01*
D02*
G37*
G36*
X239484Y149421D02*
Y148634D01*
X242535Y145583D01*
X234858D01*
X237910Y148634D01*
Y149421D01*
Y149520D01*
X234760Y152669D01*
X242482D01*
X239484Y149421D01*
D02*
G37*
D12*
X45063Y177590D02*
X45751D01*
X44359D02*
X45063D01*
X16500Y187429D02*
X24094Y195024D01*
Y196500D02*
X25413Y197819D01*
Y200913D01*
X31500Y207000D01*
X24094Y195024D02*
Y196500D01*
X35906Y177500D02*
X36500Y176906D01*
Y168000D02*
X40500Y164000D01*
X36500Y168000D02*
Y176906D01*
X38000Y186500D02*
X43980Y180520D01*
X27000Y186500D02*
X38000D01*
X43980Y177969D02*
Y180520D01*
Y177969D02*
X44359Y177590D01*
X45063Y176000D02*
Y177590D01*
Y176000D02*
X45063Y176000D01*
X24094Y183595D02*
X27000Y186500D01*
X30500Y165000D02*
X30500D01*
X16500Y173500D02*
X21857Y168143D01*
X27357D02*
X30500Y165000D01*
X21857Y168143D02*
X27357D01*
X30500Y165000D02*
X32067Y163433D01*
X16500Y173500D02*
Y187429D01*
X24094Y177500D02*
Y183595D01*
X32067Y160870D02*
X33437Y159500D01*
X32067Y160870D02*
Y163433D01*
D13*
X70500Y56000D02*
X86500D01*
X87000Y55500D01*
X109500Y36914D02*
Y44756D01*
X107500Y38914D02*
Y39500D01*
Y38914D02*
X109500Y36914D01*
X135000Y31000D02*
X137744Y28256D01*
X141563Y26000D02*
Y26886D01*
X140193Y28256D02*
X141563Y26886D01*
X137744Y28256D02*
X140193D01*
X152000Y35500D02*
X152500Y36000D01*
X152000Y29449D02*
Y35500D01*
X149437Y26000D02*
Y26886D01*
X152000Y29449D01*
X148996Y10500D02*
X163500Y25004D01*
X83554Y10500D02*
X148996D01*
X520000Y50000D02*
Y194500D01*
Y50000D02*
X529500Y40500D01*
X520000Y194500D02*
X534000Y208500D01*
X513500Y48000D02*
X521500Y40000D01*
X513500Y198550D02*
X527500Y212550D01*
X513500Y48000D02*
Y198550D01*
X507500Y200843D02*
X519000Y212343D01*
X508086Y40765D02*
X513735D01*
X507500Y41351D02*
X508086Y40765D01*
X507500Y41351D02*
Y200843D01*
X492000Y42082D02*
X497500Y47582D01*
X493500Y211418D02*
X497500Y207418D01*
Y47582D02*
Y207418D01*
X513735Y40765D02*
X514500Y40000D01*
X37405Y195000D02*
X44000Y201594D01*
X62500Y203500D02*
Y209000D01*
X25500Y210500D02*
Y211000D01*
X45751Y177590D02*
Y188000D01*
X73513Y143084D02*
X73584Y141984D01*
X73512Y143104D02*
X73513Y143084D01*
X73513Y143084D01*
X72910Y143705D02*
X73512Y143104D01*
X527500Y212550D02*
Y213207D01*
X68928Y162244D02*
X70083Y163398D01*
Y226720D01*
X59500Y196500D02*
X66000D01*
X73513Y143084D02*
Y143084D01*
X73513Y143084D02*
X73513Y143084D01*
X80063Y110500D02*
Y111386D01*
Y109614D02*
Y110500D01*
X84811Y68000D02*
Y68886D01*
Y67114D02*
Y68000D01*
X104980Y47500D02*
Y48386D01*
Y47066D02*
Y47500D01*
X43000Y71000D02*
Y78945D01*
X35000Y62000D02*
X44110D01*
X101500Y64500D02*
Y66500D01*
Y64500D02*
X118000Y48000D01*
X103819Y75181D02*
Y80992D01*
Y75181D02*
X108000Y71000D01*
X131000Y37000D02*
X144000D01*
X123488Y44512D02*
X131000Y37000D01*
X111358Y46614D02*
Y47500D01*
X109500Y44756D02*
X111358Y46614D01*
X109500Y27027D02*
Y36914D01*
X110086Y26441D02*
X113701D01*
X109500Y27027D02*
X110086Y26441D01*
X102006Y27148D02*
X105914D01*
X106500Y27734D01*
Y33266D01*
X105914Y33852D02*
X106500Y33266D01*
X102006Y33852D02*
X105914D01*
X91000Y41500D02*
X98000D01*
X103472Y45558D02*
X104980Y47066D01*
X102058Y45558D02*
X103472D01*
X98000Y41500D02*
X102058Y45558D01*
X88808Y43692D02*
X91000Y41500D01*
X88808Y43692D02*
Y46672D01*
X87980Y47500D02*
X88808Y46672D01*
X92486Y38702D02*
X95146Y36043D01*
X88309Y41362D02*
X90969Y38702D01*
X80075Y41362D02*
X88309D01*
X90969Y38702D02*
X92486D01*
X96260Y34240D02*
X101618D01*
X95146Y35354D02*
X96260Y34240D01*
X95146Y35354D02*
Y36043D01*
X72500Y41586D02*
Y46151D01*
X73849Y47500D02*
X87980D01*
X72500Y46151D02*
X73849Y47500D01*
X51551Y50000D02*
X59744Y58193D01*
X63452Y20952D02*
Y24548D01*
X26500Y50000D02*
X51551D01*
X63000Y20500D02*
X63452Y20952D01*
X62000Y60449D02*
Y61827D01*
X59744Y58193D02*
X59744D01*
X63000Y15500D02*
Y20500D01*
X44110Y62000D02*
Y63032D01*
X31500Y26000D02*
X44284D01*
X59744Y58193D02*
X62000Y60449D01*
Y26000D02*
X63452Y24548D01*
X72500Y41586D02*
X75653Y38433D01*
X93146Y24996D02*
X98142Y20000D01*
X108550D02*
X112618Y24068D01*
X98142Y20000D02*
X108550D01*
X91382Y26760D02*
X92465D01*
X93146Y26079D01*
Y24996D02*
Y26079D01*
X86500Y21000D02*
X90500Y17000D01*
X117654D01*
X86500Y21000D02*
Y29914D01*
X117654Y17000D02*
X124618Y23964D01*
X88500Y14500D02*
X122500D01*
X62000Y26000D02*
X77000D01*
X88500Y14500D01*
X122500D02*
X128672Y20672D01*
Y27549D01*
X76554Y17500D02*
X83554Y10500D01*
X35906Y196500D02*
X37405Y195000D01*
X48000Y200157D02*
X50000Y198157D01*
X48000Y200157D02*
Y204517D01*
X50000Y200985D02*
X53000Y197985D01*
X50000Y200985D02*
Y207500D01*
X45194Y212306D02*
X50000Y207500D01*
X45194Y212306D02*
Y213720D01*
X44414Y214500D02*
X45194Y213720D01*
X39917Y212599D02*
X48000Y204517D01*
X39917Y212599D02*
Y216721D01*
X50000Y192823D02*
Y198157D01*
X53000Y188937D02*
Y197985D01*
X44370Y214500D02*
X44414D01*
X39917Y216721D02*
X42697Y219500D01*
X46063Y188886D02*
X50000Y192823D01*
X53000Y188937D02*
X53937Y188000D01*
X54500Y203500D02*
Y209000D01*
Y203500D02*
X55870Y202130D01*
Y200130D02*
Y202130D01*
Y200130D02*
X59500Y196500D01*
X20744Y161756D02*
X24193D01*
X12500Y170000D02*
X20744Y161756D01*
X12500Y170000D02*
Y197500D01*
X24193Y161756D02*
X25563Y160386D01*
Y159500D02*
Y160386D01*
X12500Y197500D02*
X25500Y210500D01*
X46063Y188000D02*
Y188886D01*
X62061Y174927D02*
Y176561D01*
X65000Y179500D01*
X52937Y176000D02*
Y187000D01*
X53937Y188000D01*
X44370Y224500D02*
X54000D01*
X56500Y222000D01*
Y211000D02*
Y222000D01*
X54500Y209000D02*
X56500Y211000D01*
X44370Y229500D02*
X57500D01*
X59500Y227500D01*
Y212000D02*
Y227500D01*
Y212000D02*
X62500Y209000D01*
X62374Y203500D02*
X62500D01*
X42697Y219500D02*
X44370D01*
X25500Y211000D02*
X26000D01*
X38000Y229500D02*
X44370D01*
X34500Y226000D02*
X38000Y229500D01*
X34500Y219500D02*
Y226000D01*
X26000Y211000D02*
X34500Y219500D01*
X523083Y233500D02*
Y243083D01*
X541500Y174500D02*
Y197500D01*
Y198086D02*
X543500Y200086D01*
X541500Y197500D02*
Y198086D01*
X543500Y200086D02*
Y223220D01*
X534500Y232221D02*
X543500Y223220D01*
X534500Y232221D02*
Y233500D01*
X523083Y224917D02*
Y233500D01*
Y224917D02*
X527000Y221000D01*
X532000D01*
X534000Y219000D01*
Y208500D02*
Y219000D01*
X62061Y167506D02*
Y174927D01*
X61475Y175513D02*
X62061Y174927D01*
X52937Y176000D02*
X53424Y175513D01*
X61475D01*
X91189Y68000D02*
Y74013D01*
Y67114D02*
Y68000D01*
X106197Y162224D02*
X117000Y173028D01*
Y184000D01*
X109276Y191724D02*
X117000Y184000D01*
X97697Y191724D02*
X109276D01*
X97197Y192224D02*
X97697Y191724D01*
X86697Y192224D02*
X97197D01*
X86197Y192724D02*
X86697Y192224D01*
X93697Y162224D02*
X106197D01*
X81197D02*
X93697D01*
X79000Y77000D02*
X79197D01*
X84811Y82614D02*
Y83500D01*
X79197Y77000D02*
X84811Y82614D01*
X74500Y70979D02*
X75086Y70394D01*
X74500Y85000D02*
X78856Y89356D01*
X75086Y70394D02*
X83303D01*
X74500Y70979D02*
Y85000D01*
X83303Y70394D02*
X84811Y68886D01*
X78856Y89356D02*
X84856D01*
X14500Y53000D02*
X23000Y44500D01*
X31000D01*
X33500Y47000D01*
X61500D01*
X70500Y56000D01*
X14500Y40000D02*
X15000Y39500D01*
X36500D02*
X37000Y40000D01*
X15000Y39500D02*
X36500D01*
X14500Y53000D02*
X20414D01*
X27500Y60086D01*
X43000Y78945D02*
X43500Y79445D01*
X42945Y97000D02*
X43500Y97555D01*
X34000Y97000D02*
X42945D01*
X102311Y82500D02*
X103819Y80992D01*
X118000Y35188D02*
Y48000D01*
Y35188D02*
X118146Y35043D01*
Y31438D02*
Y35043D01*
X116889Y30181D02*
X118146Y31438D01*
X115063Y30181D02*
X116889D01*
X114382Y29500D02*
X115063Y30181D01*
X101480Y83331D02*
Y96500D01*
Y83331D02*
X102311Y82500D01*
X81000Y121000D02*
X86567Y115433D01*
X72000Y121000D02*
X81000D01*
X493500Y211418D02*
Y212500D01*
X492000Y41000D02*
Y42082D01*
X94358Y55722D02*
Y63945D01*
Y47500D02*
Y55722D01*
X87278D02*
X94358D01*
X156000Y41500D02*
X160524D01*
X134358D02*
X156000D01*
X152500Y36000D02*
Y38000D01*
X156000Y41500D01*
X123488Y44512D02*
Y45992D01*
X121980Y47500D02*
X123488Y45992D01*
X160524Y41500D02*
X163500Y38524D01*
X128358Y47500D02*
X134358Y41500D01*
X163500Y38488D02*
Y38524D01*
X102000Y57500D02*
X102472Y57028D01*
Y50894D02*
Y57028D01*
X43000Y143000D02*
X47795D01*
X37244Y137244D02*
X43000Y143000D01*
X19000Y137244D02*
X37244D01*
X540957Y154571D02*
X541500Y154028D01*
X519000Y212343D02*
Y213000D01*
X86567Y111870D02*
Y115433D01*
X87000Y91500D02*
Y98747D01*
X80500Y105000D02*
X85744Y99756D01*
X85991D01*
X87000Y98747D01*
X84856Y89356D02*
X87000Y91500D01*
X80063Y109614D02*
X80500Y109177D01*
Y105000D02*
Y109177D01*
X58563Y126437D02*
X72244Y112756D01*
X78693D01*
X58563Y126437D02*
Y165614D01*
X78693Y112756D02*
X80063Y111386D01*
X81207Y133435D02*
Y133435D01*
X86772Y127240D02*
X88870Y125142D01*
X86772Y127240D02*
Y127870D01*
X81207Y133435D02*
X86772Y127870D01*
X88870Y125142D02*
X89500D01*
X73291Y141351D02*
X81207Y133435D01*
X72205Y143000D02*
X72910Y143705D01*
X73291Y141351D02*
X73584Y141984D01*
X86567Y111870D02*
X87937Y110500D01*
X91374Y91374D02*
Y95500D01*
X84811Y83500D02*
X86319Y85008D01*
Y86319D01*
X91374Y91374D01*
X19000Y95020D02*
Y102500D01*
Y87441D02*
Y95020D01*
X29809Y73191D02*
X40555Y83936D01*
X27500Y70881D02*
X29809Y73191D01*
X19000Y87441D02*
X19028Y87413D01*
Y83972D02*
Y87413D01*
Y83972D02*
X29809Y73191D01*
X27500Y60086D02*
X31586Y56000D01*
X40555Y83936D02*
Y87130D01*
X31586Y56000D02*
X51000D01*
X41925Y88500D02*
X43500D01*
X40555Y87130D02*
X41925Y88500D01*
X27500Y60086D02*
Y70881D01*
X44110Y63032D02*
X55500Y74421D01*
X51000Y56000D02*
X53000Y58000D01*
Y63449D01*
X68303Y78752D02*
Y88500D01*
X53000Y63449D02*
X68303Y78752D01*
X55500Y74421D02*
Y87562D01*
X75479Y97586D02*
X77565Y95500D01*
X65523Y97586D02*
X75479D01*
X55500Y87562D02*
X65523Y97586D01*
X77565Y95500D02*
X83500D01*
X87937Y109614D02*
Y110500D01*
Y109614D02*
X89307Y108244D01*
X90193D01*
X97543Y100894D01*
X98851D01*
X62000Y61827D02*
X79524D01*
X84811Y67114D01*
X57563Y15280D02*
Y30574D01*
X62052Y35063D01*
X78500D01*
X57563Y15280D02*
X61343Y11500D01*
X70500D02*
X76500Y17500D01*
X61343Y11500D02*
X70500D01*
X101618Y34240D02*
X102006Y33852D01*
X101618Y26760D02*
X102006Y27148D01*
X76500Y17500D02*
X76554D01*
X78500Y42937D02*
X80075Y41362D01*
X75653Y38433D02*
X86106D01*
X90299Y34240D02*
X91382D01*
X86106Y38433D02*
X90299Y34240D01*
X113701Y26441D02*
X114382Y25760D01*
X102472Y50894D02*
X104980Y48386D01*
X91189Y74013D02*
X91189Y74013D01*
X91189Y74013D02*
Y75811D01*
X91189D02*
Y83500D01*
Y84386D01*
X97500Y90697D02*
Y99543D01*
X104350Y100894D02*
X107858Y97386D01*
X97500Y99543D02*
X98851Y100894D01*
X107858Y96500D02*
Y97386D01*
X98851Y100894D02*
X104350D01*
X91189Y84386D02*
X97500Y90697D01*
X61946Y164244D02*
X63946Y162244D01*
X67303Y229500D02*
X70083Y226720D01*
X59933Y164244D02*
X61946D01*
X58563Y165614D02*
X59933Y164244D01*
X58563Y165614D02*
Y166500D01*
X63946Y162244D02*
X68928D01*
X65630Y229500D02*
X67303D01*
X62061Y167506D02*
X63067Y166500D01*
X66437D01*
X89500Y142858D02*
X110000D01*
Y125142D02*
X130000D01*
X91189Y67114D02*
X94358Y63945D01*
X108689Y82500D02*
Y95669D01*
X107858Y96500D02*
X108689Y95669D01*
X126382Y29839D02*
X128672Y27549D01*
X124618Y33240D02*
X125701D01*
X126382Y32559D01*
Y29839D02*
Y32559D01*
X87086Y30500D02*
X91382D01*
X86500Y29914D02*
X87086Y30500D01*
X112618Y25079D02*
X113299Y25760D01*
X112618Y24068D02*
Y25079D01*
X113299Y25760D02*
X114382D01*
X124618Y23964D02*
Y25760D01*
D15*
X141563Y26000D02*
D03*
X149437D02*
D03*
X25563Y159500D02*
D03*
X33437D02*
D03*
X62374Y203500D02*
D03*
X54500D02*
D03*
X58563Y166500D02*
D03*
X66437D02*
D03*
X45063Y176000D02*
D03*
X52937D02*
D03*
X46063Y188000D02*
D03*
X53937D02*
D03*
X83500Y95500D02*
D03*
X91374D02*
D03*
X80063Y110500D02*
D03*
X87937D02*
D03*
D16*
X44284Y26000D02*
D03*
Y61827D02*
D03*
X62000Y26000D02*
D03*
Y61827D02*
D03*
D17*
X523083Y233500D02*
D03*
X534500D02*
D03*
D18*
X145000Y80358D02*
D03*
Y62642D02*
D03*
X130000Y142858D02*
D03*
Y125142D02*
D03*
X110000D02*
D03*
Y142858D02*
D03*
X89500D02*
D03*
Y125142D02*
D03*
X128000Y111858D02*
D03*
Y94142D02*
D03*
X125500Y80358D02*
D03*
Y62642D02*
D03*
D19*
X114382Y33240D02*
D03*
Y29500D02*
D03*
Y25760D02*
D03*
X124618D02*
D03*
Y33240D02*
D03*
X91382Y34240D02*
D03*
Y30500D02*
D03*
Y26760D02*
D03*
X101618D02*
D03*
Y30500D02*
D03*
Y34240D02*
D03*
D20*
X255996Y26205D02*
D03*
X213004D02*
D03*
D21*
X234500Y76205D02*
D03*
D22*
X47795Y143000D02*
D03*
X72205D02*
D03*
D23*
X35906Y196500D02*
D03*
X24094D02*
D03*
Y177500D02*
D03*
X35906D02*
D03*
D24*
X154925Y121500D02*
D03*
Y101264D02*
D03*
D25*
X44370Y229500D02*
D03*
Y224500D02*
D03*
Y219500D02*
D03*
Y214500D02*
D03*
X65630D02*
D03*
Y219500D02*
D03*
Y224500D02*
D03*
Y229500D02*
D03*
D26*
X284098Y154161D02*
D03*
X284197Y145303D02*
D03*
X262098Y153661D02*
D03*
X262197Y144803D02*
D03*
X238598Y153555D02*
D03*
X238697Y144697D02*
D03*
X216098Y154055D02*
D03*
X216197Y145197D02*
D03*
X193598Y154055D02*
D03*
X193697Y145197D02*
D03*
D27*
X43500Y97555D02*
D03*
Y88500D02*
D03*
Y79445D02*
D03*
D28*
X68303Y88500D02*
D03*
D29*
X102311Y82500D02*
D03*
X108689D02*
D03*
X101480Y96500D02*
D03*
X107858D02*
D03*
X84811Y68000D02*
D03*
X91189D02*
D03*
X121980Y47500D02*
D03*
X128358D02*
D03*
X104980D02*
D03*
X111358D02*
D03*
X87980D02*
D03*
X94358D02*
D03*
X84811Y83500D02*
D03*
X91189D02*
D03*
D30*
X78500Y42937D02*
D03*
Y35063D02*
D03*
D31*
X163500Y25004D02*
D03*
Y37996D02*
D03*
D55*
X176500Y41500D02*
X240701D01*
X248122Y34079D01*
X172996Y37996D02*
X176500Y41500D01*
X179000Y44000D01*
X222000Y174000D02*
X235500D01*
X236000Y174500D01*
X213500Y182500D02*
X222000Y174000D01*
X492000Y242500D02*
X503000Y231500D01*
X496000Y11500D02*
X503000Y18500D01*
Y231500D01*
X329000Y11500D02*
X496000D01*
X199000Y242500D02*
X492000D01*
X128000Y111858D02*
X137528D01*
X147169Y121500D01*
X130000Y142858D02*
X130630D01*
X146244Y127244D01*
Y122425D02*
Y127244D01*
Y122425D02*
X147169Y121500D01*
X154925D01*
X236000Y174500D02*
Y198500D01*
X406500Y102500D02*
Y167694D01*
X404194Y170000D02*
X406500Y167694D01*
X393500Y170000D02*
X404194D01*
X386500Y163000D02*
X393500Y170000D01*
X386500Y74500D02*
Y163000D01*
Y74500D02*
X393000Y68000D01*
X422500D01*
X426000Y71500D01*
Y175000D01*
X416000Y185000D02*
X426000Y175000D01*
X386500Y185000D02*
X416000D01*
X375000Y173500D02*
X386500Y185000D01*
X375000Y58500D02*
Y173500D01*
Y58500D02*
X380500Y53000D01*
X432000D02*
X441000Y62000D01*
X380500Y53000D02*
X432000D01*
X441000Y62000D02*
Y185500D01*
X428000Y198500D02*
X441000Y185500D01*
X358000Y186500D02*
X370000Y198500D01*
X428000D01*
X358000Y44000D02*
X363694Y38306D01*
X358000Y44000D02*
Y186500D01*
X449000Y38306D02*
Y38500D01*
X363694Y38306D02*
X449000D01*
Y38500D02*
X457500Y47000D01*
Y201000D01*
X445000Y213500D02*
X457500Y201000D01*
X337500Y201500D02*
X349500Y213500D01*
X445000D01*
X337500Y32000D02*
Y201500D01*
Y32000D02*
X345500Y24000D01*
X463500D02*
X473500Y34000D01*
X345500Y24000D02*
X463500D01*
X473500Y34000D02*
Y210500D01*
X328500Y228000D02*
X456000D01*
X473500Y210500D01*
X319500Y219000D02*
X328500Y228000D01*
X319500Y21000D02*
Y219000D01*
Y21000D02*
X329000Y11500D01*
X154925Y198425D02*
X199000Y242500D01*
X154925Y121500D02*
Y198425D01*
X144370Y80358D02*
X145000D01*
X128752Y64740D02*
X144370Y80358D01*
X127598Y64740D02*
X128752D01*
X125500Y62642D02*
X127598Y64740D01*
X128000Y82457D02*
Y94142D01*
X125902Y80358D02*
X128000Y82457D01*
X125500Y80358D02*
X125902D01*
X163500Y37996D02*
X172996D01*
X163500Y25004D02*
X211803D01*
X213004Y26205D01*
X145000Y62642D02*
X145630D01*
X151063Y68075D01*
X154925D01*
Y101264D01*
Y68075D02*
X179000Y44000D01*
X255996Y26205D02*
Y30142D01*
X252059Y34079D02*
X255996Y30142D01*
X248122Y34079D02*
X252059D01*
X236000Y174500D02*
X238697Y171803D01*
Y163740D02*
Y171803D01*
D56*
Y117224D02*
X283697D01*
X193500Y116724D02*
X238697D01*
X223000Y87705D02*
X234500Y76205D01*
X223000Y87705D02*
Y109000D01*
X215500Y116500D02*
X223000Y109000D01*
X234500Y76205D02*
X251000Y92705D01*
Y105000D01*
X262500Y116500D01*
Y117000D01*
X238697Y116724D02*
Y117224D01*
D57*
X193500Y136000D02*
Y141000D01*
X238697Y163740D02*
X262098D01*
X221500D02*
X238697D01*
Y156740D02*
Y163740D01*
X193598Y157740D02*
Y163740D01*
X216098Y159642D02*
Y163740D01*
X193598D02*
X216098D01*
X216197Y135500D02*
Y140777D01*
X238500Y139500D02*
X238894Y139106D01*
Y136000D02*
Y139106D01*
X262500Y140500D02*
X262622Y136003D01*
X284000Y136500D02*
Y140500D01*
X284098Y159142D02*
Y160181D01*
X280539Y163740D02*
X284098Y160181D01*
X262098Y163740D02*
X280539D01*
X262098Y157642D02*
Y163740D01*
D58*
X163500Y37996D02*
Y38488D01*
D59*
X238697Y153654D02*
Y156740D01*
X193500Y145000D02*
X193697Y145197D01*
X193500Y141000D02*
Y145000D01*
X216197Y140777D02*
Y145197D01*
X238500Y139500D02*
Y144500D01*
X238697Y144697D01*
X262500Y140500D02*
X262697Y144303D01*
X262197Y144803D02*
X262697Y144303D01*
X284000Y140500D02*
Y145106D01*
X284197Y145303D01*
X284098Y154161D02*
Y159142D01*
X216098Y154055D02*
Y159642D01*
X262098Y153661D02*
Y157642D01*
X238598Y153555D02*
X238697Y153654D01*
D60*
X193598Y154055D02*
Y157740D01*
D61*
X541500Y154028D02*
D03*
Y174500D02*
D03*
X14500Y40000D02*
D03*
X262500Y117000D02*
D03*
X262697Y133240D02*
D03*
X283697Y117224D02*
D03*
X283894Y133465D02*
D03*
X215500Y116500D02*
D03*
X215697Y132740D02*
D03*
X193197Y117724D02*
D03*
X193394Y133965D02*
D03*
X238697Y117224D02*
D03*
X238894Y133465D02*
D03*
X26000Y211000D02*
D03*
X76303Y209276D02*
D03*
X76106Y193035D02*
D03*
X213500Y182500D02*
D03*
X86197Y192724D02*
D03*
X86394Y208965D02*
D03*
X97697Y191724D02*
D03*
X97894Y207965D02*
D03*
X81197Y162224D02*
D03*
X81394Y178465D02*
D03*
X93697Y162224D02*
D03*
X93894Y178465D02*
D03*
X106197Y162224D02*
D03*
X106394Y178465D02*
D03*
X14500Y53000D02*
D03*
X19000Y102500D02*
D03*
X18902Y110768D02*
D03*
Y119331D02*
D03*
X19000Y137244D02*
D03*
Y95020D02*
D03*
Y87441D02*
D03*
X76500Y17500D02*
D03*
D62*
X87000Y55500D02*
D03*
X107500Y39500D02*
D03*
X135000Y31000D02*
D03*
X514500Y40000D02*
D03*
X66000Y196500D02*
D03*
X43000Y71000D02*
D03*
X35000Y62000D02*
D03*
X101500Y66500D02*
D03*
X108000Y71000D02*
D03*
X144000Y37000D02*
D03*
X63000Y15500D02*
D03*
X26500Y50000D02*
D03*
X31500Y26000D02*
D03*
X44000Y201594D02*
D03*
X31500Y207000D02*
D03*
X40500Y164000D02*
D03*
X65000Y179500D02*
D03*
X523083Y243083D02*
D03*
X541500Y197500D02*
D03*
X79000Y77000D02*
D03*
X34000Y97000D02*
D03*
X72000Y121000D02*
D03*
X152500Y36000D02*
D03*
X102000Y57500D02*
D03*
X37000Y40000D02*
D03*
X492000Y41000D02*
D03*
X493500Y212500D02*
D03*
X528500Y213000D02*
D03*
X519000D02*
D03*
X521500Y40000D02*
D03*
X529500Y40500D02*
D03*
X236000Y198500D02*
D03*
X406500Y102500D02*
D03*
M02*
