G04*
G04 #@! TF.GenerationSoftware,Altium Limited,Altium Designer,20.2.7 (254)*
G04*
G04 Layer_Color=255*
%FSLAX25Y25*%
%MOIN*%
G70*
G04*
G04 #@! TF.SameCoordinates,5F875E55-BAE3-40D7-A44D-41C4DA183B39*
G04*
G04*
G04 #@! TF.FilePolarity,Positive*
G04*
G01*
G75*
%ADD58C,0.03937*%
D58*
X11740Y54893D02*
D03*
X11937Y63161D02*
D03*
X12098Y96232D02*
D03*
X12000Y104500D02*
D03*
X12197Y119461D02*
D03*
X12295Y137374D02*
D03*
X12098Y88752D02*
D03*
X12000Y111784D02*
D03*
X12197Y72118D02*
D03*
X86394Y208965D02*
D03*
X297598Y163764D02*
D03*
X297402Y179905D02*
D03*
X305500Y6000D02*
D03*
X297598Y136764D02*
D03*
X297402Y152905D02*
D03*
X290000Y6500D02*
D03*
X541500Y154028D02*
D03*
Y174500D02*
D03*
X17500Y19000D02*
D03*
X260000Y141000D02*
D03*
X260197Y157240D02*
D03*
X281197Y141224D02*
D03*
X281394Y157465D02*
D03*
X213000Y140500D02*
D03*
X213197Y156740D02*
D03*
X190697Y141724D02*
D03*
X190894Y157965D02*
D03*
X236197Y141224D02*
D03*
X236394Y157465D02*
D03*
X19000Y222000D02*
D03*
X76303Y209276D02*
D03*
X76106Y193035D02*
D03*
X210500Y205500D02*
D03*
X86197Y192724D02*
D03*
X97697Y191724D02*
D03*
X97894Y207965D02*
D03*
X81197Y159224D02*
D03*
X81394Y175465D02*
D03*
X101197Y159224D02*
D03*
X101394Y175465D02*
D03*
X118697Y159224D02*
D03*
X118894Y175465D02*
D03*
X17500Y31500D02*
D03*
X99000Y11500D02*
D03*
M02*
