G04*
G04 #@! TF.GenerationSoftware,Altium Limited,Altium Designer,20.2.7 (254)*
G04*
G04 Layer_Color=32768*
%FSLAX25Y25*%
%MOIN*%
G70*
G04*
G04 #@! TF.SameCoordinates,445C0D7E-7E36-472A-9239-D9981030C948*
G04*
G04*
G04 #@! TF.FilePolarity,Positive*
G04*
G01*
G75*
%ADD10C,0.00394*%
%ADD90C,0.00197*%
D10*
X277091Y285894D02*
Y337075D01*
Y285894D02*
X328272D01*
Y337075D01*
X277091D02*
X328272D01*
X257591Y231894D02*
Y283075D01*
Y231894D02*
X308772D01*
Y283075D01*
X257591D02*
X308772D01*
X210449Y250752D02*
Y284216D01*
Y250752D02*
X243913D01*
Y284216D01*
X210449D02*
X243913D01*
X157591Y22394D02*
Y73575D01*
Y22394D02*
X208772D01*
Y73575D01*
X157591D02*
X208772D01*
X374590Y8894D02*
Y60075D01*
Y8894D02*
X425772D01*
Y60075D01*
X374590D02*
X425772D01*
X86590Y419894D02*
Y471075D01*
Y419894D02*
X137772D01*
Y471075D01*
X86590D02*
X137772D01*
X280090Y353894D02*
Y405075D01*
Y353894D02*
X331272D01*
Y405075D01*
X280090D02*
X331272D01*
X44697Y295736D02*
Y327232D01*
X96665D01*
Y295736D02*
Y327232D01*
X44697Y295736D02*
X96665D01*
X103476Y393244D02*
X137886D01*
Y340488D02*
Y393244D01*
X103476Y340488D02*
X137886D01*
X103476D02*
Y393244D01*
X48228Y357677D02*
Y389173D01*
X100197D01*
Y357677D02*
Y389173D01*
X48228Y357677D02*
X100197D01*
X200587Y406476D02*
X273776D01*
Y309842D02*
Y406476D01*
X200587Y309842D02*
X273776D01*
X200587D02*
Y406476D01*
D90*
X57776Y347638D02*
X83169D01*
Y335039D02*
Y347638D01*
X57776Y335039D02*
X83169D01*
X57776D02*
Y347638D01*
X450689Y36417D02*
X464272D01*
Y28937D02*
Y36417D01*
X450689Y28937D02*
X464272D01*
X450689D02*
Y36417D01*
X470130Y38524D02*
Y60177D01*
X440799D02*
X470130D01*
X440799Y38524D02*
Y60177D01*
Y38524D02*
X470130D01*
X437913Y68858D02*
X449488D01*
Y61850D02*
Y68858D01*
X437913Y61850D02*
X449488D01*
X437913D02*
Y68858D01*
X456417D02*
X467992D01*
Y61850D02*
Y68858D01*
X456417Y61850D02*
X467992D01*
X456417D02*
Y68858D01*
X481299Y31791D02*
Y45374D01*
X473819Y31791D02*
X481299D01*
X473819D02*
Y45374D01*
X481299D01*
X217894Y246988D02*
X229468D01*
Y239980D02*
Y246988D01*
X217894Y239980D02*
X229468D01*
X217894D02*
Y246988D01*
X216713Y232161D02*
X230650D01*
X216713Y216807D02*
Y232161D01*
Y216807D02*
X230650D01*
Y232161D01*
X221378Y207520D02*
X232953D01*
X221378D02*
Y214528D01*
X232953D01*
Y207520D02*
Y214528D01*
X220185Y61197D02*
Y72772D01*
X213177Y61197D02*
X220185D01*
X213177D02*
Y72772D01*
X220185D01*
X231953Y60224D02*
X245535D01*
Y52744D02*
Y60224D01*
X231953Y52744D02*
X245535D01*
X231953D02*
Y60224D01*
X253441Y64193D02*
Y77776D01*
X260921D01*
Y64193D02*
Y77776D01*
X253441Y64193D02*
X260921D01*
X54748Y441756D02*
Y463213D01*
X25614D02*
X54748D01*
X25614Y441756D02*
Y463213D01*
Y441756D02*
X54748D01*
X12941Y449693D02*
Y463276D01*
X20421D01*
Y449693D02*
Y463276D01*
X12941Y449693D02*
X20421D01*
X63453Y257744D02*
X77035D01*
X63453D02*
Y265224D01*
X77035D01*
Y257744D02*
Y265224D01*
X64894Y269480D02*
X76468D01*
X64894D02*
Y276488D01*
X76468D01*
Y269480D02*
Y276488D01*
X64327Y287224D02*
X77909D01*
Y279744D02*
Y287224D01*
X64327Y279744D02*
X77909D01*
X64327D02*
Y287224D01*
X125394Y322980D02*
X136969D01*
X125394D02*
Y329988D01*
X136969D01*
Y322980D02*
Y329988D01*
X124779Y307658D02*
Y321831D01*
Y307658D02*
X141512D01*
Y321831D01*
X124779D02*
X141512D01*
X178685Y297697D02*
Y309272D01*
X171677Y297697D02*
X178685D01*
X171677D02*
Y309272D01*
X178685D01*
X169685Y297697D02*
Y309272D01*
X162677Y297697D02*
X169685D01*
X162677D02*
Y309272D01*
X169685D01*
X160185Y297697D02*
Y309272D01*
X153177Y297697D02*
X160185D01*
X153177D02*
Y309272D01*
X160185D01*
X187941Y349882D02*
Y377087D01*
X165421Y349882D02*
X187941D01*
X165421D02*
Y377087D01*
X187941D01*
X165441Y349882D02*
Y377087D01*
X142921Y349882D02*
X165441D01*
X142921D02*
Y377087D01*
X165441D01*
X75925Y412465D02*
X106437D01*
Y397504D02*
Y412465D01*
X75925Y397504D02*
X106437D01*
X75925D02*
Y412465D01*
X40925Y412965D02*
X71437D01*
Y398004D02*
Y412965D01*
X40925Y398004D02*
X71437D01*
X40925D02*
Y412965D01*
X24453Y435724D02*
X38035D01*
Y428244D02*
Y435724D01*
X24453Y428244D02*
X38035D01*
X24453D02*
Y435724D01*
X41634Y428937D02*
X55216D01*
X41634D02*
Y436417D01*
X55216D01*
Y428937D02*
Y436417D01*
X60724Y440457D02*
X78638D01*
X60724D02*
Y449512D01*
X78638D01*
Y440457D02*
Y449512D01*
X250847Y62657D02*
Y84311D01*
X221516D02*
X250847D01*
X221516Y62657D02*
Y84311D01*
Y62657D02*
X250847D01*
X248327Y60724D02*
X261910D01*
Y53244D02*
Y60724D01*
X248327Y53244D02*
X261910D01*
X248327D02*
Y60724D01*
X60319Y452457D02*
Y461512D01*
Y452457D02*
X78232D01*
Y461512D01*
X60319D02*
X78232D01*
X48390Y474244D02*
Y481724D01*
Y474244D02*
X61972D01*
Y481724D01*
X48390D02*
X61972D01*
X29890Y473744D02*
Y481224D01*
Y473744D02*
X43472D01*
Y481224D01*
X29890D02*
X43472D01*
X148516Y332811D02*
X177847D01*
Y311157D02*
Y332811D01*
X148516Y311157D02*
X177847D01*
X148516D02*
Y332811D01*
X181827Y315744D02*
Y323224D01*
Y315744D02*
X195409D01*
Y323224D01*
X181827D02*
X195409D01*
X224240Y332579D02*
X244122D01*
Y319390D02*
Y332579D01*
X224240Y319390D02*
X244122D01*
X224240D02*
Y332579D01*
X231177Y97772D02*
X238185D01*
X231177Y86197D02*
Y97772D01*
Y86197D02*
X238185D01*
Y97772D01*
X473425Y63090D02*
X480905D01*
X473425Y49508D02*
Y63090D01*
Y49508D02*
X480905D01*
Y63090D01*
M02*
