M48
;Layer_Color=9474304
;FILE_FORMAT=2:5
INCH,LZ
;TYPE=PLATED
T1F00S00C0.02800
T2F00S00C0.03150
%
T01
X0492Y0041
X05145Y004
X05215
X05295Y00405
X01525Y0036
X0144Y0037
X0135Y0031
X01075Y00395
X0102Y00575
X01015Y00665
X0108Y0071
X0079Y0077
X0087Y00555
X0035Y0062
X0043Y0071
X0034Y0097
X00265Y005
X0037Y004
X00315Y0026
X0063Y00155
X0072Y0121
X0065Y01795
X0066Y01965
X0044Y0201594
X00315Y0207
X00405Y0164
X0236Y01985
X04065Y01025
X04935Y02125
X0519Y0213
X05285
X05415Y01975
X0523083Y0243083
T02
X00145Y004
Y0053
X0019Y0087441
Y009502
X00765Y00175
X0019Y01025
X0018902Y0110768
Y0119331
X0019Y0137244
X0026Y0211
X0076303Y0209276
X0086394Y0208965
X0097894Y0207965
X0097697Y0191724
X0086197Y0192724
X0076106Y0193035
X0081394Y0178465
X0093894
X0093697Y0162224
X0081197
X0106197
X0106394Y0178465
X02135Y01825
X0215697Y013274
X02155Y01165
X0193197Y0117724
X0193394Y0133965
X0238894Y0133465
X0238697Y0117224
X02625Y0117
X0262697Y013324
X0283894Y0133465
X0283697Y0117224
X05415Y0154028
Y01745
M30
